<?xml version="1.0" encoding="utf-8"?>
<!-- Generator: Adobe Illustrator 16.1.0, SVG Export Plug-In . SVG Version: 6.00 Build 0)  -->
<!DOCTYPE svg PUBLIC "-//W3C//DTD SVG 1.1//EN" "http://www.w3.org/Graphics/SVG/1.1/DTD/svg11.dtd">
<svg version="1.1" id="Layer_1" xmlns="http://www.w3.org/2000/svg" xmlns:xlink="http://www.w3.org/1999/xlink" x="0px" y="0px"
	 width="400px" height="242.045px" viewBox="0 0 400 242.045" enable-background="new 0 0 400 242.045" xml:space="preserve">
<symbol  id="Arrow_26" viewBox="-23.148 -14.24 48.32 29.052">
	<polygon fill="none" points="-22.86,-13.141 22.86,-13.141 22.86,13.14 -22.86,13.14 	"/>
	<g>
		<g>
			<polygon fill="#E6DDAE" points="-22.86,-6.339 0.069,-6.339 0.069,-13.141 22.86,0.001 0.069,13.14 0.069,6.339 -22.86,6.339 			
				"/>
			<g>
				<g>
					<g>
						<path fill="#D2865D" d="M-22.86-6.339c0-0.065,0.001-0.028-0.003,0.152l-0.006,0.129L-22.86-6.339z"/>
						<path fill="#D2865D" d="M-22.862-5.121c-0.008,0.213-0.032,0.458-0.048,0.32c0.021-0.25,0.017-0.2,0.041-0.489
							c0.003-0.181,0-0.315-0.005-0.285c0.002-0.093,0.005-0.178,0.01-0.379c0.001,0.235,0.005,0.534-0.009,0.846
							C-22.871-5.041-22.866-5.106-22.862-5.121z"/>
						<path fill="#D2865D" d="M-16.628,6.076l-0.114,0.023C-16.711,6.086-16.672,6.08-16.628,6.076z"/>
						<path fill="#D2865D" d="M-5.667,5.843C-5.75,5.838-5.785,5.813-5.789,5.79C-5.711,5.806-5.648,5.821-5.667,5.843z"/>
						<path fill="#D2865D" d="M-3.795,5.536c-0.041,0.007-0.074,0.013-0.11,0.02C-3.863,5.53-3.821,5.516-3.795,5.536z"/>
						<path fill="#D2865D" d="M-16.628,6.076l0.293-0.062C-16.315,6.075-16.485,6.061-16.628,6.076z"/>
						<path fill="#D2865D" d="M-22.981-2.682c0.006-0.056,0.011-0.105,0.017-0.159l-0.009,0.149L-22.981-2.682z"/>
						<path fill="#D2865D" d="M-21.46,6.006l-0.089,0.001c-0.026-0.017-0.05-0.037-0.074-0.06L-21.46,6.006z"/>
						<path fill="#D2865D" d="M-22.583,4.03c0.006,0.084-0.093,0.113-0.137,0.145c0.041-0.047,0.06-0.109,0.066-0.183
							C-22.635,3.991-22.612,4.001-22.583,4.03z"/>
						<path fill="#D2865D" d="M-22.811-1.851l0.006-0.104C-22.806-1.927-22.809-1.884-22.811-1.851z"/>
						<path fill="#D2865D" d="M-18.806,5.928c0.006-0.021,0.02-0.041,0.034-0.053C-18.772,5.893-18.786,5.911-18.806,5.928z"/>
						<path fill="#D2865D" d="M-18.561-6.556c0.002,0.003-0.001,0.006,0,0.008C-18.583-6.551-18.59-6.554-18.561-6.556z"/>
						<polygon fill="#D2865D" points="-22.86,-6.339 -22.8,-6.339 -22.788,-6.338 						"/>
						<path fill="#D2865D" d="M0.411,5.236C0.397,5.237,0.393,5.238,0.38,5.239C0.233,5.211,0.324,5.217,0.411,5.236z"/>
						<path fill="#D2865D" d="M20.071,0.275c0.055,0.111,0.149,0.15,0.276,0.174c0.118,0.029,0.273,0.041,0.248,0.214
							c-0.034-0.043-0.194-0.078-0.311-0.144C20.164,0.455,20.083,0.36,20.071,0.275z"/>
						<path fill="#D2865D" d="M-22.979-2.586l-0.005,0.152C-22.981-2.504-22.98-2.548-22.979-2.586z"/>
						<path fill="#D2865D" d="M20.596,0.663l0.002,0.001L20.588,0.7C20.591,0.685,20.593,0.676,20.596,0.663z"/>
						<path fill="#D2865D" d="M1.281,11.156c-0.03,0.07-0.059,0.127-0.089,0.184C1.21,11.304,1.23,11.261,1.281,11.156z"/>
						<path fill="#D2865D" d="M0.762,7.912l0.033,0.146C0.773,8,0.765,7.953,0.762,7.912z"/>
						<path fill="#D2865D" d="M2.898,10.631c0.058-0.058,0.063-0.103,0.174-0.126c-0.002,0.017-0.006,0.03-0.012,0.045
							C3.008,10.538,2.955,10.549,2.898,10.631z"/>
						<path fill="#D2865D" d="M5.644,9.032C5.64,9.059,5.628,9.083,5.621,9.109C5.591,9.121,5.557,9.135,5.526,9.147L5.644,9.032z"
							/>
						<path fill="#D2865D" d="M-8.905-6.871c-0.069,0.038-0.113,0.078-0.146,0.117C-9.003-6.845-9.47-6.861-8.905-6.871z"/>
						<path fill="#D2865D" d="M-22.958-2.68c-0.011,0.019-0.017,0.045-0.02,0.094l0.005-0.105C-22.967-2.7-22.962-2.703-22.958-2.68
							z"/>
						<path fill="#D2865D" d="M4.058,12.384l0.42-0.283C4.368,12.193,4.215,12.296,4.058,12.384z"/>
						<path fill="#D2865D" d="M6.639-10.484l-0.087-0.081C6.594-10.549,6.626-10.522,6.639-10.484z"/>
						<path fill="#D2865D" d="M5.802,11.399c0.031-0.127,0.086-0.222,0.154-0.302c0.028,0.008,0.058,0.011,0.086,0.031L5.802,11.399
							z"/>
						<path fill="#D2865D" d="M-9.053-6.753l0.001-0.001L-9.053-6.753z"/>
						<path fill="#D2865D" d="M-12.378-6.906c0.481-0.024,0.226,0.121,0.327,0.194c0.575,0.022,0.267-0.109,0.461-0.188
							c0.359,0.021,0.633,0.146,0.901,0.133c0.02-0.024,0.072-0.035,0.011-0.064c0.379,0.109,1.125-0.03,1.567,0.121
							c0.033-0.016,0.05-0.029,0.058-0.043c-0.071,0.085-0.082,0.168-0.067,0.227c0.215,0,0.4,0.102,0.481-0.009
							C-8.772-6.53-8.783-6.574-8.845-6.607l0.227,0.045c0.203-0.162-0.309-0.051-0.309-0.166c0.441,0.04,0.954,0.169,1.292,0.118
							c0.07-0.165-0.79-0.04-0.339-0.191L-8.497-6.73c0.399-0.257-0.318,0.026,0.049-0.247C-7.76-7.049-7.679-6.921-6.992-6.99
							c0.153,0.089-0.052,0.14,0.103,0.229c0.974,0.157,0.768-0.457,1.483-0.242c0.186,0.114,0.258,0.346,0.768,0.214l-0.174-0.207
							c0.666-0.039,0.38,0.298,1.077,0.14c-0.123-0.083-0.522-0.061-0.422-0.089c0.451-0.182,0.319,0.115,0.667,0.109l0.072-0.197
							C-2.71-7.022-1.93-6.891-1.145-6.864C-1.188-6.927-1.323-6.99-1.139-7.059C-0.978-7.05-0.974-7.037-0.928-7.03
							c0.042,0.008,0.085,0.012,0.127,0.014c0.042,0.001,0.083,0,0.12-0.003c0.029-0.011-0.003-0.084-0.005-0.121
							c-0.01-0.045-0.021-0.087-0.034-0.125C-0.734-7.32-0.747-7.283-0.766-7.455c-0.041-0.254-0.08-0.504-0.118-0.743l0.193-0.364
							C-0.694-8.647-0.785-8.72-0.822-8.629C-0.908-9-0.694-8.647-0.618-8.826c0.011-0.212-0.123-0.279-0.181-0.146
							c0.079-0.329,0.166-0.796,0.204-1.269c0.019-0.235,0.026-0.473,0.013-0.694c-0.01-0.265-0.034-0.635-0.089-0.921l-0.065,0.195
							c-0.038-0.468,0.073-0.671,0.169-0.815c0.096-0.156,0.176-0.251,0.083-0.729l-0.038,0.098c-0.005-0.23-0.01-0.463-0.016-0.697
							L-0.54-14.15l0-0.086c0.008-0.016,0.045,0.019,0.065,0.026l0.149,0.083c0.397,0.224,0.793,0.447,1.179,0.664
							c0.384,0.213,0.753,0.409,1.122,0.58l0.277,0.123l0.184,0.061c0.122,0.035,0.242,0.062,0.362,0.078
							c-0.022,0.377,1.087,0.43,0.913,0.883c0.702,0.12,0.578-0.049,1.482,0.267c0.231,0.102,0.173,0.448,0.417,0.646l0.137-0.223
							l0.231,0.443l0.353-0.162l0.22,0.201c-0.109-0.043-0.274-0.019-0.297,0.056c0.337,0.327,1.059,0.384,1.138,0.27l0.826,0.723
							c0.034-0.106-0.105-0.227-0.195-0.355c0.364,0.519,0.233-0.196,0.567,0.279c-0.092,0.02-0.047,0.158-0.064,0.212
							c0.311-0.014,0.833,0.276,1.184,0.553L9.73-9.035c0.721,0.348,1.423,0.901,2.206,1.338c-0.326-0.079-0.429,0.248-0.217,0.406
							l0.241-0.207c0.056,0.243-0.295-0.037-0.105,0.33c0.308,0.136,0.366-0.185,0.247-0.363l0.303,0.29
							c0.065-0.066,0.006-0.154,0.042-0.266c0.052,0.244,0.764,0.082,0.811,0.482l0.065-0.067c0.783,0.436,1.083,0.727,1.711,1.098
							c-0.12,0.237,0.158,0.326,0.239,0.62c0.508,0.192,1.131,0.303,1.682,0.641c0.328,0.341,0.001,0.264,0.099,0.504
							c0.152-0.196,0.701,0.143,0.499-0.177c0.654,0.418,0.836,0.531,1.587,1.191c-0.144,0.036-0.27,0.016-0.258,0.119
							c0.134,0.125,0.403,0.11,0.441-0.006l-0.028-0.046c0.385,0.436,1.026,0.593,1.637,0.751c0.795,0.267,2.102,0.852,2.396,1.324
							l-0.04-0.054c0,0,0.24,0.218,0.48,0.435c0.205,0.198,0.411,0.395,0.411,0.395c0.673,0.338-0.022-0.231,0.714,0.014
							c0.048,0.058,0.097,0.112,0.147,0.164l0.078,0.076c0.002,0.025,0.11,0.049,0.014,0.073c-0.221,0.095-0.408,0.184-0.575,0.269
							c-0.332,0.17-0.583,0.329-0.829,0.489c-0.479,0.315-0.974,0.658-1.692,0.908c-0.059,0.251-0.344,0.52-0.729,0.785
							c-0.07,0.048-0.142,0.097-0.216,0.147l-0.175,0.105c-0.121,0.068-0.25,0.131-0.382,0.194c-0.527,0.25-1.095,0.485-1.34,0.904
							l-0.047-0.179c-0.275-0.042-0.177,0.22-0.296,0.336c-0.05-0.131,0.125-0.257-0.041-0.272
							c-1.706,0.737-3.172,2.128-4.735,3.208c-0.577,0.385-0.798-0.598-1.344,0.202l0.378,0.161
							c-1.409,0.354-2.474,1.429-3.828,1.819C9.39,9.132,9.44,9.214,9.555,9.147C9.422,9.495,8.632,9.686,8.533,9.522
							C8.358,9.647,8.576,9.697,8.511,9.846c-0.183,0.263-0.782,0.101-0.8,0.378C7.707,10.27,7.82,10.25,7.875,10.239
							c-0.221-0.004-0.751,0.459-0.728,0.138c-0.382,0.364-0.913,0.382-1.19,0.721c-0.38-0.125-0.693,0.557-0.976,0.236
							c0.248,0.356-0.61,0.745-0.993,0.73c0.159,0.059-0.179,0.255,0.021,0.348c-0.326,0.176-0.662,0.274-0.714,0.053
							c-0.085,0.194-0.215,0.312-0.362,0.39l-0.325,0.146c-0.127,0.048-0.253,0.097-0.375,0.143
							c-0.487,0.179-0.816,0.292-1.165,0.859c-0.404,0.168-0.8,0.332-1.188,0.494l-0.533,0.224l-0.128,0.055
							c-0.03-0.004-0.116,0.089-0.088-0.012l0.027-0.367c0.059-0.881,0.116-1.734,0.172-2.573c-0.2,0.134-0.208,0.598-0.219,1.047
							c-0.01,0.449-0.023,0.891-0.232,1.13c0.078-0.966,0.201-1.707,0.293-2.343c0.046-0.32,0.084-0.616,0.104-0.92
							c0.02-0.303,0.027-0.434,0.005-0.691c-0.052-0.241-0.175,0.137-0.245,0.218C-0.79,9.34-0.977,8.421-0.755,7.646
							c-0.036-0.012-0.076,0.049-0.107,0.148c0.004-0.041,0.002-0.087,0.001-0.128c-0.002-0.014-0.004-0.028-0.001-0.04
							c0.006-0.024,0.033-0.046,0.122-0.058l-0.048,0.069c0.128,0.049,0.262-0.009,0.381-0.173c0.119-0.154,0.222-0.402,0.29-0.455
							C-0.624,7.459-0.245,6.53-0.883,7.306c0.04-0.064,0.11-0.184,0.219-0.283c-0.116,0.034-0.178,0.1-0.247,0.227
							C-1.02,7.163-0.847,6.982-1.118,6.988C-1.141,7.07-1.1,7.101-1.122,7.197c-0.03-0.158-0.121-0.315-0.632-0.252
							c0.027,0.05-0.025,0.113,0.109,0.113c-0.775-0.036-1.321-0.431-2.171-0.286c0.25,0.345-0.29,0.11-0.334,0.404l-0.457-0.094
							l0.184-0.14c-0.401,0-0.754-0.214-1.099-0.123l0.297,0.122l-0.75-0.063l0.425-0.104c-0.405-0.151,0.043-0.363-0.49-0.285
							c0.108,0.029-0.4,0.003-0.609,0.167l0.001,0C-6.846,6.566-7.05,6.473-7.346,6.541c-0.077,0.088,0.062,0.307,0.012,0.365
							c-0.195-0.233-0.938-0.075-1.185-0.317c0.082,0.057,0.086,0.199,0.06,0.227l-0.164-0.184
							c-0.186,0.057-0.213,0.084-0.183,0.197c-0.558,0.027,0.177-0.338-0.485-0.197c0.052,0.015,0.027,0.042,0.135,0.07
							c-0.665,0.068-1.285-0.123-1.896-0.042c-0.181,0.253,0.534,0.069,0.328,0.283c-0.881-0.064-1.825-0.324-2.678-0.274
							l0.159-0.025c-0.118-0.336-0.635,0.16-1.066-0.003c0.105,0.025,0.138,0.184,0.11,0.146c-0.584,0.043-1.194-0.098-2.079-0.202
							l0.11,0.08c-0.344,0.065-0.906,0.028-1.278,0.057c-0.11-0.077-0.323-0.067-0.194-0.173c-1.146,0.392-2.187-0.23-3.204,0.079
							c0.122,0.002,0.29,0.061,0.193,0.06l-0.866-0.073c0.068-0.104,0.114-0.062,0.295-0.143c-0.109-0.064-0.354-0.113-0.569-0.113
							c0.39,0.07-0.003,0.167-0.171,0.221c0.028-0.031-0.03-0.066-0.015-0.098c-0.461,0.175-0.065-0.203-0.73-0.086l0.006,0.051
							c-0.361,0.073-0.135-0.361-0.186-0.571c-0.105-0.08-0.047,0.289-0.131,0.371c-0.002-0.489,0.193-0.815,0.091-1.126
							c-0.029,0.149-0.032,0.363-0.062,0.512c-0.121-0.345-0.086-0.385-0.102-0.642l0.002,0.025l-0.042-0.593l0.028,0.151
							c0.259-0.438,0.061-0.893,0.219-1.483c-0.146,0.574-0.084,0.095-0.184,0.139c-0.025-0.151-0.05-0.38-0.079-0.315
							c0.083-0.279-0.046-0.466,0.072-0.86c-0.028-0.018,0.004-0.298-0.068-0.235c0.032-0.363,0.046,0.086,0.083,0.055
							c0.099-0.559-0.074-1.314,0.058-2.119c0.057-0.694,0.123-0.822,0.151-1.465c-0.026-0.218-0.064,0.178-0.064,0.178
							c-0.022-0.351-0.011-0.614,0.009-0.944c-0.014,0.066-0.024-0.002-0.038-0.104c0.01-0.265,0.053-0.177,0.038-0.526
							c-0.015,0.06-0.039,0.137-0.057,0.265c0.021-0.304,0.042-0.631,0.063-0.944c-0.016-0.086-0.03,0.195-0.046,0.31
							c0.019-0.363,0.041-0.941,0.062-1.054l0.005,0.232c0.002-0.132-0.018-0.067-0.024,0.03c-0.026,0.312,0,0.449,0.01,0.467
							l0.009-0.23c0.056,0.236-0.014,0.925-0.022,1.389l0.06-0.193l-0.052,0.476c0.016,0.101,0.054,0.17,0.062-0.059
							c0.035,0.332-0.023,0.294,0.017,0.579c0.006,0.031,0.01,0.018,0.012-0.012l-0.02,0.324c0.016-0.063,0.054,0.055,0.041-0.145
							c0.056,0.582-0.052,0.939,0.016,1.159l0.005-0.049c-0.022,0.809-0.064,0.079-0.148,0.685l0.186,0.408l-0.076,0.08
							c0.003,0.083,0.01,0.248,0.042,0.218c-0.052,0.311-0.035-0.053-0.085,0.127c0.078,0.401-0.037,1.107,0.108,1.197
							c-0.069,0.144-0.056-0.384-0.103,0.045c0.161,0.122-0.026,0.496,0.051,0.862c0.088-0.113,0.036-0.46,0.119-0.093
							c-0.147,0.221,0.043,0.714,0.021,1.024c-0.128,0.015-0.045,0.673-0.085,1.192c0.022-0.026,0.046,0.25,0.068,0.514
							c0.009,0.101,0.02,0.211,0.03,0.317l0.008,0.07c0.013,0.012,0.051-0.002,0.073-0.002c0.05-0.008,0.097-0.015,0.138-0.021
							l0.004-0.026c-0.012,0.079,0.073,0.111,0.225,0.126c0.184,0.009,0.395,0.02,0.579,0.029c-0.015-0.1-0.08-0.138-0.276-0.178
							l0.341-0.005c0.081,0.051,0.187,0.079,0.408,0.095l-0.085-0.125c0.454-0.004,0.914,0.139,1.498,0.041
							c0.033,0.129-0.464,0.353,0.153,0.44c0.023-0.069,0.046-0.188-0.116-0.216c0.053,0.009,0.189,0.057,0.295,0.027l-0.247-0.115
							c0.266-0.054,0.139,0.096,0.352,0.084c-0.004-0.1,0.157-0.073,0.127-0.152c-0.054-0.009-0.186,0.043-0.267,0.005
							c0.24-0.02,0.53-0.084,0.625-0.164c-0.021,0.059,0,0.138,0.176,0.149c0.454,0.002,0.155-0.127,0.42-0.186
							c0.11,0.071,0.399-0.011,0.407,0.149c0.133-0.002,0.157-0.078,0.208-0.123c0.235,0.067,1.097,0.003,0.833,0.185l-0.06,0.012
							c0.012,0.002,0.024,0.004,0.038,0.007h-0.002h0.002c0.77,0.164,1.6-0.11,2.364-0.044l-0.001-0.061
							c0.456,0.065,1.015,0.031,1.341,0.165c0.135,0,0.318-0.118,0.261-0.194c0.349,0.044,0.388,0.118,0.891,0.006
							c-0.351-0.11,0.121-0.103-0.359-0.079c0.453-0.061,0.556-0.17,1.042,0.005c-0.166-0.167,0.341-0.221,0.556-0.172l-0.317,0.127
							c0.242,0.022,0.454,0.005,0.669-0.013l-0.116-0.228c0.927-0.305,1.672,0.464,2.377-0.033c0.245,0.167-0.503,0.126-0.284,0.321
							c0.426-0.035,0.871-0.394,1.004-0.397c0.584-0.148,0.545,0.354,1.156,0.253C-6.28,5.869-6.354,6.109-5.897,6.193
							c0.427-0.035,0.524-0.387,0.255-0.457C-5.744,5.73-5.793,5.759-5.789,5.79c-0.138-0.032-0.319-0.068-0.15-0.168l0.056,0.09
							c0.211-0.096,0.798-0.094,0.661-0.243c0.322,0.083,0.138,0.149-0.101,0.2c0.547-0.141,0.855-0.015,1.418-0.113
							c-0.089,0.053-0.172,0.164-0.083,0.163c0.826-0.127,0.364,0.175,0.924,0.213c0.318-0.149-0.114-0.348,0.449-0.23
							c0.344-0.104,0.073-0.258-0.063-0.333c0.513,0.179,0.959-0.137,1.252-0.179l-0.271-0.074c0.183,0.045,0.248,0.038,0.476,0.04
							C-1.259,5.152-1.435,5.35-1.422,5.351c0.059-0.02,0.182-0.026,0.284-0.039c0.093-0.013,0.154-0.033,0.158-0.073
							c0.25,0.132-0.229,0.322,0.217,0.504c0.36-0.094,0.847,0.115,1.154-0.136c-1.106,0.07,0.32-0.252-0.622-0.31
							c0.179,0.034,0.404,0.037,0.711,0.008c0.064-0.027,0-0.053-0.069-0.069c0.332-0.051,0.53-0.058,0.64-0.04
							C1.105,5.206,1.14,5.221,1.162,5.24c0.011,0.01,0.019,0.021,0.025,0.032L1.151,5.358c-0.101,0.233-0.23,0.474-0.22,0.998
							c0.147-0.235,0.289,0.105,0.26,0.321C1.18,6.196,0.938,6.598,0.826,6.999c0.063,0.31,0.043,0.502,0.01,0.638
							c-0.034,0.109-0.082,0.16-0.074,0.275L0.704,7.656C0.551,7.748,0.573,7.956,0.526,8.252c0.12,0.025,0.081-0.268,0.135-0.163
							c-0.27,0.328,0.287,0.74,0.107,1.197c0.108,0.211,0.294,0.021,0.368,0.206c-0.198,0.512,0.223,0.555,0.061,1.093
							c-0.107-0.077-0.148-0.123-0.188-0.102c-0.02,0.011-0.039,0.038-0.066,0.086c-0.027,0.038-0.063,0.053-0.115,0.109
							c0.003,0.136,0.143-0.782,0.143-0.782l-0.304,0.568c-0.004-0.267,0.129-0.563,0.092-0.723
							c-0.17,0.271-0.118,0.243-0.294,0.115c0.32,0.35-0.181,0.783,0.033,1.023l0.527-0.157c0.117,0.065,0.049,0.143-0.031,0.333
							c-0.081,0.173-0.174,0.469-0.108,0.551c0,0.005-0.091,0.023-0.091,0.018c-0.105,0.179-0.112,0.269-0.104,0.338
							c-0.026,0.132,0.132-0.06,0.146,0.001c0.134-0.288,0.253-0.433,0.355-0.625c-0.078,0.202,0.162-0.112,0.111,0.34
							c0.015-0.008,0.201-0.397,0.186-0.389c0.188-0.227,0.388,0.38,0.978-0.035c-0.268-0.078-0.082-0.338-0.524-0.247
							c0.184-0.109,0.332-0.236,0.399-0.126c0.049-0.165,0.637-0.082,0.718-0.334c0.119,0.025,0.242,0.18,0.442,0.047
							c0.003-0.046-0.047-0.08-0.047-0.08c0.047,0.08,0.388-0.079,0.31,0.206c0.276-0.839,1.614-0.885,1.855-1.613
							C6.056,8.929,6.572,8.701,6.945,8.5C6.894,8.464,6.896,8.418,6.837,8.476c0.416-0.448,0.586,0.298,1.062-0.208
							c0.138-0.44-0.39,0.031-0.265-0.177C7.396,7.494,8.371,7.763,8.572,7.216L8.46,7.239c0.187-0.36,0.842-0.21,1.302-0.53
							c0,0-0.052-0.035-0.051-0.082c0.494,0.091,1.174-0.177,1.685-0.366c-0.271-0.135-0.278,0.007-0.317-0.267
							c0.227-0.089,0.144,0.392,0.596,0.213c0.066-0.198,0.307-0.476,0.21-0.736l-0.4,0.214c0.024-0.423,0.514-0.284,0.69-0.457
							L12.07,5.11c0.627-0.305,0.831,0.029,1.463-0.369l-0.008,0.141c0.547,0.132,0.188-0.36,0.684-0.314l-0.09-0.402
							c0.281-0.053,1.007-0.142,1.463-0.319c-0.383-0.117-0.947,0.037-1.337,0.061c0.23-0.136,0.8-0.429,1.018-0.33
							c-0.112,0.021-0.278,0.005-0.339,0.111c0.438,0.104,0.888,0.021,1.346-0.25c-0.464-0.615,1.105-0.859,1.143-1.567
							c0.946-0.218,1.583-1.05,2.507-1.528c0.02,0.331,0.086,0.298,0.162,0.261c0.051-0.021,0.122-0.052,0.31,0.191
							c0.174-0.055,0.229-0.098,0.206-0.13c0,0,0.034-0.124,0.026-0.223c-0.003-0.102-0.049-0.179-0.049-0.179
							c-0.168-0.105-0.248-0.012-0.395-0.085c0.062-0.085-0.268-0.14-0.482-0.199c0.306,0.073,0.496,0.073,0.403,0.034
							c0.02-0.011,0.387,0.095,0.367,0.106c0.37-0.025,0.239-0.095,0.024-0.116c-0.101-0.009-0.197-0.018-0.307-0.028
							c-0.07-0.008-0.064-0.013,0.033-0.045c0.007,0.004-0.286,0.048-0.293,0.044c0.082-0.014,0.044-0.031,0.058-0.072
							c0.011-0.042,0.054-0.12,0.168-0.331c-0.081,0.034-0.209,0.15-0.209,0.199c0.053,0.079-0.537-0.417-0.891-0.737
							c-0.392-0.344-0.773-0.648-1.171-0.711l-0.01,0.163c-0.134-0.128-0.135-0.395-0.402-0.382c-0.02,0.058-0.01,0.162-0.086,0.127
							c-0.057-0.092-0.287-0.461-0.535-0.508l0.095,0.243c-0.907-0.313-1.051-1.072-1.685-1.554C15.05-3.224,14.342-3.48,13.99-3.61
							l-0.018,0.058c-0.97-0.515-1.434-1.244-2.231-1.896c-0.764,0.062-1.934-0.924-2.926-1.231C8.983-6.664,8.946-6.96,8.811-7.086
							C8.566-7.138,8.38-7.655,8.233-7.325L8.31-7.288c-0.33,0.214-0.703-0.118-1.036-0.305l0.177-0.434
							c-1.193,0.069-2.133-1.539-2.894-1.31c-0.151-0.22-0.408-0.372-0.559-0.589L3.892-9.714c-0.603-0.291-0.903-0.438-1.583-0.91
							l0.062,0.229c-0.405-0.229-0.175-0.874-0.539-1.102l-0.279,0.225l-0.121-0.069l-0.044-0.017
							c-0.029-0.01-0.059-0.017-0.085-0.02c-0.054-0.008-0.098-0.004-0.134-0.007c-0.037-0.003-0.067-0.013-0.116-0.06
							c-0.044-0.039-0.143-0.177-0.194-0.191c0.045,0.068,0.134,0.208,0.146,0.204c0.009,0.15,0.211,0.418-0.211,0.138
							c0.137,0.097,0.145,0.142,0.102,0.208c-0.04-0.019-0.141,0.415-0.203,0.609l0.202-0.068c-0.264,0.37-0.332,0.382-0.408,0.898
							c0.024,0.123,0.156,0.107,0.108-0.056c0.097,0.408-0.189,0.318-0.09,0.814L0.63-9.072c0.009,0.42-0.057,0.387-0.202,0.618
							C0.35-8.19,0.469-7.657,0.636-7.595c-0.104,0.055-0.243,0.264-0.2,0.624c0.062,0.062,0.102-0.054,0.123-0.117
							c0.04,0.51,0.021,0.933-0.087,1.15c-0.376-0.034-0.65-0.067-0.953,0.021c0.005,0.057-0.031,0.086-0.087,0.104
							c0.416-0.013,0.791-0.023,1.055-0.032c0.179,0.045,0.09-0.15,0.111-0.196C0.595-6.109,0.592-6.142,0.589-6.129
							c0.082,0.06,0.126,0.273,0.179,0.438C0.741-5.662,0.729-5.635,0.778-5.601c0.024,0.017,0.064,0.035,0.126,0.055
							c0.059,0.017,0.06-0.044,0.098-0.097C1.051-5.416,0.7-5.564,0.493-5.568C0.268-5.6,0.028-5.633-0.209-5.666
							c-0.454-0.059-0.89-0.093-1.052-0.065c-0.021,0.015-0.042,0.03-0.058,0.054l0.045,0.02C-1.375-5.646-1.466-5.662-1.551-5.69
							c-0.141,0.023-0.229,0.04-0.364,0.039c-0.052,0.128-0.517,0.057-0.741,0.058c0.019-0.167-0.276-0.146,0-0.277
							c-0.036,0.012,0.042,0.021,0.191,0.03c0.034,0.005,0.073,0.009,0.096,0.019l-0.016-0.015c0.148,0.005,0.341,0.013,0.559,0.021
							c-0.178-0.09-0.363-0.164-0.612-0.074C-2.553-6-2.68-6.111-2.751-6.163c-0.307,0.229-0.9,0.34-0.982,0.475
							c-0.687-0.104-1.617-0.1-2.047-0.383c-0.195-0.037-0.225,0.076-0.297,0.117c0.112,0.03,0.247,0.028,0.307,0.069
							c-0.39-0.078-1.155-0.05-1.249-0.234c-0.492,0.076,0.277,0.173-0.399,0.132l0.091,0.057c-1.329,0.232-2.161-0.455-3.634-0.15
							c0.102-0.017,0.152-0.024,0.174-0.049c-1.68,0.086-3.461-0.142-5.119-0.023c-0.47,0.015-0.522-0.044-0.81-0.089l-0.102,0.066
							L-17.31-6.26c-0.697-0.049-1.207,0.109-2.09,0.008l0.114-0.026c-0.316-0.001-1.003-0.028-0.951-0.003
							c-0.032-0.005-0.104-0.023-0.228-0.015l-0.01,0.015l-0.778-0.035c-0.604-0.005,0.094,0.044-0.787,0.012
							c-0.258-0.011-0.684-0.028-0.809-0.034c0.099,0.001,0.229,0.002,0.348,0.003L-22.8-6.339
							c-0.054-0.005-0.285,0.015,0.451-0.025l0.511-0.013l0.166-0.018l-0.432,0.02c0.245-0.02,0.4-0.021,0.573-0.021
							c0.041-0.008,0.113-0.017,0.215-0.024l0.503,0.012c0.061-0.019-0.226-0.019,0.112-0.044c0.236,0.009-0.226,0.044,0.164,0.043
							c0.246-0.026,0.174-0.044,0.461-0.035c0.04-0.015-0.021-0.021-0.135-0.021c0.256,0.005,0.678-0.022,0.81,0.006
							c0.256-0.046,0.865-0.018,0.84-0.088c0.08,0.014,0.451,0.042,0.686,0.039c-0.429-0.083,0.88-0.035,0.767-0.149
							c0.318,0.087,1.148-0.003,1.711,0.045c-0.031-0.009-0.093-0.027-0.143-0.02c0.317-0.021,0.409-0.063,0.613-0.097
							c0.041,0.107,0.534,0.118,0.8,0.187c0.388-0.127-0.236-0.134-0.114-0.246c-0.02,0.095,0.675,0.071,0.543,0.16
							c0.297-0.083,0.256-0.043,0.409-0.154c0.053,0.16,0.276,0.017,0.523,0.112c0.431-0.096,0.111-0.164,0.583-0.128
							C-11.958-6.861-12.378-6.906-12.378-6.906z M-1.143-6.806V-6.81c-0.097-0.002-0.18-0.005-0.232-0.006
							C-1.328-6.813-1.26-6.811-1.143-6.806z M-0.57-6.8c-0.056,0.006-0.135,0.007-0.218,0.004c0.004,0.061,0.048,0.123,0.112,0.12
							C-0.728-6.716-0.603-6.75-0.57-6.8z M-2.197-5.615c0.15,0.028,0.2-0.004,0.22-0.038C-2.046-5.66-2.128-5.669-2.238-5.68
							l-0.017-0.021C-2.241-5.668-2.225-5.638-2.197-5.615z"/>
						<path fill="#D2865D" d="M-2.465-5.841c-0.022-0.004-0.034-0.012-0.062-0.014c0.032-0.013,0.062-0.024,0.089-0.036l0.053,0.054
							L-2.465-5.841z"/>
						<path fill="#D2865D" d="M-16.762,6.103l0.02-0.004c-0.017,0.007-0.032,0.013-0.042,0.023
							C-16.771,6.114-16.771,6.109-16.762,6.103z"/>
						<polygon fill="#D2865D" points="5.779,-11.099 5.748,-11.048 5.702,-11.133 						"/>
						<path fill="#D2865D" d="M-21.962,6.581c-0.01,0.01-0.03,0.021-0.068,0.03C-22.027,6.603-21.998,6.592-21.962,6.581z"/>
						<path fill="#D2865D" d="M-23.092,4.991l-0.032-0.318C-23.106,4.811-23.097,4.91-23.092,4.991z"/>
						<path fill="#D2865D" d="M-23.109,3.264c0.017-0.022,0.029-0.028,0.041-0.034l0.001,0.003L-23.109,3.264z"/>
						<path fill="#D2865D" d="M-0.862,7.793C-0.864,7.816-0.867,7.839-0.874,7.86C-0.923,8.016-0.903,7.91-0.862,7.793z"/>
						<path fill="#D2865D" d="M-6.648,6.657c0.087,0.039,0.172,0.077,0.263,0.103C-6.531,6.775-6.644,6.778-6.648,6.657z"/>
						<polygon fill="#D2865D" points="4.012,12.416 4.009,12.412 4.058,12.384 						"/>
						<path fill="#D2865D" d="M-6.005,6.759c-0.146,0.041-0.267,0.031-0.38,0C-6.266,6.747-6.125,6.726-6.005,6.759z"/>
						<path fill="#D2865D" d="M-22.936-4.222l0.002-0.083c0.001,0.001,0.003-0.004,0.004-0.01L-22.936-4.222z"/>
						<path fill="#D2865D" d="M-22.929-4.314l0.005-0.093C-22.926-4.369-22.928-4.345-22.929-4.314z"/>
						<path fill="#D2865D" d="M-22.913-4.602l-0.011,0.194C-22.922-4.475-22.919-4.558-22.913-4.602z"/>
						<path fill="#D2865D" d="M-22.986-1.936l-0.018,0.026C-23-1.924-22.994-1.933-22.986-1.936z"/>
						<path fill="#D2865D" d="M-23.009-1.24c0-0.166-0.028-0.416-0.009-0.647l0.014-0.021C-23.035-1.801-22.974-1.398-23.009-1.24z"
							/>
						<path fill="#D2865D" d="M-22.722,1.659l-0.03-0.582c0.03,0.102,0.073,0.235,0.074-0.029
							C-22.574,1.782-22.746,0.896-22.722,1.659z"/>
						<path fill="#D2865D" d="M-22.643,3.464c0.011-0.313,0.053,0.003,0.074-0.013C-22.598,3.65-22.606,3.698-22.643,3.464z"/>
						<path fill="#D2865D" d="M-12.689,5.923l-0.031-0.166C-12.479,5.777-12.718,5.822-12.689,5.923z"/>
						<polygon fill="#D2865D" points="-10.196,6.811 -10.43,6.918 -10.542,6.755 						"/>
						<polygon fill="#D2865D" points="-8.722,5.517 -8.828,5.493 -8.425,5.552 						"/>
						<path fill="#D2865D" d="M5.036,9.109l0.089,0.299C4.957,9.444,4.757,9.167,5.036,9.109z"/>
						<path fill="#D2865D" d="M13.372,4.631c0.011-0.188,0.19-0.408,0.409-0.357C13.608,4.399,13.486,4.611,13.372,4.631z"/>
						<polygon fill="#D2865D" points="6.869,-7.967 6.986,-7.789 6.717,-8.039 						"/>
					</g>
				</g>
			</g>
		</g>
	</g>
</symbol>
<use xlink:href="#Arrow_26"  width="48.32" height="29.052" id="XMLID_1_" x="-23.148" y="-14.24" transform="matrix(8.0637 0 0 -8.0637 195.6099 125.5068)" overflow="visible"/>
<g>
</g>
<g>
</g>
<g>
</g>
<g>
</g>
<g>
</g>
<g>
</g>
<g>
</g>
<g>
</g>
<g>
</g>
<g>
</g>
<g>
</g>
<g>
</g>
<g>
</g>
<g>
</g>
<g>
</g>
<g>
</g>
<g>
</g>
<g>
</g>
</svg>
