<?xml version="1.0" encoding="utf-8"?>
<!-- Generator: Adobe Illustrator 16.1.0, SVG Export Plug-In . SVG Version: 6.00 Build 0)  -->
<!DOCTYPE svg PUBLIC "-//W3C//DTD SVG 1.1//EN" "http://www.w3.org/Graphics/SVG/1.1/DTD/svg11.dtd">
<svg version="1.1" id="Isolation_Mode" xmlns="http://www.w3.org/2000/svg" xmlns:xlink="http://www.w3.org/1999/xlink" x="0px"
	 y="0px" width="494px" height="492px" viewBox="0 0 494 492" enable-background="new 0 0 494 492" xml:space="preserve">
<path opacity="0.1" fill="#492702" d="M487.877,244.436c0,10.056-7.32,17.6-13.201,23.662c-2.393,2.471-6.402,6.605-6.846,8.319
	c0.018,1.946,2.615,6.889,4.334,10.162c3.17,6.024,6.758,12.85,6.764,20.146c0,2.028-0.281,4.008-0.834,5.881
	c-2.816,9.59-11.561,14.524-19.273,18.881c-3.023,1.707-8.076,4.56-8.996,6.103v0.003c0,0.036-0.113,0.479-0.113,1.461
	c0,2.491,0.703,6.02,1.387,9.434c0.889,4.441,1.807,9.033,1.807,13.656c0,5.151-1.146,9.434-3.5,13.082
	c-5.393,8.357-15.137,10.621-23.734,12.618c-3.414,0.792-9.127,2.122-10.428,3.361c-0.98,1.386-1.492,7.245-1.795,10.75
	c-0.766,8.782-1.633,18.739-9.135,25.25c-7.488,6.495-17.457,5.948-26.254,5.465c-3.52-0.192-9.41-0.515-11.01,0.324
	c-1.318,1.059-3.436,6.509-4.701,9.765c-3.205,8.24-6.832,17.582-15.895,21.739c-8.988,4.118-18.379,0.793-26.66-2.144
	c-3.352-1.187-8.953-3.17-10.732-2.795c-1.547,0.646-5.084,5.229-7.203,7.969c-5.154,6.674-11.568,14.98-21.5,16.402
	c-9.723,1.393-17.75-4.427-24.832-9.564c-2.908-2.107-7.777-5.641-9.608-5.764c-1.78,0.125-6.647,3.652-9.558,5.764
	c-7.085,5.138-15.112,10.957-24.834,9.564c-9.928-1.422-16.346-9.726-21.501-16.402c-2.114-2.739-5.657-7.322-7.299-8.002
	c-1.684-0.34-7.288,1.643-10.635,2.83c-8.287,2.936-17.674,6.26-26.661,2.143c-9.064-4.157-12.696-13.499-15.898-21.739
	c-1.265-3.255-3.382-8.706-4.787-9.817c-1.517-0.785-7.409-0.463-10.926-0.271c-8.795,0.482-18.762,1.027-26.252-5.473
	c-7.501-6.506-8.368-16.463-9.132-25.246c-0.302-3.504-0.813-9.363-1.862-10.827c-1.233-1.162-6.95-2.491-10.365-3.283
	c-8.6-2.001-18.342-4.264-23.737-12.625c-2.349-3.649-3.493-7.924-3.493-13.073c0-4.623,0.917-9.218,1.806-13.658
	c0.682-3.416,1.389-6.947,1.389-9.439c0-1.115-0.149-1.534-0.149-1.542c-0.86-1.446-5.931-4.308-8.962-6.019
	c-7.71-4.354-16.456-9.285-19.277-18.879c-0.55-1.873-0.828-3.85-0.828-5.879c0-7.293,3.589-14.123,6.758-20.146
	c1.72-3.268,4.321-8.211,4.321-10.237c-0.426-1.638-4.434-5.772-6.829-8.243c-5.881-6.062-13.201-13.605-13.201-23.662
	s7.32-17.599,13.201-23.663c2.395-2.469,6.403-6.604,6.848-8.317c-0.019-1.951-2.619-6.894-4.339-10.166
	c-3.169-6.021-6.758-12.849-6.758-20.144c0-2.028,0.278-4.006,0.828-5.873c2.821-9.6,11.566-14.535,19.281-18.888
	c3.021-1.709,8.073-4.559,8.994-6.102v-0.003c0-0.036,0.113-0.483,0.113-1.461c0-2.491-0.704-6.021-1.385-9.434
	c-0.889-4.441-1.806-9.033-1.806-13.656c0-5.152,1.145-9.435,3.5-13.082c5.391-8.358,15.134-10.623,23.733-12.619
	c3.415-0.793,9.128-2.122,10.429-3.361c0.981-1.386,1.492-7.246,1.794-10.749c0.764-8.784,1.631-18.74,9.132-25.249
	c7.491-6.497,17.458-5.95,26.256-5.466c3.518,0.191,9.409,0.515,11.008-0.323c1.319-1.061,3.437-6.51,4.701-9.765
	c3.206-8.24,6.833-17.582,15.898-21.74c8.986-4.117,18.378-0.792,26.661,2.144c3.348,1.188,8.952,3.171,10.732,2.797
	c1.545-0.646,5.084-5.23,7.203-7.971c5.152-6.673,11.569-14.98,21.498-16.401c9.722-1.395,17.749,4.428,24.834,9.564
	c2.911,2.11,7.777,5.641,9.608,5.765c1.781-0.124,6.648-3.653,9.558-5.765c7.086-5.138,15.111-10.959,24.836-9.564
	c9.928,1.421,16.344,9.726,21.5,16.401c2.115,2.739,5.656,7.323,7.299,8.002c1.684,0.343,7.289-1.642,10.635-2.828
	c8.287-2.936,17.676-6.261,26.66-2.144c9.066,4.158,12.697,13.5,15.898,21.74c1.266,3.255,3.383,8.704,4.787,9.816
	c1.518,0.785,7.408,0.462,10.926,0.271c8.795-0.484,18.762-1.026,26.252,5.471c7.502,6.508,8.369,16.464,9.133,25.248
	c0.303,3.504,0.812,9.363,1.861,10.826c1.234,1.162,6.951,2.491,10.365,3.284c8.6,2,18.344,4.264,23.732,12.621
	c2.354,3.648,3.498,7.924,3.498,13.072c0,4.627-0.916,9.221-1.809,13.666c-0.682,3.416-1.389,6.942-1.389,9.436
	c0,1.115,0.15,1.533,0.15,1.541c0.859,1.445,5.93,4.308,8.959,6.02c7.713,4.354,16.457,9.285,19.279,18.879
	c0.551,1.873,0.828,3.851,0.828,5.879c0.004,7.295-3.59,14.123-6.758,20.146c-1.721,3.273-4.322,8.216-4.322,10.238
	c0.426,1.638,4.436,5.771,6.828,8.242C480.557,226.837,487.877,234.38,487.877,244.436z M446.016,276.341
	c0-1.044,0.07-2.078,0.217-3.095c1.205-8.418,7.352-14.756,12.775-20.346c2.404-2.479,6.375-6.573,7-8.464
	c-0.625-1.891-4.596-5.984-7-8.464c-5.424-5.59-11.57-11.928-12.775-20.346c-0.146-1.017-0.217-2.048-0.217-3.095
	c0-7.418,3.629-14.314,6.83-20.401c1.619-3.081,4.033-7.664,4.234-9.722c-1.219-1.625-6.047-4.346-8.99-6.01
	c-6.811-3.841-14.529-8.197-18.092-15.972c-1.426-3.11-2.119-6.577-2.119-10.601c0-4.647,0.922-9.256,1.812-13.713
	c0.68-3.402,1.383-6.922,1.383-9.387c0-0.604-0.043-1-0.082-1.229c-1.645-1.197-6.994-2.44-10.254-3.199
	c-7.648-1.774-16.314-3.791-21.947-10.283c-5.645-6.502-6.414-15.374-7.092-23.203c-0.293-3.344-0.77-8.83-1.727-10.6
	c-1.887-0.692-7.373-0.396-10.713-0.21c-7.852,0.431-16.754,0.918-23.998-3.752C348.055,69.605,344.84,61.327,342,54.021
	c-1.223-3.142-3.227-8.305-4.652-9.736c-2-0.117-7.137,1.702-10.264,2.812c-7.432,2.632-15.854,5.614-24.148,3.173
	c-8.178-2.401-13.584-9.401-18.357-15.578c-2.076-2.688-5.488-7.109-7.277-8.068c-1.938,0.469-6.305,3.632-8.961,5.561
	c-6.414,4.651-13.684,9.921-22.4,9.921c-8.716,0-15.986-5.27-22.4-9.921c-2.658-1.929-7.021-5.092-8.961-5.561
	c-1.787,0.959-5.198,5.38-7.277,8.065c-4.768,6.18-10.173,13.18-18.356,15.581c-8.29,2.441-16.711-0.541-24.142-3.173
	c-3.131-1.108-8.269-2.929-10.269-2.812c-1.425,1.437-3.429,6.596-4.651,9.736c-2.836,7.307-6.055,15.585-13.258,20.229
	c-7.245,4.673-16.146,4.183-24.003,3.749c-3.34-0.183-8.827-0.483-10.713,0.21c-0.956,1.77-1.432,7.256-1.724,10.6
	c-0.678,7.828-1.449,16.7-7.089,23.203c-5.636,6.492-14.298,8.506-21.945,10.279c-3.266,0.761-8.621,2.005-10.258,3.201
	c-0.036,0.231-0.082,0.627-0.082,1.238c0,2.461,0.704,5.979,1.382,9.379c0.888,4.457,1.809,9.062,1.809,13.709
	c0,4.026-0.693,7.494-2.121,10.607c-3.561,7.768-11.278,12.124-18.086,15.969c-2.943,1.659-7.772,4.385-8.994,6.014
	c0.213,2.07,2.619,6.645,4.236,9.718c3.202,6.087,6.829,12.987,6.829,20.403c0,1.045-0.07,2.078-0.216,3.096
	c-1.205,8.418-7.352,14.756-12.774,20.346c-2.406,2.479-6.375,6.573-7,8.464c0.625,1.891,4.594,5.985,7,8.463
	c5.423,5.59,11.57,11.928,12.774,20.346c0.146,1.018,0.216,2.048,0.216,3.096c0,7.417-3.627,14.316-6.829,20.402
	c-1.621,3.08-4.03,7.66-4.236,9.72c1.222,1.624,6.048,4.351,8.99,6.01c6.812,3.841,14.53,8.197,18.094,15.972
	c1.425,3.109,2.118,6.576,2.118,10.6c0,4.648-0.924,9.257-1.812,13.713c-0.679,3.404-1.382,6.922-1.382,9.385
	c0,0.608,0.042,1.002,0.082,1.229c1.638,1.197,6.993,2.445,10.259,3.201c7.646,1.777,16.31,3.793,21.941,10.285
	c5.643,6.502,6.414,15.375,7.093,23.202c0.292,3.345,0.768,8.831,1.724,10.601c1.887,0.691,7.374,0.395,10.713,0.209
	c7.853-0.43,16.755-0.918,24,3.752c7.206,4.645,10.422,12.924,13.261,20.229c1.223,3.141,3.227,8.305,4.652,9.736
	c2,0.117,7.138-1.702,10.265-2.811c7.43-2.633,15.852-5.615,24.149-3.174c8.176,2.403,13.584,9.403,18.356,15.579
	c2.076,2.688,5.49,7.11,7.277,8.07c1.94-0.47,6.303-3.632,8.961-5.562c6.414-4.652,13.685-9.921,22.4-9.921
	c8.718,0,15.987,5.273,22.399,9.925c2.658,1.926,7.023,5.088,8.959,5.558c1.787-0.959,5.203-5.38,7.281-8.07
	c4.77-6.176,10.176-13.176,18.357-15.579c8.287-2.441,16.711,0.541,24.141,3.174c3.131,1.108,8.268,2.928,10.268,2.811
	c1.428-1.436,3.432-6.596,4.652-9.736c2.836-7.306,6.055-15.585,13.258-20.229c7.244-4.672,16.146-4.182,24.004-3.75
	c3.34,0.183,8.826,0.484,10.713-0.209c0.955-1.77,1.434-7.256,1.725-10.6c0.678-7.828,1.449-16.701,7.09-23.203
	c5.635-6.492,14.299-8.507,21.945-10.279c3.266-0.76,8.617-2.004,10.258-3.201c0.035-0.23,0.082-0.625,0.082-1.236
	c0-2.463-0.703-5.98-1.383-9.381c-0.889-4.456-1.811-9.061-1.811-13.708c0-4.026,0.693-7.495,2.121-10.608
	c3.562-7.768,11.279-12.123,18.088-15.969c2.941-1.662,7.771-4.389,8.99-6.012c-0.211-2.071-2.615-6.646-4.232-9.721
	C449.645,290.654,446.016,283.757,446.016,276.341z"/>
<path opacity="0.1" fill="#492702" d="M435.326,244.436c0,104.429-84.957,189.386-189.387,189.386
	c-104.43,0-189.387-84.957-189.387-189.386S141.509,55.049,245.939,55.049C350.369,55.049,435.326,140.006,435.326,244.436z
	 M63.83,244.436c0,100.416,81.696,182.11,182.11,182.11s182.111-81.694,182.111-182.11c0-100.415-81.697-182.108-182.111-182.108
	C145.525,62.327,63.83,144.021,63.83,244.436z"/>
<path opacity="0.1" fill="#492702" d="M164.063,321.751l-4.424,12.849l-43.184,5.73l-11.375-8.709l8.709-11.374l4.84-40.498
	l-6.929-52.216l-10.429-20.073l48.798-6.479l7.629,11.248l10.131,76.321L164.063,321.751z M148.792,214.432l-3.812-5.625
	l-31.124,4.137l5.479,10.511l7.601,57.237l-5.114,41.554l-5.227,6.829l2.275,1.738l34.147-4.531l2.21-6.426l3.297-32.117
	L148.792,214.432z M144.444,320.266l-9.036,1.199l-4.548-3.482l-1.202-9.043l3.49-4.543l9.032-1.201l4.552,3.481l1.201,9.036
	L144.444,320.266z M384.709,190.271l-11.246,7.623l-14.061,1.869l-19.482-0.479l-17.066,2.263l-8.303-0.94l4.682,4.487l1.893,14.259
	l-7.66,10.01l-6.232,0.828l2.547,3.746l1.492,11.25l-7.666,10.008l-6.227,0.828l2.545,3.75l1.066,8.037l-6.098,7.963l-18.41,7.551
	l-17.07,2.264l-12.533-2.014l-22.084,10.699l-26.512,3.518l-12.582-2.415l-9.637,1.278l0.935-8.301l-10.529-79.328l64.956-34.172
	l70.292-9.328l88.895,7.61L384.709,190.271z M301.646,172.684l-68.282,9.063l-57.322,30.095l9.864,74.303l1.002-0.131l12.583,2.424
	l24.706-3.279l22.433-11.153l14.59,2.149l15.062-2.004l14.533-6.013l2.611-3.411l-0.668-5.024l-2.543-3.753l-14.59-2.148
	l-6.824-5.224l27.512-0.591l3.887-1.533l3.479-4.553l-0.932-7.028l-3.547-3.614l-17.732-2.757l-6.826-5.228l31.523-1.117
	l3.891-1.537l3.48-4.549l-0.932-7.031l-2.545-3.748l-8.566-2.949l-16.598-1.887l-6.824-5.229l26.107-3.465l19.611,1.481
	l17.074-2.263l18.473,0.612l11.449-1.521l7.502-5.077l1.943-5.372L301.646,172.684z"/>
</svg>
