<?xml version="1.0" encoding="utf-8"?>
<!-- Generator: Adobe Illustrator 16.1.0, SVG Export Plug-In . SVG Version: 6.00 Build 0)  -->
<!DOCTYPE svg PUBLIC "-//W3C//DTD SVG 1.1//EN" "http://www.w3.org/Graphics/SVG/1.1/DTD/svg11.dtd">
<svg version="1.1" id="Isolation_Mode" xmlns="http://www.w3.org/2000/svg" xmlns:xlink="http://www.w3.org/1999/xlink" x="0px"
	 y="0px" width="494px" height="492px" viewBox="0 0 494 492" enable-background="new 0 0 494 492" xml:space="preserve">
<path d="M245.943,486.373c-10.056,0-17.6-7.32-23.662-13.201c-2.47-2.393-6.605-6.402-8.319-6.846
	c-1.947,0.018-6.889,2.615-10.162,4.334c-6.024,3.17-12.85,6.758-20.145,6.764c-2.029,0-4.008-0.281-5.881-0.834
	c-9.59-2.816-14.525-11.561-18.882-19.273c-1.706-3.023-4.559-8.076-6.102-8.996h-0.003c-0.036,0-0.479-0.113-1.461-0.113
	c-2.491,0-6.02,0.703-9.433,1.387c-4.442,0.887-9.033,1.805-13.656,1.805c-5.152,0-9.434-1.145-13.083-3.5
	c-8.357-5.391-10.621-15.135-12.618-23.734c-0.792-3.414-2.122-9.127-3.361-10.428c-1.386-0.98-7.245-1.492-10.75-1.795
	c-8.783-0.764-18.74-1.631-25.25-9.133c-6.495-7.49-5.948-17.457-5.465-26.254c0.192-3.52,0.515-9.41-0.324-11.01
	c-1.059-1.318-6.509-3.436-9.765-4.701c-8.24-3.205-17.582-6.832-21.739-15.896c-4.119-8.988-0.793-18.379,2.143-26.66
	c1.187-3.35,3.17-8.953,2.796-10.732c-0.647-1.546-5.23-5.084-7.97-7.203c-6.673-5.155-14.98-11.569-16.402-21.501
	c-1.393-9.721,4.427-17.749,9.565-24.831c2.107-2.909,5.64-7.777,5.764-9.608c-0.125-1.78-3.653-6.647-5.764-9.558
	c-5.138-7.085-10.958-15.112-9.565-24.834c1.422-9.928,9.726-16.346,16.402-21.501c2.74-2.114,7.323-5.657,8.002-7.299
	c0.341-1.684-1.642-7.288-2.829-10.635c-2.936-8.287-6.261-17.674-2.143-26.661c4.157-9.064,13.499-12.696,21.739-15.898
	c3.255-1.265,8.706-3.382,9.818-4.787c0.785-1.517,0.462-7.409,0.271-10.926c-0.483-8.795-1.027-18.762,5.472-26.252
	c6.506-7.501,16.463-8.368,25.247-9.132c3.504-0.302,9.363-0.813,10.827-1.862c1.162-1.233,2.491-6.95,3.283-10.365
	c2.001-8.6,4.264-18.342,12.625-23.737c3.649-2.349,7.924-3.493,13.073-3.493c4.623,0,9.218,0.917,13.659,1.806
	c3.416,0.682,6.947,1.389,9.439,1.389c1.115,0,1.534-0.149,1.542-0.149c1.446-0.86,4.307-5.931,6.019-8.962
	c4.354-7.71,9.285-16.456,18.879-19.277c1.873-0.55,3.849-0.828,5.878-0.828c7.294,0,14.124,3.589,20.147,6.758
	c3.268,1.72,8.211,4.321,10.237,4.321c1.638-0.426,5.773-4.434,8.243-6.829c6.062-5.881,13.606-13.201,23.662-13.201
	s17.599,7.32,23.662,13.201c2.47,2.395,6.604,6.403,8.318,6.848c1.951-0.019,6.894-2.619,10.166-4.339
	c6.021-3.169,12.849-6.758,20.143-6.758c2.029,0,4.006,0.278,5.874,0.828c9.599,2.821,14.534,11.566,18.887,19.281
	c1.709,3.021,4.559,8.073,6.102,8.994h0.003c0.036,0,0.483,0.113,1.461,0.113c2.491,0,6.02-0.704,9.434-1.385
	c4.441-0.889,9.033-1.806,13.655-1.806c5.153,0,9.435,1.145,13.083,3.5c8.358,5.391,10.622,15.134,12.619,23.733
	c0.792,3.415,2.122,9.128,3.361,10.429c1.386,0.981,7.246,1.492,10.749,1.794c8.784,0.764,18.74,1.631,25.249,9.132
	c6.497,7.491,5.95,17.458,5.466,26.256c-0.191,3.518-0.515,9.409,0.323,11.008c1.061,1.319,6.51,3.437,9.765,4.701
	c8.24,3.206,17.582,6.833,21.74,15.898c4.117,8.986,0.792,18.378-2.143,26.661c-1.188,3.348-3.171,8.952-2.797,10.732
	c0.646,1.545,5.23,5.084,7.97,7.203c6.673,5.152,14.981,11.569,16.402,21.498c1.394,9.722-4.428,17.749-9.565,24.834
	c-2.11,2.911-5.64,7.777-5.764,9.608c0.124,1.78,3.653,6.648,5.764,9.558c5.138,7.086,10.959,15.112,9.565,24.835
	c-1.421,9.928-9.726,16.345-16.402,21.501c-2.739,2.115-7.323,5.657-8.002,7.299c-0.342,1.684,1.642,7.289,2.829,10.635
	c2.935,8.287,6.26,17.676,2.143,26.66c-4.158,9.066-13.5,12.697-21.74,15.898c-3.255,1.266-8.704,3.383-9.817,4.787
	c-0.785,1.518-0.462,7.408-0.271,10.926c0.484,8.795,1.026,18.762-5.471,26.252c-6.508,7.502-16.464,8.369-25.248,9.133
	c-3.504,0.303-9.363,0.812-10.826,1.861c-1.162,1.234-2.491,6.951-3.284,10.365c-2,8.6-4.264,18.344-12.622,23.732
	c-3.648,2.354-7.923,3.498-13.072,3.498c-4.626,0-9.22-0.916-13.666-1.807c-3.415-0.682-6.942-1.389-9.435-1.389
	c-1.115,0-1.534,0.15-1.541,0.15c-1.446,0.859-4.308,5.93-6.02,8.959c-4.354,7.713-9.285,16.457-18.879,19.279
	c-1.873,0.551-3.85,0.828-5.879,0.828c-7.294,0.004-14.123-3.59-20.146-6.758c-3.273-1.721-8.216-4.322-10.238-4.322
	c-1.638,0.426-5.772,4.436-8.242,6.828C263.542,479.053,255.999,486.373,245.943,486.373z M214.038,444.512
	c1.044,0,2.078,0.07,3.095,0.217c8.418,1.205,14.756,7.352,20.346,12.775c2.479,2.404,6.573,6.375,8.464,7
	c1.891-0.625,5.984-4.596,8.464-7c5.59-5.424,11.928-11.57,20.346-12.775c1.017-0.146,2.048-0.217,3.095-0.217
	c7.417,0,14.314,3.629,20.401,6.83c3.081,1.619,7.664,4.033,9.721,4.234c1.625-1.219,4.347-6.047,6.01-8.99
	c3.841-6.811,8.197-14.529,15.972-18.092c3.11-1.426,6.577-2.119,10.6-2.119c4.648,0,9.257,0.922,13.713,1.812
	c3.403,0.68,6.923,1.383,9.388,1.383c0.604,0,0.999-0.043,1.229-0.082c1.197-1.643,2.44-6.994,3.199-10.254
	c1.775-7.648,3.791-16.314,10.283-21.947c6.502-5.643,15.374-6.414,23.203-7.092c3.344-0.293,8.83-0.768,10.6-1.725
	c0.692-1.887,0.395-7.373,0.21-10.713c-0.431-7.852-0.918-16.754,3.752-23.998c4.644-7.207,12.923-10.422,20.229-13.262
	c3.142-1.223,8.305-3.227,9.737-4.652c0.117-2-1.702-7.137-2.812-10.264c-2.632-7.432-5.614-15.854-3.173-24.149
	c2.402-8.177,9.402-13.585,15.578-18.357c2.689-2.076,7.11-5.489,8.069-7.277c-0.469-1.939-3.632-6.305-5.561-8.962
	c-4.651-6.414-9.921-13.683-9.921-22.4c0-8.716,5.27-15.986,9.921-22.4c1.929-2.658,5.092-7.021,5.561-8.961
	c-0.959-1.787-5.38-5.198-8.066-7.277c-6.179-4.768-13.179-10.173-15.581-18.356c-2.441-8.29,0.541-16.711,3.173-24.142
	c1.109-3.131,2.929-8.269,2.812-10.269c-1.437-1.425-6.596-3.429-9.737-4.651c-7.306-2.836-15.585-6.055-20.229-13.258
	c-4.673-7.245-4.183-16.146-3.749-24.003c0.182-3.34,0.483-8.827-0.21-10.713c-1.77-0.956-7.256-1.432-10.6-1.724
	c-7.828-0.678-16.7-1.449-23.203-7.089c-6.492-5.636-8.506-14.298-10.279-21.945c-0.761-3.266-2.005-8.621-3.201-10.258
	c-0.232-0.036-0.627-0.082-1.238-0.082c-2.461,0-5.98,0.704-9.38,1.382c-4.456,0.888-9.062,1.809-13.709,1.809
	c-4.026,0-7.494-0.693-10.607-2.121c-7.768-3.561-12.124-11.278-15.969-18.086c-1.659-2.943-4.385-7.772-6.013-8.994
	c-2.071,0.213-6.645,2.619-9.718,4.236c-6.087,3.202-12.987,6.829-20.404,6.829c-1.044,0-2.078-0.07-3.095-0.216
	c-8.418-1.205-14.756-7.352-20.346-12.774c-2.479-2.406-6.573-6.375-8.464-7c-1.891,0.625-5.985,4.594-8.464,7
	c-5.59,5.423-11.928,11.57-20.346,12.774c-1.017,0.146-2.047,0.216-3.095,0.216c-7.417,0-14.317-3.627-20.403-6.829
	c-3.079-1.621-7.659-4.03-9.719-4.236c-1.624,1.222-4.35,6.048-6.01,8.99c-3.84,6.812-8.197,14.53-15.971,18.094
	c-3.11,1.425-6.577,2.118-10.6,2.118c-4.649,0-9.257-0.924-13.713-1.812c-3.405-0.679-6.922-1.382-9.385-1.382
	c-0.608,0-1.002,0.042-1.229,0.082c-1.197,1.638-2.444,6.993-3.201,10.259c-1.777,7.646-3.792,16.31-10.284,21.941
	c-6.502,5.643-15.375,6.414-23.203,7.093c-3.344,0.292-8.831,0.768-10.6,1.724c-0.692,1.887-0.395,7.374-0.209,10.713
	c0.43,7.853,0.917,16.755-3.752,24c-4.645,7.206-12.924,10.422-20.229,13.261c-3.141,1.223-8.305,3.227-9.736,4.652
	c-0.117,2,1.702,7.138,2.811,10.265c2.632,7.43,5.614,15.852,3.173,24.149c-2.403,8.176-9.403,13.584-15.579,18.356
	c-2.689,2.076-7.11,5.49-8.07,7.277c0.469,1.94,3.631,6.303,5.562,8.961c4.651,6.414,9.92,13.685,9.92,22.4
	c0,8.717-5.273,15.987-9.924,22.4c-1.927,2.657-5.089,7.022-5.558,8.958c0.959,1.787,5.38,5.203,8.07,7.281
	c6.176,4.769,13.176,10.177,15.579,18.357c2.441,8.288-0.541,16.712-3.173,24.142c-1.109,3.131-2.928,8.268-2.811,10.268
	c1.436,1.426,6.595,3.43,9.736,4.652c7.306,2.836,15.585,6.055,20.229,13.258c4.672,7.244,4.182,16.146,3.749,24.004
	c-0.182,3.34-0.483,8.826,0.209,10.713c1.77,0.955,7.256,1.432,10.6,1.723c7.828,0.678,16.701,1.449,23.203,7.09
	c6.492,5.635,8.507,14.299,10.28,21.945c0.76,3.266,2.003,8.619,3.201,10.258c0.231,0.035,0.625,0.082,1.236,0.082
	c2.463,0,5.98-0.703,9.381-1.383c4.456-0.887,9.061-1.809,13.708-1.809c4.026,0,7.495,0.693,10.608,2.121
	c7.768,3.561,12.124,11.279,15.969,18.088c1.663,2.941,4.389,7.77,6.012,8.99c2.071-0.211,6.647-2.615,9.721-4.232
	C199.724,448.141,206.622,444.512,214.038,444.512z"/>
<path d="M245.943,433.822c-104.43,0-189.387-84.957-189.387-189.386c0-104.43,84.958-189.387,189.387-189.387
	S435.33,140.006,435.33,244.436C435.33,348.865,350.373,433.822,245.943,433.822z M245.943,62.326
	c-100.415,0-182.11,81.696-182.11,182.11c0,100.414,81.695,182.111,182.11,182.111c100.414,0,182.108-81.697,182.108-182.111
	C428.052,144.022,346.357,62.326,245.943,62.326z"/>
<path d="M168.628,162.56l-12.848-4.424l-5.731-43.184l8.709-11.375l11.374,8.709l40.498,4.84l52.216-6.929l20.073-10.429
	l6.479,48.798l-11.247,7.629l-76.322,10.131L168.628,162.56z M275.947,147.288l5.625-3.812l-4.136-31.124l-10.511,5.479
	l-57.237,7.601l-41.554-5.114l-6.829-5.227l-1.738,2.275l4.531,34.147l6.425,2.21l32.118,3.297L275.947,147.288z M170.114,142.941
	l-1.2-9.036l3.482-4.548l9.043-1.202l4.543,3.49l1.202,9.032l-3.482,4.552l-9.036,1.201L170.114,142.941z M300.107,383.205
	l-7.622-11.246l-1.87-14.061l0.479-19.482l-2.263-17.066l0.941-8.303l-4.488,4.682l-14.259,1.893l-10.01-7.66l-0.828-6.233
	l-3.745,2.546l-11.25,1.494l-10.009-7.668l-0.828-6.225l-3.75,2.544l-8.037,1.066l-7.963-6.098l-7.551-18.409l-2.263-17.071
	l2.014-12.532l-10.699-22.084l-3.518-26.512l2.415-12.582l-1.278-9.637l8.3,0.935l79.328-10.529l34.172,64.956l9.329,70.292
	l-7.611,88.895L300.107,383.205z M317.695,300.142l-9.063-68.281l-30.095-57.322l-74.303,9.864l0.131,1.002l-2.424,12.583
	l3.28,24.706l11.153,22.433l-2.149,14.59l2.004,15.063l6.012,14.532l3.411,2.613l5.025-0.668l3.752-2.544l2.149-14.59l5.224-6.823
	l0.59,27.511l1.534,3.886l4.553,3.48l7.028-0.932l3.614-3.547l2.757-17.733l5.228-6.826l1.116,31.524l1.538,3.891l4.548,3.479
	l7.032-0.93l3.748-2.545l2.949-8.567l1.887-16.598l5.228-6.825l3.465,26.109l-1.481,19.611l2.263,17.074l-0.613,18.473l1.52,11.449
	l5.078,7.502l5.372,1.943L317.695,300.142z"/>
</svg>
