<?xml version="1.0" standalone="no"?>
<!DOCTYPE svg PUBLIC "-//W3C//DTD SVG 1.1//EN" "http://www.w3.org/Graphics/SVG/1.1/DTD/svg11.dtd" >
<svg xmlns="http://www.w3.org/2000/svg">
<metadata>
This is a custom SVG webfont generated by Font Squirrel.
Copyright   : Generated in 2011 by FontLab Studio Copyright info pending
Designer    : Ryan Clark
Foundry     : Ryan Clark
Foundry URL : wwwryanvsclarkcom
</metadata>
<defs>
<font id="LiberatorRegular" horiz-adv-x="1024" >
<font-face units-per-em="2048" ascent="1536" descent="-512" />
<missing-glyph horiz-adv-x="500" />
<glyph unicode=" " />
<glyph unicode="!" d="M532 25v258q0 29 29 28h242q31 0 31 -28v-258h-3q-4 -25 -28 -25h-242q-25 0 -29 25zM532 526v873q0 29 29 28h242q31 0 31 -28v-873h-3q-4 -25 -28 -24h-242q-25 -1 -29 24z" />
<glyph unicode="&#x22;" d="M350 1026v379q0 29 29 29h242q29 0 28 -29v-379q-4 -25 -28 -25h-242q-25 0 -29 25zM723 1026v379q0 29 29 29h241q29 0 29 -29v-379q-4 -25 -29 -25h-241q-25 0 -29 25z" />
<glyph unicode="#" horiz-adv-x="1536" d="M174 319v244q0 29 29 29h180l72 272h-252q-12 0 -20.5 9.5t-8.5 19.5v244q0 29 29 28h329l54 209q0 29 28 29h244q29 0 29 -29l-53 -209h299l55 209q0 29 29 29h241q31 0 31 -29l-55 -209h73q29 0 29 -28v-244q0 -10 -8 -19.5t-21 -9.5h-151l-70 -272h221q29 0 29 -29 v-244q0 -10 -8 -19t-21 -9h-299l-67 -260q0 -29 -31 -29h-242q-29 0 -28 29l67 260h-301l-67 -260q0 -29 -29 -29h-244q-29 0 -28 29l67 260h-102q-12 0 -20.5 9t-8.5 19zM684 592h301l70 272h-299z" />
<glyph unicode="$" d="M274 281v6v166q0 23 25 22h197q23 0 22 -22v-74h209q6 0 8 4l29 27l4 12v125q2 8 -4 14l-29 27q-4 4 -8 4h-299q-23 -2 -43 18l-92 92q-8 8 -13.5 19.5t-5.5 17.5v6v396q-2 23 19 43l92 94q20 20 43 16h94v113q0 25 23 25h198q23 0 23 -25v-113h92q25 4 43 -16l94 -94 q8 -8 13.5 -18.5t5.5 -18.5v-6h-2l2 -2v-172q0 -23 -25 -23h-196q-25 0 -25 23v84h-205q-8 0 -12 -4l-27 -29l-6 -12v-134h2q-2 -6 4 -12l25 -24h309q25 4 43 -17l94 -94q8 -8 13.5 -18.5t5.5 -18.5v-6v-393q2 -25 -19 -43l-94 -94q-16 -18 -43 -19h-92v-113q-4 -20 -23 -20 h-198q-18 0 -23 20v113h-94q-23 -2 -43 19l-92 92q-8 8 -13.5 19.5t-5.5 17.5z" />
<glyph unicode="%" d="M207 1112v277q0 29 29 28h243q29 0 29 -28v-277h-2q-4 -25 -27 -25h-243q-25 0 -29 25zM274 29l451 1360q0 29 31 28h241q29 0 29 -28l-451 -1360q0 -29 -28 -29h-242q-31 0 -31 29zM821 25v276q0 12 9.5 20.5t19.5 8.5h244q29 0 28 -29v-276q-4 -25 -28 -25h-244 q-23 0 -27 25h-2z" />
<glyph unicode="&#x26;" d="M168 524v244q0 29 29 29h284v284q0 10 8.5 19.5t20.5 9.5h242q12 0 21 -9t9 -20v-284h287q25 -4 25 -29v-244q0 -23 -25 -26v-2h-287v-287h-2q-4 -27 -28 -27h-242q-25 0 -29 27v287h-284q-12 0 -20.5 9t-8.5 19z" />
<glyph unicode="'" d="M537 1026v379q0 29 28 29h242q29 0 29 -29v-379q-4 -25 -29 -25h-242q-24 0 -28 25z" />
<glyph unicode="(" horiz-adv-x="989" d="M438 182v8v1051q-4 29 21 53l116 117q10 10 23.5 15.5t22.5 5.5h8h264v-302h-100q-8 0 -15 -6l-33 -32l-6 -17v-731q0 -8 6 -14l29 -29h119v-301h-264q-29 -2 -54 23l-116 114q-10 10 -15.5 23.5t-5.5 21.5z" />
<glyph unicode=")" horiz-adv-x="976" d="M451 4v301h118l29 29q6 6 6 14v731q0 8 -6 17l-35 32q-4 6 -12 7h-100v301h264q29 4 53 -21l115 -117q10 -10 16 -23t6 -22v-8v-1050q4 -29 -22 -54l-115 -114q-10 -10 -23.5 -16.5t-21.5 -6.5h-8h-264z" />
<glyph unicode="*" horiz-adv-x="1155" d="M268 784q-10 10 2 25l205 145l-203 142q-14 10 -4 28l92 131q12 16 27 5l162 -115v198q0 18 20 19h160q20 0 21 -19v-198l161 115q14 12 27 -5l92 -131q10 -18 -4 -28l-203 -142l205 -145q12 -14 2 -25l-92 -133q-10 -10 -25 -4v-2l-163 117v-201h-2q0 -16 -19 -16h-160 q-18 0 -18 16h-2v201l-164 -117v2q-14 -6 -25 4z" />
<glyph unicode="+" d="M168 524v244q0 29 29 29h284v284q0 10 8.5 19.5t20.5 9.5h242q12 0 21 -9t9 -20v-284h287q25 -4 25 -29v-244q0 -23 -25 -26v-2h-287v-287h-2q-4 -27 -28 -27h-242q-25 0 -29 27v287h-284q-12 0 -20.5 9t-8.5 19z" />
<glyph unicode="," d="M598 29v276q0 29 29 29h241q31 0 31 -29v-387l-2 2q-4 -33 -37 -18l-235 96q-25 11 -27 31z" />
<glyph unicode="-" horiz-adv-x="1054" d="M334 432v244q0 29 28 29h668q25 -4 25 -29v-244q0 -23 -25 -26v-3h-668q-12 0 -20 9.5t-8 19.5z" />
<glyph unicode="." d="M535 29v276q0 29 28 29h242q29 0 29 -29v-276q-4 -25 -29 -25h-242q-24 0 -28 25z" />
<glyph unicode="/" d="M328 29l450 1374q0 29 29 29h244q10 0 19 -8.5t9 -20.5l-450 -1374q0 -12 -9.5 -20.5t-19.5 -8.5h-244q-28 0 -28 29z" />
<glyph unicode="0" horiz-adv-x="1173" d="M250 195v1048h2q-4 29 20 53l115 115q10 10 23.5 16.5t21.5 6.5h8h531q29 2 53 -23l115 -115q10 -10 16 -23t6 -22v-8h-2q0 -2 1 -2t1 -2v-1049q2 -27 -22 -51l-115 -116q-10 -10 -23.5 -15.5t-21.5 -5.5h-8h-531q-29 -4 -53 21l-115 114q-10 12 -15 25.5t-5 21.5v6z M551 344q0 -6 8 -12l27 -29h239l29 29q6 6 6 12v733q0 8 -6 15l-35 34q-8 6 -14 7h-199q-4 0 -14 -7l-33 -34q-8 -6 -8 -15v-733z" />
<glyph unicode="1" horiz-adv-x="694" d="M236 1163l96 236q10 25 28 26h277h4q2 -2 4 -2l12 -6l5 -4l6 -12v-4v-242v-4v-1122q0 -29 -31 -29h-242q-29 0 -28 29v1095h-115v2q-32 4 -16 37z" />
<glyph unicode="2" horiz-adv-x="1226" d="M313 29v606q-2 29 23 53l115 115q10 10 23 15t22 5h8h383l28 29l7 16v205q2 8 -7 17l-32 32q-8 8 -15 8h-254v-104q0 -29 -28 -29h-244q-29 0 -29 29v215q-2 29 23 53l115 115q10 10 23 15.5t22 5.5h8l530 2v-2q27 4 53 -21l115 -115q10 -10 15.5 -23.5t5.5 -21.5v-8 v-528q4 -29 -21 -54l-117 -114q-23 -25 -51 -21h-368l-11 -6l-34 -35l-7 -14v-168h580q29 0 29 -31v-241q0 -29 -29 -29h-852q-29 0 -29 29z" />
<glyph unicode="3" horiz-adv-x="1247" d="M371 182v8h2q-2 2 -2 5v211q0 12 9 20t19 8h244q29 0 29 -28v-103h258l28 27q6 10 7 14v166q0 8 -7 16l-34 33q-2 2 -15 8h-213v299h234l28 29q6 10 7 14v166q0 8 -7 17l-34 32q-2 2 -15 9h-237v-105q0 -29 -29 -29h-244q-10 0 -19 8.5t-9 20.5v211q0 2 2 4h-2 q-2 29 22 53l115 115q10 10 23.5 15.5t21.5 5.5h8h514q29 4 53 -21l115 -115q10 -10 16.5 -23t6.5 -22v-8v-407q0 -33 -23 -54l-80 -82l80 -82q23 -18 23 -36v-392q2 -29 -23 -53l-115 -114q-10 -10 -23 -15.5t-22 -5.5h-8h-514q-29 -4 -53 21l-115 114q-10 10 -16 23.5 t-6 21.5z" />
<glyph unicode="4" horiz-adv-x="1128" d="M168 547v8h2q-2 2 -2 4v838q0 10 9 19t22 9h241q12 0 20.5 -9t8.5 -19v-688q0 -4 6 -15l29 -28h213v731q0 29 28 28h244q10 0 19.5 -8t9.5 -20v-731h106q10 0 19.5 -8.5t9.5 -20.5v-244q0 -10 -9 -19t-20 -9h-106v-336q0 -12 -9.5 -20.5t-19.5 -8.5h-244q-29 0 -28 29 v336h-359q-29 -2 -53 22l-115 115q-10 10 -16 23.5t-6 21.5z" />
<glyph unicode="5" horiz-adv-x="1189" d="M279 1401q0 12 9 21.5t21 9.5h242h448h29h133q10 0 19.5 -9.5t9.5 -21.5v-242q0 -12 -9.5 -20.5t-19.5 -8.5h-581v-169q0 -8 8 -15l33 -35q8 -4 10 -4h368v-2q29 4 54 -20l114 -115q10 -10 16.5 -23.5t6.5 -21.5v-8v-529q2 -29 -23 -53l-114 -115q-10 -10 -23.5 -15 t-21.5 -5h-9h-530q-29 -4 -53 20l-115 115q-10 10 -15 23.5t-5 21.5v8v215q0 29 28 29h242q29 0 29 -29v-102h254q10 0 14 6l35 33l6 16v207l-2 -2q2 8 -6 17l-29 28h-383q-29 -4 -53 21l-115 114q-10 10 -15 23.5t-5 21.5v9z" />
<glyph unicode="6" horiz-adv-x="1153" d="M258 180v8h2l-2 2v3v1044v2l2 2h-2q-2 29 23 53l114 115q10 10 23.5 15.5t21.5 5.5h9h514q29 4 53 -21l114 -115q12 -10 17.5 -23.5t5.5 -21.5v-8v-215q0 -29 -29 -29h-243q-29 0 -29 29v104h-238q-12 -6 -14 -8l-35 -32l-6 -17v-166q0 -6 6 -14l29 -29h151q2 2 5 2h211 l2 -2v2q29 2 53 -22l114 -115q12 -10 17.5 -23.5t5.5 -21.5v-8v-490q0 -31 -23 -51l-114 -115q-10 -10 -23.5 -15t-21.5 -5h-8h-529q-20 4 -39 20l-114 115q-10 10 -16.5 23.5t-6.5 21.5zM559 342q0 -6 6 -14l27 -25h225l29 29q6 4 6 12v168q0 10 -6 14l-35 35l-4 4h-193 q-12 -6 -14 -8l-35 -33l-6 -16v-166z" />
<glyph unicode="7" horiz-adv-x="1136" d="M256 1153v244q0 10 8 19t21 9h821q12 0 20.5 -9t8.5 -19v-244q0 -6 -8.5 -26.5t-12.5 -24.5l-387 -1073l-8 -29h-367v2q0 10 6 21l414 1101h-487q-29 0 -29 29z" />
<glyph unicode="8" d="M260 188v392q4 20 21 36l81 82l-81 82q-10 10 -15.5 23.5t-5.5 21.5v9v409q0 31 21 51l116 115q10 10 23.5 15.5t21.5 5.5h9h514q27 4 53 -21l115 -115q20 -20 20 -51v-409q4 -29 -20 -54l-82 -82l82 -82q16 -16 20 -36v-392q0 -31 -20 -53l-115 -115q-20 -20 -41 -20 h-12h-531q-16 0 -37 20l-116 115q-21 22 -21 53zM561 342q0 -8 6 -14l29 -27h221l29 27q6 6 6 14v166q2 8 -6 16l-33 33q-4 4 -10 6l-4 2h-185l-4 -2q-6 -2 -10 -6l-33 -33l-6 -16v-166zM561 907q0 -8 6 -14l29 -29h221l29 29q6 6 6 14v168q0 10 -6 15l-33 32q-4 4 -10 6 l-4 2h-185l-4 -2q-6 -2 -10 -6l-33 -32q-6 -4 -6 -15v-168z" />
<glyph unicode="9" horiz-adv-x="1148" d="M262 180v8v215q0 29 29 29h241q31 0 31 -29v-102h238q8 0 14 6l33 33l6 16v166q0 8 -6 15l-29 28h-149l-4 -2h-211l-2 2h-2q-29 -4 -54 21l-114 114q-10 10 -15.5 23.5t-5.5 21.5v9v489q-8 23 21 51l114 115q10 10 23.5 15.5t21.5 5.5h9h530q20 -4 37 -21l117 -115 q10 -10 15 -23.5t5 -21.5v-8v-1053q4 -29 -20 -53l-117 -115q-10 -10 -23.5 -15t-21.5 -5h-8h-514q-29 -4 -54 20l-114 115q-10 10 -15.5 23.5t-5.5 21.5zM561 918q6 -12 8 -15l33 -35h2q2 -2 4 -2l193 -2v2q8 0 14 6l33 33l6 17v165q0 8 -6 15l-27 24h-223l-29 -28 q-6 -4 -6 -13v-59h-2v-108z" />
<glyph unicode=":" d="M530 27v276q0 29 31 29h242q29 0 28 -29v-276q-4 -25 -28 -25h-242q-25 0 -29 25h-2zM530 547v274v2q0 10 9.5 19.5t21.5 9.5h242q12 0 20 -9t8 -20v-2v-274q-4 -25 -28 -25h-242q-25 0 -29 25h-2z" />
<glyph unicode=";" d="M537 41v276q0 12 9 20.5t19 8.5h244q29 0 29 -29v-385q-4 -33 -37 -18l-236 96q-27 12 -26 31h-2zM537 561v277q0 10 9 19t19 9h244q12 0 20.5 -9t8.5 -19v-277q-4 -25 -29 -24h-244q-23 0 -26 24h-2z" />
<glyph unicode="&#x3c;" horiz-adv-x="1103" d="M309 510v272q0 25 25 35l719 352q14 6 18 9q10 2 19.5 -7.5t9.5 -21.5v-264q0 -25 -29 -37l-399 -201l399 -201q29 -12 29 -36v-265q0 -12 -9.5 -21t-19.5 -7t-18 10l-719 350q-25 6 -25 33z" />
<glyph unicode="=" horiz-adv-x="1064" d="M211 381v244q0 29 29 28h872q25 -4 25 -28v-244q0 -23 -25 -27v-2h-872q-12 0 -20.5 9.5t-8.5 19.5zM211 821v242q0 29 29 29h872q25 -4 25 -29v-242q0 -25 -25 -28v-2h-872q-29 -1 -29 30z" />
<glyph unicode="&#x3e;" horiz-adv-x="1136" d="M342 141v265q0 25 29 36l397 201l-397 201q-29 12 -29 37v264q0 12 8 21.5t21 7.5l10 -6q6 -3 8 -3l719 -352q25 -10 25 -35v-272l-25 -33l-719 -350q-14 -8 -18 -10q-12 -2 -20.5 7t-8.5 21z" />
<glyph unicode="?" horiz-adv-x="1204" d="M295 1010v227q-4 29 20 53l115 115q10 10 23.5 16t21.5 6h8h531q31 0 53 -22l115 -115q16 -16 20 -37h2v-731q0 -29 -30 -28h-291v-78q0 -12 -9.5 -20.5t-19.5 -8.5h-244q-29 0 -28 29v348q0 31 28 31h293v288q0 8 -6 15l-29 28h-237l-29 -28q-6 -4 -6 -15v-73 q0 -12 -9 -21.5t-22 -9.5h-241q-29 0 -29 31zM582 25v256q0 31 28 30h244q29 0 29 -30v-256h-2q-4 -25 -27 -25h-244q-24 0 -28 25z" />
<glyph unicode="@" horiz-adv-x="1505" d="M162 -78v1127q-2 18 14 34l78 78q8 8 16.5 12.5t12.5 4.5h6h1097q18 2 35 -17l78 -78q18 -16 14 -34l3 -2v-938h-922q-18 -2 -35 14l-80 78q-8 8 -11 17t-3 15v5h2l-2 2v503q-2 20 14 37l78 78q8 8 17.5 11t15.5 3h4h479q18 2 37 -14l78 -78q16 -16 14 -35v-432h109v623 q0 6 -4 10l-23 23q-4 4 -10 4h-873q-6 0 -8 -4l-24 -23l-4 -10v-909q0 -2 4 -11l20 -18h805v-205h-903q-20 -2 -37 14l-78 78q-8 8 -11 17.5t-3 15.5v4zM670 342q0 -6 4 -10l18 -19h283l18 19q4 4 4 10v289q2 6 -4 12l-22 23l-8 4h-256q-2 0 -11 -4l-22 -23l-4 -12v-289z " />
<glyph unicode="A" horiz-adv-x="1198" d="M141 29l406 1372v2q12 29 28 29h91h63h90q18 0 29 -29v-2q68 -229 203 -686q30 -102 86.5 -262.5t86.5 -262.5t30 -165q0 -8 -9 -16q-10 -9 -22 -9h-234q-25 0 -37 29l-49 166h-411l-50 -166q-12 -29 -36 -29h-234q-12 0 -22.5 9.5t-8.5 19.5zM573 471h248l-123 420z" />
<glyph unicode="B" horiz-adv-x="1126" d="M256 29v1374q0 29 29 29h651h4q26 0 49 -23l115 -115q10 -10 16 -23.5t6 -21.5v-8v-407q2 -29 -22 -54l-80 -82l80 -80q16 -16 20 -36h2v-392q2 -29 -22 -53l-115 -114q-10 -10 -23.5 -16.5t-21.5 -6.5h-8h-651q-29 0 -29 29zM557 301h234l28 29q6 10 6 14v166q0 8 -6 14 l-35 35q-6 6 -12 6h-215v-264zM557 866h234l28 29q6 10 6 14v166q0 8 -6 15l-35 34q-4 6 -12 6h-215v-264z" />
<glyph unicode="C" horiz-adv-x="1155" d="M248 193v1050q-2 31 20 53l115 115q10 10 23.5 15.5t21.5 7.5h8h531q31 0 53 -23l115 -115q10 -10 16 -23t6 -22v-8h-2q2 -2 2 -4v-215q0 -10 -9 -19.5t-20 -9.5h-243q-12 0 -20.5 9.5t-8.5 19.5v53q0 8 -6 15l-35 34q-6 6 -14 7h-199q-4 0 -14 -7l-33 -34q-8 -6 -8 -15 v-731q6 -14 8 -14l29 -29h237l29 29q6 6 6 14v62q0 10 8 19t21 9h243q10 0 19.5 -9t9.5 -19v-232q-4 -18 -22 -37l-115 -114q-10 -10 -23.5 -15.5t-21.5 -5.5l-8 -2h-531q-31 0 -53 23l-115 114q-8 8 -13 21.5t-5 23.5z" />
<glyph unicode="D" horiz-adv-x="1126" d="M254 29v1374q0 29 29 29h651q31 0 53 -23l115 -115q10 -10 15 -23.5t5 -21.5l2 -8v-1051q2 -29 -22 -53l-115 -114q-10 -10 -23.5 -16.5t-21.5 -6.5h-8h-651q-29 0 -29 29zM555 301h233l29 29q6 10 6 14v731q0 8 -6 15l-35 34q-4 6 -14 6h-213v-829z" />
<glyph unicode="E" horiz-adv-x="1064" d="M258 29v1374q0 29 29 29h745q10 0 19.5 -8.5t9.5 -20.5v-244q0 -12 -9.5 -20.5t-19.5 -8.5h-473v-264h363q29 0 28 -28v-244q0 -29 -28 -29h-363v-264h473q10 0 19.5 -8t9.5 -21v-243q0 -12 -9.5 -20.5t-19.5 -8.5h-745q-29 0 -29 29z" />
<glyph unicode="F" horiz-adv-x="1060" d="M254 29v1374q0 29 29 29h745q10 0 19.5 -8.5t9.5 -20.5v-244q0 -18 -17 -24v-5h-485v-264h363q29 0 28 -28v-244q0 -16 -14 -25v-4h-377v-536q0 -29 -29 -29h-243q-29 0 -29 29z" />
<glyph unicode="G" horiz-adv-x="1163" d="M254 193v1048h2q-4 29 20 53l115 115q10 10 23.5 16.5t21.5 6.5h8h531h4q26 0 49 -23l115 -115q10 -10 16 -23.5t6 -21.5v-8h-2l2 -2v-217q0 -10 -9 -19.5t-21 -9.5h-242q-12 0 -20.5 9.5t-8.5 19.5v53q0 8 -6 15l-35 34q-4 6 -14 6h-199q-8 0 -14 -6l-33 -34 q-8 -6 -8 -15v-731q6 -12 8 -14l27 -29h239l29 29q6 10 6 14v180h-135q-12 0 -20.5 9.5t-8.5 19.5v244q0 29 29 28h406q31 0 30 -28v-623h-2q-4 -20 -20 -37l-115 -114q-10 -10 -23.5 -16.5t-21.5 -6.5h-8h-531h-4q-26 0 -49 23l-115 114q-10 10 -15 23.5t-5 21.5v8z" />
<glyph unicode="H" horiz-adv-x="1163" d="M254 29v1374q0 29 29 29h243q10 0 19.5 -8.5t9.5 -20.5v-537h307v537q0 12 9.5 20.5t19.5 8.5h244q29 0 28 -29v-1374q0 -29 -28 -29h-244q-10 0 -19.5 8t-9.5 21v536h-307v-536q0 -12 -9 -20.5t-20 -8.5h-243q-29 0 -29 29z" />
<glyph unicode="I" horiz-adv-x="544" d="M244 29v1368q0 29 28 28h244q29 0 29 -28v-1368q0 -29 -29 -29h-244q-28 0 -28 29z" />
<glyph unicode="J" horiz-adv-x="1253" d="M344 174v322q0 29 29 28h243q10 0 19.5 -8t9.5 -20v-152q0 -10 6 -14l29 -29h238l28 29q6 6 6 14v1059q4 23 29 22h244q25 0 28 -22v-1213q2 -29 -22 -53l-115 -117q-10 -10 -23.5 -15t-21.5 -5h-8h-531q-4 -1 -7 -1q-23 0 -44 21l-116 117q-14 14 -19 37h-2z" />
<glyph unicode="K" horiz-adv-x="1077" d="M176 29v1374q0 10 8.5 19.5t20.5 9.5h244q12 0 20 -9.5t8 -19.5v-449l303 449q20 29 37 29h309q12 0 26.5 -9.5t10.5 -19.5l-385 -539l389 -819l9 -16q2 -10 -8.5 -19.5t-22.5 -9.5h-273q-25 0 -36 29l-252 565l-107 -148v-417q0 -29 -28 -29h-244q-29 0 -29 29z" />
<glyph unicode="L" horiz-adv-x="1083" d="M258 29v1374h2q4 23 29 22h241q25 0 29 -22v-1102h549q12 0 21.5 -9t9.5 -20v-243q0 -29 -31 -29h-819q-31 0 -31 29z" />
<glyph unicode="M" horiz-adv-x="1216" d="M154 29l55 1368v6q4 12 12 18q2 0 4 2q4 0 6 2h261q20 0 30 -26l185 -791l22 -172l16 172l216 791q6 27 30 26h260q2 -2 6 -2l3 -2q10 -6 12 -18v-4q2 0 2 -2l53 -1368q0 -29 -29 -29h-241q-31 0 -31 29l-8 518l-158 -522q-12 -29 -37 -29h-164q-23 0 -38 29l-156 522 l-10 -518q0 -29 -29 -29h-244q-10 0 -19 8.5t-9 20.5z" />
<glyph unicode="N" horiz-adv-x="1198" d="M256 31v1374q0 29 29 29h305q23 0 28 -29h3l270 -791l4 -22v813q0 12 9 20.5t20 8.5h243q29 0 29 -29v-1374q0 -10 -8 -19.5t-21 -9.5h-323q-25 0 -37 29l-250 684v-684q0 -10 -9 -19.5t-20 -9.5h-243q-12 0 -20.5 9.5t-8.5 19.5z" />
<glyph unicode="O" horiz-adv-x="1163" d="M254 182v8v1051q-2 29 22 53l115 115q10 12 23.5 17.5t21.5 5.5h8h529q4 1 7 0q24 0 46 -23l117 -115q10 -10 15 -23.5t5 -21.5v-8v-1051q4 -29 -20 -53l-117 -114q-10 -10 -23.5 -16.5t-19.5 -6.5h-8h-531h-4q-26 0 -49 23l-115 114q-10 10 -16 23.5t-6 21.5zM555 344 q0 -4 6 -14l29 -29h237l29 29q6 6 6 14v731q2 8 -6 17l-33 32q-6 6 -14 6h-201q-8 0 -12 -6l-35 -32l-6 -17v-731z" />
<glyph unicode="P" horiz-adv-x="1126" d="M256 31v1374q0 29 29 29h651q4 1 8 0q24 0 45 -21l115 -117q10 -10 16 -23t6 -22v-8v-522l-2 -2h2q2 -29 -22 -53l-115 -117q-10 -10 -23.5 -15.5t-21.5 -5.5h-8h-379v-497q0 -10 -9 -19.5t-22 -9.5h-241q-12 0 -20.5 9.5t-8.5 19.5zM557 829h211h3l13 7l35 32l6 17v192 q0 8 -6 15l-35 34l-16 7h-211v-304z" />
<glyph unicode="Q" horiz-adv-x="1167" d="M258 182v8v1051q-2 29 23 53l114 115q10 12 23.5 17.5t21.5 5.5h9h528q4 1 7 0q24 0 46 -23l117 -115q10 -10 15 -23.5t5 -21.5v-8v-1051q4 -29 -20 -53l-43 -43l78 -186l6 -12q2 -10 -7.5 -19.5t-21.5 -9.5h-274q-25 0 -37 29l-45 104h-354q-29 -2 -54 23l-114 114 q-10 10 -16.5 23.5t-6.5 21.5zM559 346q0 -8 6 -16l29 -29h237l29 29l6 16v729q2 8 -6 17l-33 32q-6 6 -14 6h-201q-8 0 -12 -6l-35 -32l-6 -17v-729z" />
<glyph unicode="R" horiz-adv-x="1130" d="M256 29v1374q0 12 9 20.5t20 8.5h651q4 1 8 0q24 0 45 -21l117 -117q10 -10 15 -24.5t5 -24.5v-8v-520q4 -29 -20 -53l-117 -117l-6 -4l209 -514q2 -10 -7 -19.5t-22 -9.5h-274q-25 0 -37 29l-201 497h-94v-497q0 -10 -8 -19.5t-21 -9.5h-243q-10 0 -19.5 9.5t-9.5 19.5z M557 827h215q8 0 14 7l33 32l6 17v192q2 8 -6 17l-33 32l-16 6h-213v-303z" />
<glyph unicode="S" horiz-adv-x="1159" d="M248 195v198q0 29 31 29h241q29 0 29 -29v-92h258q4 0 10 6l35 33l6 16v154q0 8 -6 16l-35 33q-6 6 -10 6h-369q-29 -2 -53 23l-115 114q-10 10 -15 23.5t-5 22.5v8h-2v485h2q-4 29 20 53l115 115q10 12 23.5 17.5t21.5 5.5h8h531q4 1 7 0q24 0 46 -23l115 -115 q10 -10 16 -23.5t6 -21.5v-8h-2l2 -2v-211q0 -29 -31 -29h-241q-29 0 -29 29v102h-254q-8 0 -14 -6l-33 -32l-8 -17v-166l2 2q-2 -8 6 -16l29 -29h383q29 4 53 -22l115 -115q10 -10 16 -23.5t6 -21.5v-8v-486q2 -29 -22 -53l-115 -114q-10 -10 -23.5 -16.5t-21.5 -6.5h-8 h-531h-4q-26 0 -49 23l-115 114q-10 10 -15 23.5t-5 21.5v8q-2 3 -2 5z" />
<glyph unicode="T" horiz-adv-x="983" d="M176 1155v242q0 12 9.5 21t21.5 9h819q12 0 21.5 -9t9.5 -21v-242q0 -29 -31 -29h-260v-1101q-4 -25 -29 -25h-241q-25 0 -29 25v1101h-260q-31 0 -31 29z" />
<glyph unicode="U" horiz-adv-x="1173" d="M254 182v8h2q0 2 -1 2.5t-1 2.5v1208q0 12 9 20.5t20 8.5h243q29 0 29 -29v-1059q0 -4 6 -14l29 -29h237l29 29q4 4 6 10l2 4v1059q0 29 29 29h242q29 0 28 -29v-1213q4 -29 -20 -53l-115 -114q-10 -10 -23.5 -16.5t-21.5 -6.5h-8l-531 2q-29 -4 -53 21l-115 114 q-10 10 -16 23.5t-6 21.5z" />
<glyph unicode="V" horiz-adv-x="1118" d="M160 1397q-2 4 -3 8q0 7 6 15q9 13 21 14h256q20 0 31 -29l184 -791l17 -120l20 120l217 791q6 29 31 29h256q12 0 21 -14q5 -9 5 -16q0 -4 -1 -7l-357 -1364q-12 -31 -39 -31h-272q-25 0 -37 31z" />
<glyph unicode="W" horiz-adv-x="1208" d="M135 1399q0 10 8.5 19t20.5 9h242q12 0 21 -9t9 -19l49 -697l117 318q12 29 37 29h164q23 0 39 -29l114 -318l52 697q0 10 8 19t20 9h244q10 0 19.5 -9t9.5 -19l-111 -1368v-6q-2 -12 -12 -19q-2 0 -2 -1t-2 -1q-2 -2 -6 -2q-2 -2 -5 -2h-256q-23 0 -28 29l-144 516 l-14 102l-12 -102l-160 -516q-10 -29 -31 -29h-256h-2l-2 2l-2 2h-4l-2 2q-12 6 -12 19l-2 2v4z" />
<glyph unicode="X" horiz-adv-x="1077" d="M164 31q4 12 8 16l350 721l-313 627q-4 4 -4 8q-4 10 6 19.5t22 9.5h256q16 0 31 -29l172 -307l174 307q14 29 31 29h256q12 0 22.5 -9.5t6.5 -19.5q0 -4 -4 -8l-314 -627l350 -721q4 -4 9 -16q1 -4 1 -7q0 -8 -7 -15q-10 -9 -23 -9h-262q-27 0 -39 31l-201 397 l-198 -397q-12 -31 -39 -31h-262q-12 0 -23 9q-7 7 -7 15q0 3 1 7z" />
<glyph unicode="Y" horiz-adv-x="1081" d="M150 1395q-1 3 -2 5q0 7 8 14q10 9 22 9h264q25 0 37 -28l201 -400l199 400q16 29 39 28h262q12 0 22 -9t8 -19q-8 -16 -10 -19l-371 -719v-628q0 -29 -28 -29h-244q-10 0 -19.5 8t-9.5 21v628l-370 719q-6 15 -8 19z" />
<glyph unicode="Z" horiz-adv-x="1136" d="M252 31v243q0 12 6 21l492 835h-469q-10 0 -19.5 8.5t-9.5 20.5v244q0 12 9 20.5t20 8.5h821q29 0 28 -29v-244q0 -14 -8 -20l-495 -838h475q29 0 28 -29v-241q0 -31 -28 -31h-821q-10 0 -19.5 9.5t-9.5 21.5z" />
<glyph unicode="\" d="M305 1403q0 29 29 29h244q10 0 19 -8.5t9 -20.5l451 -1374q0 -12 -9.5 -20.5t-19.5 -8.5h-244q-29 0 -28 29z" />
<glyph unicode="^" d="M96 676q4 14 8 18l351 719q10 25 34 25h273q12 0 20.5 -6.5t12.5 -12.5l2 -6l350 -719q4 -4 8 -18q4 -10 -6 -19.5t-23 -9.5h-262q-27 0 -39 29l-200 399l-199 -399q-12 -29 -39 -29h-262q-12 0 -22.5 9.5t-6.5 19.5z" />
<glyph unicode="a" horiz-adv-x="1198" d="M141 29l406 1372v2q12 29 28 29h91h63h90q18 0 29 -29v-2q68 -229 203 -686q30 -102 86.5 -262.5t86.5 -262.5t30 -165q0 -8 -9 -16q-10 -9 -22 -9h-234q-25 0 -37 29l-49 166h-411l-50 -166q-12 -29 -36 -29h-234q-12 0 -22.5 9.5t-8.5 19.5zM573 471h248l-123 420z" />
<glyph unicode="b" horiz-adv-x="1126" d="M256 29v1374q0 29 29 29h651h4q26 0 49 -23l115 -115q10 -10 16 -23.5t6 -21.5v-8v-407q2 -29 -22 -54l-80 -82l80 -80q16 -16 20 -36h2v-392q2 -29 -22 -53l-115 -114q-10 -10 -23.5 -16.5t-21.5 -6.5h-8h-651q-29 0 -29 29zM557 301h234l28 29q6 10 6 14v166q0 8 -6 14 l-35 35q-6 6 -12 6h-215v-264zM557 866h234l28 29q6 10 6 14v166q0 8 -6 15l-35 34q-4 6 -12 6h-215v-264z" />
<glyph unicode="c" horiz-adv-x="1155" d="M248 193v1050q-2 31 20 53l115 115q10 10 23.5 15.5t21.5 7.5h8h531q31 0 53 -23l115 -115q10 -10 16 -23t6 -22v-8h-2q2 -2 2 -4v-215q0 -10 -9 -19.5t-20 -9.5h-243q-12 0 -20.5 9.5t-8.5 19.5v53q0 8 -6 15l-35 34q-6 6 -14 7h-199q-4 0 -14 -7l-33 -34q-8 -6 -8 -15 v-731q6 -14 8 -14l29 -29h237l29 29q6 6 6 14v62q0 10 8 19t21 9h243q10 0 19.5 -9t9.5 -19v-232q-4 -18 -22 -37l-115 -114q-10 -10 -23.5 -15.5t-21.5 -5.5l-8 -2h-531q-31 0 -53 23l-115 114q-8 8 -13 21.5t-5 23.5z" />
<glyph unicode="d" horiz-adv-x="1126" d="M254 29v1374q0 29 29 29h651q31 0 53 -23l115 -115q10 -10 15 -23.5t5 -21.5l2 -8v-1051q2 -29 -22 -53l-115 -114q-10 -10 -23.5 -16.5t-21.5 -6.5h-8h-651q-29 0 -29 29zM555 301h233l29 29q6 10 6 14v731q0 8 -6 15l-35 34q-4 6 -14 6h-213v-829z" />
<glyph unicode="e" horiz-adv-x="1064" d="M258 29v1374q0 29 29 29h745q10 0 19.5 -8.5t9.5 -20.5v-244q0 -12 -9.5 -20.5t-19.5 -8.5h-473v-264h363q29 0 28 -28v-244q0 -29 -28 -29h-363v-264h473q10 0 19.5 -8t9.5 -21v-243q0 -12 -9.5 -20.5t-19.5 -8.5h-745q-29 0 -29 29z" />
<glyph unicode="f" horiz-adv-x="1060" d="M254 29v1374q0 29 29 29h745q10 0 19.5 -8.5t9.5 -20.5v-244q0 -18 -17 -24v-5h-485v-264h363q29 0 28 -28v-244q0 -16 -14 -25v-4h-377v-536q0 -29 -29 -29h-243q-29 0 -29 29z" />
<glyph unicode="g" horiz-adv-x="1163" d="M254 193v1048h2q-4 29 20 53l115 115q10 10 23.5 16.5t21.5 6.5h8h531h4q26 0 49 -23l115 -115q10 -10 16 -23.5t6 -21.5v-8h-2l2 -2v-217q0 -10 -9 -19.5t-21 -9.5h-242q-12 0 -20.5 9.5t-8.5 19.5v53q0 8 -6 15l-35 34q-4 6 -14 6h-199q-8 0 -14 -6l-33 -34 q-8 -6 -8 -15v-731q6 -12 8 -14l27 -29h239l29 29q6 10 6 14v180h-135q-12 0 -20.5 9.5t-8.5 19.5v244q0 29 29 28h406q31 0 30 -28v-623h-2q-4 -20 -20 -37l-115 -114q-10 -10 -23.5 -16.5t-21.5 -6.5h-8h-531h-4q-26 0 -49 23l-115 114q-10 10 -15 23.5t-5 21.5v8z" />
<glyph unicode="h" horiz-adv-x="1163" d="M254 29v1374q0 29 29 29h243q10 0 19.5 -8.5t9.5 -20.5v-537h307v537q0 12 9.5 20.5t19.5 8.5h244q29 0 28 -29v-1374q0 -29 -28 -29h-244q-10 0 -19.5 8t-9.5 21v536h-307v-536q0 -12 -9 -20.5t-20 -8.5h-243q-29 0 -29 29z" />
<glyph unicode="i" horiz-adv-x="544" d="M244 29v1368q0 29 28 28h244q29 0 29 -28v-1368q0 -29 -29 -29h-244q-28 0 -28 29z" />
<glyph unicode="j" horiz-adv-x="1253" d="M344 174v322q0 29 29 28h243q10 0 19.5 -8t9.5 -20v-152q0 -10 6 -14l29 -29h238l28 29q6 6 6 14v1059q4 23 29 22h244q25 0 28 -22v-1213q2 -29 -22 -53l-115 -117q-10 -10 -23.5 -15t-21.5 -5h-8h-531q-4 -1 -7 -1q-23 0 -44 21l-116 117q-14 14 -19 37h-2z" />
<glyph unicode="k" horiz-adv-x="1077" d="M176 29v1374q0 10 8.5 19.5t20.5 9.5h244q12 0 20 -9.5t8 -19.5v-449l303 449q20 29 37 29h309q12 0 26.5 -9.5t10.5 -19.5l-385 -539l389 -819l9 -16q2 -10 -8.5 -19.5t-22.5 -9.5h-273q-25 0 -36 29l-252 565l-107 -148v-417q0 -29 -28 -29h-244q-29 0 -29 29z" />
<glyph unicode="l" horiz-adv-x="1083" d="M258 29v1374h2q4 23 29 22h241q25 0 29 -22v-1102h549q12 0 21.5 -9t9.5 -20v-243q0 -29 -31 -29h-819q-31 0 -31 29z" />
<glyph unicode="m" horiz-adv-x="1216" d="M154 29l55 1368v6q4 12 12 18q2 0 4 2q4 0 6 2h261q20 0 30 -26l185 -791l22 -172l16 172l216 791q6 27 30 26h260q2 -2 6 -2l3 -2q10 -6 12 -18v-4q2 0 2 -2l53 -1368q0 -29 -29 -29h-241q-31 0 -31 29l-8 518l-158 -522q-12 -29 -37 -29h-164q-23 0 -38 29l-156 522 l-10 -518q0 -29 -29 -29h-244q-10 0 -19 8.5t-9 20.5z" />
<glyph unicode="n" horiz-adv-x="1198" d="M256 31v1374q0 29 29 29h305q23 0 28 -29h3l270 -791l4 -22v813q0 12 9 20.5t20 8.5h243q29 0 29 -29v-1374q0 -10 -8 -19.5t-21 -9.5h-323q-25 0 -37 29l-250 684v-684q0 -10 -9 -19.5t-20 -9.5h-243q-12 0 -20.5 9.5t-8.5 19.5z" />
<glyph unicode="o" horiz-adv-x="1163" d="M254 182v8v1051q-2 29 22 53l115 115q10 12 23.5 17.5t21.5 5.5h8h529q4 1 7 0q24 0 46 -23l117 -115q10 -10 15 -23.5t5 -21.5v-8v-1051q4 -29 -20 -53l-117 -114q-10 -10 -23.5 -16.5t-19.5 -6.5h-8h-531h-4q-26 0 -49 23l-115 114q-10 10 -16 23.5t-6 21.5zM555 344 q0 -4 6 -14l29 -29h237l29 29q6 6 6 14v731q2 8 -6 17l-33 32q-6 6 -14 6h-201q-8 0 -12 -6l-35 -32l-6 -17v-731z" />
<glyph unicode="p" horiz-adv-x="1126" d="M256 31v1374q0 29 29 29h651q4 1 8 0q24 0 45 -21l115 -117q10 -10 16 -23t6 -22v-8v-522l-2 -2h2q2 -29 -22 -53l-115 -117q-10 -10 -23.5 -15.5t-21.5 -5.5h-8h-379v-497q0 -10 -9 -19.5t-22 -9.5h-241q-12 0 -20.5 9.5t-8.5 19.5zM557 829h211h3l13 7l35 32l6 17v192 q0 8 -6 15l-35 34l-16 7h-211v-304z" />
<glyph unicode="q" horiz-adv-x="1167" d="M258 182v8v1051q-2 29 23 53l114 115q10 12 23.5 17.5t21.5 5.5h9h528q4 1 7 0q24 0 46 -23l117 -115q10 -10 15 -23.5t5 -21.5v-8v-1051q4 -29 -20 -53l-43 -43l78 -186l6 -12q2 -10 -7.5 -19.5t-21.5 -9.5h-274q-25 0 -37 29l-45 104h-354q-29 -2 -54 23l-114 114 q-10 10 -16.5 23.5t-6.5 21.5zM559 346q0 -8 6 -16l29 -29h237l29 29l6 16v729q2 8 -6 17l-33 32q-6 6 -14 6h-201q-8 0 -12 -6l-35 -32l-6 -17v-729z" />
<glyph unicode="r" horiz-adv-x="1130" d="M256 29v1374q0 12 9 20.5t20 8.5h651q4 1 8 0q24 0 45 -21l117 -117q10 -10 15 -24.5t5 -24.5v-8v-520q4 -29 -20 -53l-117 -117l-6 -4l209 -514q2 -10 -7 -19.5t-22 -9.5h-274q-25 0 -37 29l-201 497h-94v-497q0 -10 -8 -19.5t-21 -9.5h-243q-10 0 -19.5 9.5t-9.5 19.5z M557 827h215q8 0 14 7l33 32l6 17v192q2 8 -6 17l-33 32l-16 6h-213v-303z" />
<glyph unicode="s" horiz-adv-x="1159" d="M248 195v198q0 29 31 29h241q29 0 29 -29v-92h258q4 0 10 6l35 33l6 16v154q0 8 -6 16l-35 33q-6 6 -10 6h-369q-29 -2 -53 23l-115 114q-10 10 -15 23.5t-5 22.5v8h-2v485h2q-4 29 20 53l115 115q10 12 23.5 17.5t21.5 5.5h8h531q4 1 7 0q24 0 46 -23l115 -115 q10 -10 16 -23.5t6 -21.5v-8h-2l2 -2v-211q0 -29 -31 -29h-241q-29 0 -29 29v102h-254q-8 0 -14 -6l-33 -32l-8 -17v-166l2 2q-2 -8 6 -16l29 -29h383q29 4 53 -22l115 -115q10 -10 16 -23.5t6 -21.5v-8v-486q2 -29 -22 -53l-115 -114q-10 -10 -23.5 -16.5t-21.5 -6.5h-8 h-531h-4q-26 0 -49 23l-115 114q-10 10 -15 23.5t-5 21.5v8q-2 3 -2 5z" />
<glyph unicode="t" horiz-adv-x="983" d="M176 1155v242q0 12 9.5 21t21.5 9h819q12 0 21.5 -9t9.5 -21v-242q0 -29 -31 -29h-260v-1101q-4 -25 -29 -25h-241q-25 0 -29 25v1101h-260q-31 0 -31 29z" />
<glyph unicode="u" horiz-adv-x="1173" d="M254 182v8h2q0 2 -1 2.5t-1 2.5v1208q0 12 9 20.5t20 8.5h243q29 0 29 -29v-1059q0 -4 6 -14l29 -29h237l29 29q4 4 6 10l2 4v1059q0 29 29 29h242q29 0 28 -29v-1213q4 -29 -20 -53l-115 -114q-10 -10 -23.5 -16.5t-21.5 -6.5h-8l-531 2q-29 -4 -53 21l-115 114 q-10 10 -16 23.5t-6 21.5z" />
<glyph unicode="v" horiz-adv-x="1118" d="M160 1397q-2 4 -3 8q0 7 6 15q9 13 21 14h256q20 0 31 -29l184 -791l17 -120l20 120l217 791q6 29 31 29h256q12 0 21 -14q5 -9 5 -16q0 -4 -1 -7l-357 -1364q-12 -31 -39 -31h-272q-25 0 -37 31z" />
<glyph unicode="w" horiz-adv-x="1208" d="M135 1399q0 10 8.5 19t20.5 9h242q12 0 21 -9t9 -19l49 -697l117 318q12 29 37 29h164q23 0 39 -29l114 -318l52 697q0 10 8 19t20 9h244q10 0 19.5 -9t9.5 -19l-111 -1368v-6q-2 -12 -12 -19q-2 0 -2 -1t-2 -1q-2 -2 -6 -2q-2 -2 -5 -2h-256q-23 0 -28 29l-144 516 l-14 102l-12 -102l-160 -516q-10 -29 -31 -29h-256h-2l-2 2l-2 2h-4l-2 2q-12 6 -12 19l-2 2v4z" />
<glyph unicode="x" horiz-adv-x="1077" d="M164 31q4 12 8 16l350 721l-313 627q-4 4 -4 8q-4 10 6 19.5t22 9.5h256q16 0 31 -29l172 -307l174 307q14 29 31 29h256q12 0 22.5 -9.5t6.5 -19.5q0 -4 -4 -8l-314 -627l350 -721q4 -4 9 -16q1 -4 1 -7q0 -8 -7 -15q-10 -9 -23 -9h-262q-27 0 -39 31l-201 397 l-198 -397q-12 -31 -39 -31h-262q-12 0 -23 9q-7 7 -7 15q0 3 1 7z" />
<glyph unicode="y" horiz-adv-x="1081" d="M150 1395q-1 3 -2 5q0 7 8 14q10 9 22 9h264q25 0 37 -28l201 -400l199 400q16 29 39 28h262q12 0 22 -9t8 -19q-8 -16 -10 -19l-371 -719v-628q0 -29 -28 -29h-244q-10 0 -19.5 8t-9.5 21v628l-370 719q-6 15 -8 19z" />
<glyph unicode="z" horiz-adv-x="1136" d="M252 31v243q0 12 6 21l492 835h-469q-10 0 -19.5 8.5t-9.5 20.5v244q0 12 9 20.5t20 8.5h821q29 0 28 -29v-244q0 -14 -8 -20l-495 -838h475q29 0 28 -29v-241q0 -31 -28 -31h-821q-10 0 -19.5 9.5t-9.5 21.5z" />
<glyph unicode="|" d="M496 -242v1585q0 29 28 29h244q10 0 19.5 -8t9.5 -21v-1585q0 -12 -9.5 -20t-19.5 -8h-244q-28 -1 -28 28z" />
<glyph unicode="&#xa0;" />
<glyph unicode="&#xaa;" horiz-adv-x="1198" d="M141 29l406 1372v2q12 29 28 29h91h63h90q18 0 29 -29v-2q68 -229 203 -686q30 -102 86.5 -262.5t86.5 -262.5t30 -165q0 -8 -9 -16q-10 -9 -22 -9h-234q-25 0 -37 29l-49 166h-411l-50 -166q-12 -29 -36 -29h-234q-12 0 -22.5 9.5t-8.5 19.5zM573 471h248l-123 420z" />
<glyph unicode="&#xad;" horiz-adv-x="1054" d="M334 432v244q0 29 28 29h668q25 -4 25 -29v-244q0 -23 -25 -26v-3h-668q-12 0 -20 9.5t-8 19.5z" />
<glyph unicode="&#xb2;" horiz-adv-x="1226" d="M313 29v606q-2 29 23 53l115 115q10 10 23 15t22 5h8h383l28 29l7 16v205q2 8 -7 17l-32 32q-8 8 -15 8h-254v-104q0 -29 -28 -29h-244q-29 0 -29 29v215q-2 29 23 53l115 115q10 10 23 15.5t22 5.5h8l530 2v-2q27 4 53 -21l115 -115q10 -10 15.5 -23.5t5.5 -21.5v-8 v-528q4 -29 -21 -54l-117 -114q-23 -25 -51 -21h-368l-11 -6l-34 -35l-7 -14v-168h580q29 0 29 -31v-241q0 -29 -29 -29h-852q-29 0 -29 29z" />
<glyph unicode="&#xb3;" horiz-adv-x="1247" d="M371 182v8h2q-2 2 -2 5v211q0 12 9 20t19 8h244q29 0 29 -28v-103h258l28 27q6 10 7 14v166q0 8 -7 16l-34 33q-2 2 -15 8h-213v299h234l28 29q6 10 7 14v166q0 8 -7 17l-34 32q-2 2 -15 9h-237v-105q0 -29 -29 -29h-244q-10 0 -19 8.5t-9 20.5v211q0 2 2 4h-2 q-2 29 22 53l115 115q10 10 23.5 15.5t21.5 5.5h8h514q29 4 53 -21l115 -115q10 -10 16.5 -23t6.5 -22v-8v-407q0 -33 -23 -54l-80 -82l80 -82q23 -18 23 -36v-392q2 -29 -23 -53l-115 -114q-10 -10 -23 -15.5t-22 -5.5h-8h-514q-29 -4 -53 21l-115 114q-10 10 -16 23.5 t-6 21.5z" />
<glyph unicode="&#xb9;" horiz-adv-x="694" d="M236 1163l96 236q10 25 28 26h277h4q2 -2 4 -2l12 -6l5 -4l6 -12v-4v-242v-4v-1122q0 -29 -31 -29h-242q-29 0 -28 29v1095h-115v2q-32 4 -16 37z" />
<glyph unicode="&#xba;" horiz-adv-x="1163" d="M254 182v8v1051q-2 29 22 53l115 115q10 12 23.5 17.5t21.5 5.5h8h529q4 1 7 0q24 0 46 -23l117 -115q10 -10 15 -23.5t5 -21.5v-8v-1051q4 -29 -20 -53l-117 -114q-10 -10 -23.5 -16.5t-19.5 -6.5h-8h-531h-4q-26 0 -49 23l-115 114q-10 10 -16 23.5t-6 21.5zM555 344 q0 -4 6 -14l29 -29h237l29 29q6 6 6 14v731q2 8 -6 17l-33 32q-6 6 -14 6h-201q-8 0 -12 -6l-35 -32l-6 -17v-731z" />
<glyph unicode="&#xbc;" horiz-adv-x="2846" d="M1886 547v8h2q-2 2 -2 4v838q0 10 9 19t22 9h241q12 0 20.5 -9t8.5 -19v-688q0 -4 6 -15l29 -28h213v731q0 29 28 28h244q10 0 19.5 -8t9.5 -20v-731h106q10 0 19.5 -8.5t9.5 -20.5v-244q0 -10 -9 -19t-20 -9h-106v-336q0 -12 -9.5 -20.5t-19.5 -8.5h-244q-29 0 -28 29 v336h-359q-29 -2 -53 22l-115 115q-10 10 -16 23.5t-6 21.5zM1022 29l450 1374q0 29 29 29h244q10 0 19 -8.5t9 -20.5l-450 -1374q0 -12 -9.5 -20.5t-19.5 -8.5h-244q-28 0 -28 29zM236 1163l96 236q10 25 28 26h277h4q2 -2 4 -2l12 -6l5 -4l6 -12v-4v-242v-4v-1122 q0 -29 -31 -29h-242q-29 0 -28 29v1095h-115v2q-32 4 -16 37z" />
<glyph unicode="&#xbd;" horiz-adv-x="2945" d="M2031 29v606q-2 29 23 53l115 115q10 10 23 15t22 5h8h383l28 29l7 16v205q2 8 -7 17l-32 32q-8 8 -15 8h-254v-104q0 -29 -28 -29h-244q-29 0 -29 29v215q-2 29 23 53l115 115q10 10 23 15.5t22 5.5h8l530 2v-2q27 4 53 -21l115 -115q10 -10 15.5 -23.5t5.5 -21.5v-8 v-528q4 -29 -21 -54l-117 -114q-23 -25 -51 -21h-368l-11 -6l-34 -35l-7 -14v-168h580q29 0 29 -31v-241q0 -29 -29 -29h-852q-29 0 -29 29zM1022 29l450 1374q0 29 29 29h244q10 0 19 -8.5t9 -20.5l-450 -1374q0 -12 -9.5 -20.5t-19.5 -8.5h-244q-28 0 -28 29zM236 1163 l96 236q10 25 28 26h277h4q2 -2 4 -2l12 -6l5 -4l6 -12v-4v-242v-4v-1122q0 -29 -31 -29h-242q-29 0 -28 29v1095h-115v2q-32 4 -16 37z" />
<glyph unicode="&#xbe;" horiz-adv-x="3399" d="M2439 547v8h2q-2 2 -2 4v838q0 10 9 19t22 9h241q12 0 20.5 -9t8.5 -19v-688q0 -4 6 -15l29 -28h213v731q0 29 28 28h244q10 0 19.5 -8t9.5 -20v-731h106q10 0 19.5 -8.5t9.5 -20.5v-244q0 -10 -9 -19t-20 -9h-106v-336q0 -12 -9.5 -20.5t-19.5 -8.5h-244q-29 0 -28 29 v336h-359q-29 -2 -53 22l-115 115q-10 10 -16 23.5t-6 21.5zM1575 29l450 1374q0 29 29 29h244q10 0 19 -8.5t9 -20.5l-450 -1374q0 -12 -9.5 -20.5t-19.5 -8.5h-244q-28 0 -28 29zM371 182v8h2q-2 2 -2 5v211q0 12 9 20t19 8h244q29 0 29 -28v-103h258l28 27q6 10 7 14v166 q0 8 -7 16l-34 33q-2 2 -15 8h-213v299h234l28 29q6 10 7 14v166q0 8 -7 17l-34 32q-2 2 -15 9h-237v-105q0 -29 -29 -29h-244q-10 0 -19 8.5t-9 20.5v211q0 2 2 4h-2q-2 29 22 53l115 115q10 10 23.5 15.5t21.5 5.5h8h514q29 4 53 -21l115 -115q10 -10 16.5 -23t6.5 -22v-8 v-407q0 -33 -23 -54l-80 -82l80 -82q23 -18 23 -36v-392q2 -29 -23 -53l-115 -114q-10 -10 -23 -15.5t-22 -5.5h-8h-514q-29 -4 -53 21l-115 114q-10 10 -16 23.5t-6 21.5z" />
<glyph unicode="&#xc2;" horiz-adv-x="1198" d="M168 1583q4 14 8 18l351 719q10 25 34 25h273q12 0 20.5 -6.5t12.5 -12.5l2 -6l350 -719q4 -4 8 -18q4 -10 -6 -19.5t-23 -9.5h-262q-27 0 -39 29l-200 399l-199 -399q-12 -29 -39 -29h-262q-12 0 -22.5 9.5t-6.5 19.5zM141 29l406 1372v2q12 29 28 29h91h63h90 q18 0 29 -29v-2q68 -229 203 -686q30 -102 86.5 -262.5t86.5 -262.5t30 -165q0 -8 -9 -16q-10 -9 -22 -9h-234q-25 0 -37 29l-49 166h-411l-50 -166q-12 -29 -36 -29h-234q-12 0 -22.5 9.5t-8.5 19.5zM573 471h248l-123 420z" />
<glyph unicode="&#xca;" horiz-adv-x="1064" d="M131 1583q4 14 8 18l351 719q10 25 34 25h273q12 0 20.5 -6.5t12.5 -12.5l2 -6l350 -719q4 -4 8 -18q4 -10 -6 -19.5t-23 -9.5h-262q-27 0 -39 29l-200 399l-199 -399q-12 -29 -39 -29h-262q-12 0 -22.5 9.5t-6.5 19.5zM258 29v1374q0 29 29 29h745q10 0 19.5 -8.5 t9.5 -20.5v-244q0 -12 -9.5 -20.5t-19.5 -8.5h-473v-264h363q29 0 28 -28v-244q0 -29 -28 -29h-363v-264h473q10 0 19.5 -8t9.5 -21v-243q0 -12 -9.5 -20.5t-19.5 -8.5h-745q-29 0 -29 29z" />
<glyph unicode="&#xce;" horiz-adv-x="544" d="M-135 1583q4 14 8 18l351 719q10 25 34 25h273q12 0 20.5 -6.5t12.5 -12.5l2 -6l350 -719q4 -4 8 -18q4 -10 -6 -19.5t-23 -9.5h-262q-27 0 -39 29l-200 399l-199 -399q-12 -29 -39 -29h-262q-12 0 -22.5 9.5t-6.5 19.5zM244 29v1368q0 29 28 28h244q29 0 29 -28v-1368 q0 -29 -29 -29h-244q-28 0 -28 29z" />
<glyph unicode="&#xd4;" horiz-adv-x="1163" d="M450 1583q4 14 8 18l351 719q10 25 34 25h273q12 0 20.5 -6.5t12.5 -12.5l2 -6l350 -719q4 -4 8 -18q4 -10 -6 -19.5t-23 -9.5h-262q-27 0 -39 29l-200 399l-199 -399q-12 -29 -39 -29h-262q-12 0 -22.5 9.5t-6.5 19.5zM254 182v8v1051q-2 29 22 53l115 115 q10 12 23.5 17.5t21.5 5.5h8h529q4 1 7 0q24 0 46 -23l117 -115q10 -10 15 -23.5t5 -21.5v-8v-1051q4 -29 -20 -53l-117 -114q-10 -10 -23.5 -16.5t-19.5 -6.5h-8h-531h-4q-26 0 -49 23l-115 114q-10 10 -16 23.5t-6 21.5zM555 344q0 -4 6 -14l29 -29h237l29 29q6 6 6 14 v731q2 8 -6 17l-33 32q-6 6 -14 6h-201q-8 0 -12 -6l-35 -32l-6 -17v-731z" />
<glyph unicode="&#xdb;" horiz-adv-x="1173" d="M180 1583q4 14 8 18l351 719q10 25 34 25h273q12 0 20.5 -6.5t12.5 -12.5l2 -6l350 -719q4 -4 8 -18q4 -10 -6 -19.5t-23 -9.5h-262q-27 0 -39 29l-200 399l-199 -399q-12 -29 -39 -29h-262q-12 0 -22.5 9.5t-6.5 19.5zM254 182v8h2q0 2 -1 2.5t-1 2.5v1208q0 12 9 20.5 t20 8.5h243q29 0 29 -29v-1059q0 -4 6 -14l29 -29h237l29 29q4 4 6 10l2 4v1059q0 29 29 29h242q29 0 28 -29v-1213q4 -29 -20 -53l-115 -114q-10 -10 -23.5 -16.5t-21.5 -6.5h-8l-531 2q-29 -4 -53 21l-115 114q-10 10 -16 23.5t-6 21.5z" />
<glyph unicode="&#xe2;" horiz-adv-x="1198" d="M168 1583q4 14 8 18l351 719q10 25 34 25h273q12 0 20.5 -6.5t12.5 -12.5l2 -6l350 -719q4 -4 8 -18q4 -10 -6 -19.5t-23 -9.5h-262q-27 0 -39 29l-200 399l-199 -399q-12 -29 -39 -29h-262q-12 0 -22.5 9.5t-6.5 19.5zM141 29l406 1372v2q12 29 28 29h91h63h90 q18 0 29 -29v-2q68 -229 203 -686q30 -102 86.5 -262.5t86.5 -262.5t30 -165q0 -8 -9 -16q-10 -9 -22 -9h-234q-25 0 -37 29l-49 166h-411l-50 -166q-12 -29 -36 -29h-234q-12 0 -22.5 9.5t-8.5 19.5zM573 471h248l-123 420z" />
<glyph unicode="&#xea;" horiz-adv-x="1064" d="M131 1583q4 14 8 18l351 719q10 25 34 25h273q12 0 20.5 -6.5t12.5 -12.5l2 -6l350 -719q4 -4 8 -18q4 -10 -6 -19.5t-23 -9.5h-262q-27 0 -39 29l-200 399l-199 -399q-12 -29 -39 -29h-262q-12 0 -22.5 9.5t-6.5 19.5zM258 29v1374q0 29 29 29h745q10 0 19.5 -8.5 t9.5 -20.5v-244q0 -12 -9.5 -20.5t-19.5 -8.5h-473v-264h363q29 0 28 -28v-244q0 -29 -28 -29h-363v-264h473q10 0 19.5 -8t9.5 -21v-243q0 -12 -9.5 -20.5t-19.5 -8.5h-745q-29 0 -29 29z" />
<glyph unicode="&#xee;" horiz-adv-x="544" d="M-135 1583q4 14 8 18l351 719q10 25 34 25h273q12 0 20.5 -6.5t12.5 -12.5l2 -6l350 -719q4 -4 8 -18q4 -10 -6 -19.5t-23 -9.5h-262q-27 0 -39 29l-200 399l-199 -399q-12 -29 -39 -29h-262q-12 0 -22.5 9.5t-6.5 19.5zM244 29v1368q0 29 28 28h244q29 0 29 -28v-1368 q0 -29 -29 -29h-244q-28 0 -28 29z" />
<glyph unicode="&#xf4;" horiz-adv-x="1163" d="M450 1583q4 14 8 18l351 719q10 25 34 25h273q12 0 20.5 -6.5t12.5 -12.5l2 -6l350 -719q4 -4 8 -18q4 -10 -6 -19.5t-23 -9.5h-262q-27 0 -39 29l-200 399l-199 -399q-12 -29 -39 -29h-262q-12 0 -22.5 9.5t-6.5 19.5zM254 182v8v1051q-2 29 22 53l115 115 q10 12 23.5 17.5t21.5 5.5h8h529q4 1 7 0q24 0 46 -23l117 -115q10 -10 15 -23.5t5 -21.5v-8v-1051q4 -29 -20 -53l-117 -114q-10 -10 -23.5 -16.5t-19.5 -6.5h-8h-531h-4q-26 0 -49 23l-115 114q-10 10 -16 23.5t-6 21.5zM555 344q0 -4 6 -14l29 -29h237l29 29q6 6 6 14 v731q2 8 -6 17l-33 32q-6 6 -14 6h-201q-8 0 -12 -6l-35 -32l-6 -17v-731z" />
<glyph unicode="&#xfb;" horiz-adv-x="1173" d="M180 1583q4 14 8 18l351 719q10 25 34 25h273q12 0 20.5 -6.5t12.5 -12.5l2 -6l350 -719q4 -4 8 -18q4 -10 -6 -19.5t-23 -9.5h-262q-27 0 -39 29l-200 399l-199 -399q-12 -29 -39 -29h-262q-12 0 -22.5 9.5t-6.5 19.5zM254 182v8h2q0 2 -1 2.5t-1 2.5v1208q0 12 9 20.5 t20 8.5h243q29 0 29 -29v-1059q0 -4 6 -14l29 -29h237l29 29q4 4 6 10l2 4v1059q0 29 29 29h242q29 0 28 -29v-1213q4 -29 -20 -53l-115 -114q-10 -10 -23.5 -16.5t-21.5 -6.5h-8l-531 2q-29 -4 -53 21l-115 114q-10 10 -16 23.5t-6 21.5z" />
<glyph unicode="&#x152;" horiz-adv-x="2228" d="M1421 29v1374q0 29 29 29h745q10 0 19.5 -8.5t9.5 -20.5v-244q0 -12 -9.5 -20.5t-19.5 -8.5h-473v-264h363q29 0 28 -28v-244q0 -29 -28 -29h-363v-264h473q10 0 19.5 -8t9.5 -21v-243q0 -12 -9.5 -20.5t-19.5 -8.5h-745q-29 0 -29 29zM254 182v8v1051q-2 29 22 53 l115 115q10 12 23.5 17.5t21.5 5.5h8h529q4 1 7 0q24 0 46 -23l117 -115q10 -10 15 -23.5t5 -21.5v-8v-1051q4 -29 -20 -53l-117 -114q-10 -10 -23.5 -16.5t-19.5 -6.5h-8h-531h-4q-26 0 -49 23l-115 114q-10 10 -16 23.5t-6 21.5zM555 344q0 -4 6 -14l29 -29h237l29 29 q6 6 6 14v731q2 8 -6 17l-33 32q-6 6 -14 6h-201q-8 0 -12 -6l-35 -32l-6 -17v-731z" />
<glyph unicode="&#x153;" horiz-adv-x="2228" d="M1421 29v1374q0 29 29 29h745q10 0 19.5 -8.5t9.5 -20.5v-244q0 -12 -9.5 -20.5t-19.5 -8.5h-473v-264h363q29 0 28 -28v-244q0 -29 -28 -29h-363v-264h473q10 0 19.5 -8t9.5 -21v-243q0 -12 -9.5 -20.5t-19.5 -8.5h-745q-29 0 -29 29zM254 182v8v1051q-2 29 22 53 l115 115q10 12 23.5 17.5t21.5 5.5h8h529q4 1 7 0q24 0 46 -23l117 -115q10 -10 15 -23.5t5 -21.5v-8v-1051q4 -29 -20 -53l-117 -114q-10 -10 -23.5 -16.5t-19.5 -6.5h-8h-531h-4q-26 0 -49 23l-115 114q-10 10 -16 23.5t-6 21.5zM555 344q0 -4 6 -14l29 -29h237l29 29 q6 6 6 14v731q2 8 -6 17l-33 32q-6 6 -14 6h-201q-8 0 -12 -6l-35 -32l-6 -17v-731z" />
<glyph unicode="&#x2c6;" d="M96 676q4 14 8 18l351 719q10 25 34 25h273q12 0 20.5 -6.5t12.5 -12.5l2 -6l350 -719q4 -4 8 -18q4 -10 -6 -19.5t-23 -9.5h-262q-27 0 -39 29l-200 399l-199 -399q-12 -29 -39 -29h-262q-12 0 -22.5 9.5t-6.5 19.5z" />
<glyph unicode="&#x2000;" horiz-adv-x="1171" />
<glyph unicode="&#x2001;" horiz-adv-x="2344" />
<glyph unicode="&#x2002;" horiz-adv-x="1171" />
<glyph unicode="&#x2003;" horiz-adv-x="2344" />
<glyph unicode="&#x2004;" horiz-adv-x="780" />
<glyph unicode="&#x2005;" horiz-adv-x="585" />
<glyph unicode="&#x2006;" horiz-adv-x="389" />
<glyph unicode="&#x2007;" horiz-adv-x="389" />
<glyph unicode="&#x2008;" horiz-adv-x="292" />
<glyph unicode="&#x2009;" horiz-adv-x="468" />
<glyph unicode="&#x200a;" horiz-adv-x="129" />
<glyph unicode="&#x2010;" horiz-adv-x="1054" d="M334 432v244q0 29 28 29h668q25 -4 25 -29v-244q0 -23 -25 -26v-3h-668q-12 0 -20 9.5t-8 19.5z" />
<glyph unicode="&#x2011;" horiz-adv-x="1054" d="M334 432v244q0 29 28 29h668q25 -4 25 -29v-244q0 -23 -25 -26v-3h-668q-12 0 -20 9.5t-8 19.5z" />
<glyph unicode="&#x2012;" horiz-adv-x="1054" d="M334 432v244q0 29 28 29h668q25 -4 25 -29v-244q0 -23 -25 -26v-3h-668q-12 0 -20 9.5t-8 19.5z" />
<glyph unicode="&#x2013;" d="M176 436v244q0 29 29 29h872q25 -4 25 -29v-244q0 -23 -25 -26v-2h-872q-12 0 -20.5 9t-8.5 19z" />
<glyph unicode="&#x2014;" d="M0 436v244q0 29 29 29h1212q25 -4 25 -29v-244q0 -23 -25 -26v-2h-1212q-12 0 -20.5 9t-8.5 19z" />
<glyph unicode="&#x2018;" d="M535 1126v277q0 29 30 29h242q29 0 29 -29v-387q-8 -31 -37 -17l-236 97q-27 12 -26 30h-2z" />
<glyph unicode="&#x2019;" d="M535 1018v387q0 29 28 29h242q31 0 31 -29v-277h-2q0 -18 -27 -30l-236 -97q-33 -14 -36 19v-2z" />
<glyph unicode="&#x201c;" d="M338 1126v277q0 29 31 29h241q29 0 29 -29v-387q-8 -31 -37 -17l-235 97q-27 12 -27 30h-2zM715 1126v277q0 29 28 29h244q29 0 29 -29v-385q-4 -33 -39 -19l-234 97q-26 10 -28 30z" />
<glyph unicode="&#x201d;" d="M326 1018v387q0 29 28 29h242q31 0 31 -29v-277h-2q0 -18 -27 -30l-236 -97q-32 -14 -36 17zM700 1018v387q0 12 9.5 20.5t19.5 8.5h244q29 0 28 -29v-277q-2 -20 -26 -30l-236 -97q-37 -14 -37 19z" />
<glyph unicode="&#x2022;" d="M338 387v541q0 25 17.5 42t41.5 17h500q25 0 42 -17.5t17 -41.5v-541h-2q-4 -23 -20 -37t-37 -14h-500q-49 0 -57 51h-2z" />
<glyph unicode="&#x2026;" horiz-adv-x="3072" d="M2583 29v276q0 29 28 29h242q29 0 29 -29v-276q-4 -25 -29 -25h-242q-24 0 -28 25zM1559 29v276q0 29 28 29h242q29 0 29 -29v-276q-4 -25 -29 -25h-242q-24 0 -28 25zM535 29v276q0 29 28 29h242q29 0 29 -29v-276q-4 -25 -29 -25h-242q-24 0 -28 25z" />
<glyph unicode="&#x202f;" horiz-adv-x="468" />
<glyph unicode="&#x2039;" horiz-adv-x="1103" d="M309 510v272q0 25 25 35l719 352q14 6 18 9q10 2 19.5 -7.5t9.5 -21.5v-264q0 -25 -29 -37l-399 -201l399 -201q29 -12 29 -36v-265q0 -12 -9.5 -21t-19.5 -7t-18 10l-719 350q-25 6 -25 33z" />
<glyph unicode="&#x203a;" horiz-adv-x="1136" d="M342 141v265q0 25 29 36l397 201l-397 201q-29 12 -29 37v264q0 12 8 21.5t21 7.5l10 -6q6 -3 8 -3l719 -352q25 -10 25 -35v-272l-25 -33l-719 -350q-14 -8 -18 -10q-12 -2 -20.5 7t-8.5 21z" />
<glyph unicode="&#x2044;" d="M328 29l450 1374q0 29 29 29h244q10 0 19 -8.5t9 -20.5l-450 -1374q0 -12 -9.5 -20.5t-19.5 -8.5h-244q-28 0 -28 29z" />
<glyph unicode="&#x205f;" horiz-adv-x="585" />
<glyph unicode="&#x2122;" horiz-adv-x="2199" d="M1137 29l55 1368v6q4 12 12 18q2 0 4 2q4 0 6 2h261q20 0 30 -26l185 -791l22 -172l16 172l216 791q6 27 30 26h260q2 -2 6 -2l3 -2q10 -6 12 -18v-4q2 0 2 -2l53 -1368q0 -29 -29 -29h-241q-31 0 -31 29l-8 518l-158 -522q-12 -29 -37 -29h-164q-23 0 -38 29l-156 522 l-10 -518q0 -29 -29 -29h-244q-10 0 -19 8.5t-9 20.5zM176 1155v242q0 12 9.5 21t21.5 9h819q12 0 21.5 -9t9.5 -21v-242q0 -29 -31 -29h-260v-1101q-4 -25 -29 -25h-241q-25 0 -29 25v1101h-260q-31 0 -31 29z" />
<glyph unicode="&#xe000;" horiz-adv-x="1430" d="M0 1430h1430v-1430h-1430v1430z" />
<glyph unicode="&#xfb01;" horiz-adv-x="1605" d="M1305 29v1368q0 29 28 28h244q29 0 29 -28v-1368q0 -29 -29 -29h-244q-28 0 -28 29zM254 29v1374q0 29 29 29h745q10 0 19.5 -8.5t9.5 -20.5v-244q0 -18 -17 -24v-5h-485v-264h363q29 0 28 -28v-244q0 -16 -14 -25v-4h-377v-536q0 -29 -29 -29h-243q-29 0 -29 29z" />
<glyph unicode="&#xfb02;" horiz-adv-x="2144" d="M1319 29v1374h2q4 23 29 22h241q25 0 29 -22v-1102h549q12 0 21.5 -9t9.5 -20v-243q0 -29 -31 -29h-819q-31 0 -31 29zM254 29v1374q0 29 29 29h745q10 0 19.5 -8.5t9.5 -20.5v-244q0 -18 -17 -24v-5h-485v-264h363q29 0 28 -28v-244q0 -16 -14 -25v-4h-377v-536 q0 -29 -29 -29h-243q-29 0 -29 29z" />
<glyph unicode="&#xfb03;" horiz-adv-x="2666" d="M2366 29v1368q0 29 28 28h244q29 0 29 -28v-1368q0 -29 -29 -29h-244q-28 0 -28 29zM1315 29v1374q0 29 29 29h745q10 0 19.5 -8.5t9.5 -20.5v-244q0 -18 -17 -24v-5h-485v-264h363q29 0 28 -28v-244q0 -16 -14 -25v-4h-377v-536q0 -29 -29 -29h-243q-29 0 -29 29z M254 29v1374q0 29 29 29h745q10 0 19.5 -8.5t9.5 -20.5v-244q0 -18 -17 -24v-5h-485v-264h363q29 0 28 -28v-244q0 -16 -14 -25v-4h-377v-536q0 -29 -29 -29h-243q-29 0 -29 29z" />
<glyph unicode="&#xfb04;" horiz-adv-x="3205" d="M2380 29v1374h2q4 23 29 22h241q25 0 29 -22v-1102h549q12 0 21.5 -9t9.5 -20v-243q0 -29 -31 -29h-819q-31 0 -31 29zM1315 29v1374q0 29 29 29h745q10 0 19.5 -8.5t9.5 -20.5v-244q0 -18 -17 -24v-5h-485v-264h363q29 0 28 -28v-244q0 -16 -14 -25v-4h-377v-536 q0 -29 -29 -29h-243q-29 0 -29 29zM254 29v1374q0 29 29 29h745q10 0 19.5 -8.5t9.5 -20.5v-244q0 -18 -17 -24v-5h-485v-264h363q29 0 28 -28v-244q0 -16 -14 -25v-4h-377v-536q0 -29 -29 -29h-243q-29 0 -29 29z" />
</font>
</defs>
</svg>
