<?xml version="1.0" standalone="no"?>
<!DOCTYPE svg PUBLIC "-//W3C//DTD SVG 1.1//EN" "http://www.w3.org/Graphics/SVG/1.1/DTD/svg11.dtd" >
<svg xmlns="http://www.w3.org/2000/svg">
<metadata>
This is a custom SVG webfont generated by Font Squirrel.
Copyright   : Copyright 1994 NovelFonts Corporation
</metadata>
<defs>
<font id="SpoletoRegular" horiz-adv-x="1067" >
<font-face units-per-em="2048" ascent="1638" descent="-410" />
<missing-glyph horiz-adv-x="387" />
<glyph unicode=" "  horiz-adv-x="387" />
<glyph unicode="&#x09;" horiz-adv-x="387" />
<glyph unicode="&#xa0;" horiz-adv-x="387" />
<glyph unicode="!" horiz-adv-x="591" d="M141 61q0 68 53.5 130.5t118.5 62.5q33 0 55.5 -23.5t22.5 -54.5q0 -72 -47 -133q-51 -68 -119 -68q-33 0 -58.5 27.5t-25.5 58.5zM293 309q4 10 149 357q96 238 295 706q35 80 109 80q129 0 129 -33q0 -23 -78 -168l-475 -886q-25 -45 -27 -50q-14 -16 -49 -16h-35z" />
<glyph unicode="&#x22;" horiz-adv-x="589" d="M453 1298q0 102 73 103q74 0 74 -123q0 -90 -18 -221l-33 -221h-37q-18 117 -37 231q-22 139 -22 231zM659 1298q0 104 74 105q76 0 76 -123q0 -90 -21 -223l-32 -221h-37q-18 117 -37 231q-23 139 -23 231z" />
<glyph unicode="#" horiz-adv-x="1763" d="M-4 516q0 57 67 66l365 49q35 74 111 219l-363 -35q-18 0 -18 12q0 63 184 91l246 20q82 133 256 395q51 74 59 80q25 18 96 19h91q49 0 49 -21q0 -6 -146 -211q-162 -227 -172 -244q63 4 127 5q61 0 125 -5q98 145 135 199q80 111 152 186q43 47 119 48q129 0 129 -19 q0 -10 -148 -196q-162 -207 -174 -224q246 -4 363 -39l10 -10q-12 -27 -41 -48.5t-57 -21.5q-29 0 -328 29q-59 -78 -121 -196q139 -14 191 -21q106 -16 184 -43q4 -8 4 -10q0 -12 -35 -35t-49 -23l-29 7q-119 25 -323 41q-104 -174 -236 -461q-18 -49 -63 -137 q-27 -41 -68 -39l-51 2l-16 12q0 45 108 301q88 207 141 317q-131 0 -290 -10q-174 -295 -269 -495q-39 -84 -67 -84h-68l-14 10q2 61 225 547l-375 -37q-16 0 -16 10zM633 653q158 14 272 15q23 29 117 200h-137q-84 0 -127 -2q-23 -33 -125 -213z" />
<glyph unicode="$" horiz-adv-x="1234" d="M53 238q0 137 144 213q117 61 268 61q14 39 47 111q-115 20 -164 49q-72 47 -72 147q0 211 183.5 384t400.5 173q33 0 66 -4l41 70q29 39 65 39q39 0 39 -17q0 -2 -67 -114q139 -86 139 -203q0 -102 -53 -193q-63 -104 -160 -104q-35 0 -76 10q-55 16 -55 41 q0 18 70.5 119.5t70.5 153.5q0 25 -20 24q-41 0 -252 -453q156 -45 217 -98q84 -74 84 -217q0 -190 -163 -328.5t-357 -138.5q-51 0 -117 10q-35 -55 -68 -112q-51 -74 -94 -74q-45 0 -51 10q47 66 137 201q-80 33 -137 94q-66 72 -66 146zM219 221q0 -57 103 -96 q51 100 96 242l-19 2q-59 6 -119.5 -41.5t-60.5 -106.5zM401 115q135 6 237.5 97t102.5 224q0 109 -149 172q-33 -66 -53 -127q23 -27 22 -45q0 -55 -45 -55q-8 0 -16 2q-62 -180 -99 -268zM516 877q0 -72 70 -99q121 248 233 420q-90 -27 -192 -127q-111 -110 -111 -194z " />
<glyph unicode="%" horiz-adv-x="1593" d="M354 950q0 166 172 307q162 133 336 146q57 47 111 47q45 0 82 -28.5t45 -71.5q141 33 262 127q31 -16 74 -21q33 -2 84 0q63 4 77 4q41 0 45 -16q-4 -20 -90 -121q-55 -61 -110 -125q-311 -373 -733 -952q-59 -86 -183 -252q-33 -39 -69 -39q-86 0 -86 20q0 23 151 271 q119 193 412 579q281 371 405 584q-150 -88 -241 -125q-43 -199 -187 -354q-160 -172 -350 -172q-88 0 -147.5 53t-59.5 139zM500 987q0 -29 26.5 -51.5t55.5 -22.5q117 0 202 105q80 98 80 219v27q-2 18 -2 26q-111 -41 -221 -119q-141 -102 -141 -184zM784 160 q0 180 211 348q203 160 387 160q141 0 142 -156q0 -184 -169 -358t-356 -174q-82 0 -145 47q-70 53 -70 133zM944 205q0 -35 37 -55q29 -16 66 -17q109 0 190 115q74 106 74 217q0 14 -4 43q-113 -41 -222 -119q-141 -100 -141 -184z" />
<glyph unicode="&#x26;" horiz-adv-x="1126" d="M135 324q0 115 88 219q74 88 191 149q-86 57 -86 152q0 141 111.5 250.5t256.5 109.5q88 0 151.5 -49t63.5 -135q0 -152 -127 -152q-84 0 -84 35q0 20 33 54t33 59q0 41 -41 41q-68 0 -131.5 -86t-63.5 -156q0 -55 80 -55q16 0 48 3t47 3q37 0 36 -14q0 -66 -51 -80 q-152 -39 -184 -58q-63 -37 -129 -147q-51 -86 -51 -176q0 -82 50 -137.5t132 -55.5t153.5 56.5t71.5 136.5q0 2 -6 26q-82 -45 -125 -45q-31 0 -54.5 25t-23.5 55q0 80 82 136.5t170 56.5q27 0 47 -6q113 121 221 120q53 0 92.5 -28.5t39.5 -79.5q0 -55 -48 -70 q-8 25 -38.5 43.5t-55.5 18.5q-88 0 -131 -66q20 -41 21 -92q0 -172 -134.5 -281.5t-310.5 -109.5q-147 0 -245.5 92.5t-98.5 237.5z" />
<glyph unicode="'" horiz-adv-x="497" d="M401 1001q106 74 125 117q14 29 15 160q0 90 112 90q59 0 109 25q27 14 51 26l12 -12l-2 -6q-45 -137 -147 -264q-123 -154 -242 -154h-18z" />
<glyph unicode="(" horiz-adv-x="720" d="M182 -84q0 43 33 178q217 899 737 1342q51 43 107.5 51t116.5 12q-387 -344 -605 -860q-49 -119 -98 -295q-41 -152 -80 -301q-23 -82 -26 -90q-16 -29 -72.5 -54.5t-81.5 -25.5q-31 0 -31 43z" />
<glyph unicode=")" horiz-adv-x="808" d="M-10 -127q174 141 348 397q160 231 254 463q53 127 180 598q23 80 27 90q16 27 73 56q47 23 78 22q31 0 31 -45q0 -41 -33 -176q-217 -895 -737 -1339q-49 -41 -105 -54q-12 -2 -116 -12z" />
<glyph unicode="*" horiz-adv-x="794" d="M330 887q-2 98 20 137q20 31 74 39l127 20q-53 133 -53 146q0 25 51 84t76 59l12 -2q10 -18 28.5 -59t28.5 -62q111 156 170 156q14 0 66.5 -26.5t52.5 -37.5q0 -8 -65 -96q-76 -106 -78 -110q143 57 192 57l10 -16v-19q0 -90 -53 -123q-18 -12 -133 -45q84 -96 84 -104 q0 -16 -44 -63.5t-60 -47.5q-25 0 -136 103l-45 -136q-35 -104 -63 -104q-29 0 -80 16q-59 18 -59 41q0 14 28 97q33 98 35 108l-160 -25h-10z" />
<glyph unicode="+" horiz-adv-x="1062" d="M121 477q8 61 62.5 103.5t117.5 42.5q25 0 66 -7q49 -8 65 -10l117 197q20 33 31.5 43t44.5 12h61q76 0 76 -12q0 -20 -55 -125l-74 -131h22q51 0 115 16q57 12 113 27l10 -15q4 -106 -125 -147q-88 -27 -217 -20l-78 -152q-49 -94 -61 -109q-35 -39 -115 -38 q-68 0 -68 16q0 14 136 299q-55 10 -99 10q-20 0 -60 -7t-61 -7h-8z" />
<glyph unicode="," horiz-adv-x="542" d="M25 -139q111 74 129 114q12 29 12 162q0 88 113 88q57 0 108 27q25 12 51 27l13 -13v-8q-49 -137 -150 -262q-127 -154 -242 -154h-18z" />
<glyph unicode="-" horiz-adv-x="964" d="M205 518q0 49 59 92q53 41 105 41q41 0 121.5 -16.5t123.5 -16.5q51 0 123 17q104 23 123 24l8 -8q-2 -82 -66.5 -126t-148.5 -44q-61 0 -179 17.5t-177 17.5q-12 0 -38 -4t-38 -4q-16 0 -16 10z" />
<glyph unicode="." horiz-adv-x="485" d="M147 70q0 66 50.5 131t113.5 65q66 0 66 -67q0 -70 -41 -140q-47 -78 -113 -77q-31 0 -53.5 28.5t-22.5 59.5z" />
<glyph unicode="/" horiz-adv-x="751" d="M106 20q0 27 58 183q260 709 594 1165q51 72 108 90q37 12 148 12q39 0 39 -22q0 -4 -193 -301q-203 -313 -221 -346q-119 -199 -358 -697q-29 -59 -43 -73q-25 -25 -80 -25q-52 0 -52 14z" />
<glyph unicode="0" d="M254 168l190 1055l185 182h325l107 -168l-191 -1057l-182 -180h-328zM442 205h250l180 995h-249z" />
<glyph unicode="1" d="M530 0l207 1200h-133l25 141q154 68 286 68h17l-244 -1409h-158z" />
<glyph unicode="2" d="M197 0l94 518q145 90 428 356l94 93l41 233h-246l-30 -174h-185l35 197l184 182h328l107 -168l-68 -377l-522 -491l-29 -164h436l-37 -205h-630z" />
<glyph unicode="3" d="M244 168l41 229h182l-35 -192h248l72 393h-174l40 227h175l65 375h-246l-30 -174h-183l35 197l182 182h326l107 -168l-62 -342l-190 -178l125 -182l-64 -355l-182 -180h-328z" />
<glyph unicode="4" d="M172 512l596 893h215l-170 -934h107l-35 -197h-109l-49 -274h-184l51 274h-385zM324 479h307l119 649z" />
<glyph unicode="5" d="M268 168l43 240h181l-37 -203h250l75 432h-278l-117 178l107 590h528l-37 -205h-348l-62 -336h263l131 -202l-86 -482l-183 -180h-323z" />
<glyph unicode="6" d="M248 168l190 1055l185 182h327l105 -168l-41 -231h-183l33 194h-248l-67 -385h280l121 -160l-86 -475l-182 -180h-328zM438 205h248l68 387h-248z" />
<glyph unicode="7" d="M442 0l580 1200h-283l-26 -147h-187l64 352h721l-680 -1405h-189z" />
<glyph unicode="8" d="M242 168l67 379l174 162l-110 174l59 340l182 182h326l107 -168l-62 -338l-160 -174l99 -162l-68 -383l-182 -180h-328zM430 205h248l72 393h-248zM541 817h247l70 383h-248z" />
<glyph unicode="9" d="M240 168l41 231h182l-33 -194h246l67 385h-282l-117 160l86 475l182 180h326l106 -168l-190 -1055l-184 -182h-326zM541 813h245l68 387h-246z" />
<glyph unicode=":" horiz-adv-x="675" d="M145 72q0 72 49.5 133t118.5 61q27 0 48.5 -21.5t21.5 -49.5q0 -61 -49 -134q-51 -80 -111 -79q-33 0 -55.5 28.5t-22.5 61.5zM352 518q0 72 48.5 133.5t117.5 61.5q27 0 48.5 -21.5t21.5 -50.5q0 -61 -47 -133q-53 -80 -113 -80q-33 0 -54.5 27.5t-21.5 62.5z" />
<glyph unicode=";" horiz-adv-x="557" d="M39 -139l58 47q58 47 67 61q16 29 20 58q2 20 0 51q-4 43 -4 59q0 59 41 78q23 10 92 10q39 0 88 27q27 12 52 27l12 -13q10 -66 -129 -239q-147 -184 -256 -185q-41 1 -41 19zM285 518q0 70 49 132.5t119 62.5q27 0 48 -21.5t21 -50.5q0 -61 -47 -133q-53 -80 -113 -80 q-33 0 -55 27.5t-22 62.5z" />
<glyph unicode="&#x3c;" horiz-adv-x="1110" d="M199 483v207l843 311v-190l-645 -225l645 -226v-188z" />
<glyph unicode="=" horiz-adv-x="1136" d="M100 377q0 53 66 94q57 37 115 37q55 0 168.5 -16.5t171.5 -16.5q47 0 134 21.5t128 21.5l8 -8v-8q0 -86 -92 -131q-70 -33 -166 -33q-72 0 -211 19.5t-209 19.5q-16 0 -49 -6t-49 -6q-15 0 -15 12zM125 565q0 53 65 94q55 35 113 35q57 0 172 -15t172 -15q47 0 134 20.5 t128 20.5l9 -7v-8q0 -86 -91 -131q-70 -35 -163 -35q-72 0 -213.5 20.5t-210.5 20.5q-14 0 -43 -6t-43 -6q-29 0 -29 12z" />
<glyph unicode="&#x3e;" horiz-adv-x="1110" d="M221 172v188l645 226l-645 225v190l844 -311v-207z" />
<glyph unicode="?" horiz-adv-x="1097" d="M461 1116q0 160 141 250q121 76 291 76q156 0 270 -68q135 -82 135 -227q0 -109 -90 -238q-41 -57 -188 -219q-121 -133 -162 -213q-20 -39 -39 -80q-23 -33 -71 -55.5t-89 -28.5l-10 11q27 115 158 268q113 129 223 258q115 150 115 272q0 201 -246 201q-113 0 -190 -47 q-92 -57 -93 -160q0 -57 40 -82.5t40 -29.5q0 -23 -51 -45.5t-78 -22.5q-43 0 -78 72q-28 59 -28 108zM569 68q0 70 48.5 132t117.5 62q27 0 48.5 -21.5t21.5 -50.5q0 -61 -47 -133q-53 -80 -113 -80q-33 0 -54.5 28t-21.5 63z" />
<glyph unicode="@" horiz-adv-x="1853" d="M233 475q0 360 265 586q250 213 618 213q293 0 486 -148q211 -164 210 -446q0 -209 -106 -371q-125 -188 -324 -188q-182 0 -206 168q-106 -168 -273 -168q-133 0 -210 84t-77 217q0 186 123 338q131 164 314 164q156 0 213 -138l32 107h215l-90 -299q-61 -211 -61 -287 q0 -68 65 -67q133 0 218 151q72 129 71 275q0 250 -182 391q-166 127 -426 127q-307 0 -508 -214t-201 -521q0 -289 191 -463q182 -166 477 -166q279 0 557 170l47 -74q-311 -197 -657 -197q-338 0 -559.5 211t-221.5 545zM846 340q0 -43 30.5 -76t73.5 -33q106 0 191 179 q70 152 69 274q0 123 -120 123q-92 0 -175 -191q-69 -165 -69 -276z" />
<glyph unicode="A" horiz-adv-x="1439" d="M268 489q0 70 74 140q51 -27 127 -27q59 0 106 8q2 4 101 142q174 246 354 419q264 256 453 256q57 0 134 -50t77 -105q0 -53 -138 -305q-92 -162 -182 -322l72 2q33 -10 33 -59q0 -53 -66 -72q-29 -8 -110 -14q-135 -229 -136 -318q0 -57 60 -57q51 0 170 106 q104 92 145 154v-92q-49 -88 -182 -197q-145 -117 -234 -116q-84 0 -139 71q-53 66 -53 152q0 106 80 266q-106 -10 -324 -29q-33 -63 -92 -217q-55 -141 -94 -215q-14 -27 -21 -26q-31 0 -110 30q-88 33 -88 56q0 39 69 172q49 90 97 180h-31q-152 -1 -152 67zM813 621 q141 10 283 12q59 86 211 330q172 279 172 301q0 25 -54 24q-100 0 -333 -280q-187 -225 -279 -387z" />
<glyph unicode="B" horiz-adv-x="1427" d="M176 63q0 55 322.5 578.5t322.5 601.5q0 39 -41 39q-147 0 -327 -321q-23 4 -49.5 34.5t-26.5 55.5q0 117 144.5 255t260.5 138q100 0 166 -53q53 -41 105 -140q168 141 311 142q94 0 166 -54q78 -59 78 -149q0 -166 -150 -311q-141 -137 -311 -164q221 -90 221 -271 q0 -205 -178 -354q-170 -143 -381 -143q-100 0 -176 43q-51 29 -94 82q-37 43 -43 43q-25 0 -67 -71t-77 -71q-37 0 -102 29q-74 30 -74 61zM649 410q68 10 125 10q123 0 123 -68q0 -25 -57 -45q-84 -31 -107 -43q-57 -37 -57 -100q0 -39 37 -60.5t78 -21.5q121 0 223 121 q96 115 96 237q0 78 -56.5 124t-135.5 46q-82 0 -162 -63q-72 -57 -107 -137zM848 766l16 -12h6q122 0 322 157q205 162 205 283q0 53 -62 53q-100 0 -291 -198q-182 -191 -196 -283z" />
<glyph unicode="C" horiz-adv-x="1032" d="M168 412q0 174 92 411q100 256 248 422q172 193 354 193q100 0 195 -74q98 -80 98 -176q0 -68 -63 -215q-51 -117 -60 -129q-33 -41 -129 -47l-31 -2q-6 0 -12 -1q-58 0 -57 37q0 39 75.5 197t75.5 195q0 27 -26 26q-135 0 -271 -182q-115 -156 -196 -387 q-74 -215 -74 -346q0 -66 33 -123q39 -70 100 -70q76 0 187 90q55 45 174 170q86 90 108 91q14 0 30.5 -12.5t16.5 -26.5q0 -260 -174 -392q-135 -102 -330 -102q-172 0 -274 145q-90 128 -90 308z" />
<glyph unicode="D" horiz-adv-x="1425" d="M31 119q0 84 86 125q66 31 162 30q51 0 90 -10q102 133 204 369q111 258 172 348q121 176 324 274q-57 33 -151 33q-186 0 -310.5 -120.5t-124.5 -305.5q0 -14 4.5 -42.5t4.5 -43.5q0 -37 -35 -37q-59 0 -103 68q-39 59 -39 123q0 213 185 358q172 137 393 137 q256 0 418 -160.5t162 -416.5q0 -307 -168 -557q-188 -285 -484 -285q-160 0 -356 94q-197 -106 -283 -106q-61 0 -106 32t-45 93zM582 217q86 -53 174 -53q233 0 374 254q117 213 117 465q0 203 -92 305q-86 -74 -139 -158q-35 -57 -92 -188q-127 -291 -342 -625z" />
<glyph unicode="E" horiz-adv-x="1038" d="M139 348q0 201 140 338q125 121 333 168q-59 31 -97 93.5t-38 127.5q0 160 130 279t292 119q90 0 188 -58q109 -68 109 -151q0 -76 -33 -150q-41 -90 -104 -90q-139 0 -139 47q0 14 37.5 77.5t37.5 94.5q0 20 -17 36.5t-40 16.5q-82 0 -164 -85t-82 -167q0 -96 76 -131 q41 -18 158 -26q25 -6 24 -17q0 -27 -16 -69q-18 -51 -37 -58q-47 -6 -139 -24q-420 -113 -420 -416q0 -72 49 -131t119 -59q94 0 209.5 109.5t115.5 203.5q0 57 -63 57q-61 0 -119 -53q-25 -25 -82 -102q-39 -53 -61 -54q-14 0 -25.5 20.5t-11.5 37.5q0 115 117 196 q104 74 227 74q78 0 134.5 -45t56.5 -121q0 -182 -155 -326.5t-339 -144.5q-164 0 -267.5 110.5t-103.5 272.5z" />
<glyph unicode="F" horiz-adv-x="1323" d="M102 276q0 113 83 218.5t194 105.5q51 0 88 -20q47 -25 47 -70q0 -20 -68 -43q-92 -31 -129 -57q-68 -51 -67 -142q0 -59 40 -107t99 -48q141 0 258 200q78 135 131 330q-68 -14 -90 -14q-113 0 -113 82q0 33 15 43q8 4 45 4q137 0 201 55q41 35 116 172q70 127 265 318 q-119 33 -226 32q-121 0 -233 -67q-129 -76 -129 -191q0 -63 55 -63q51 0 84 66.5t72 66.5q41 0 41 -60q0 -84 -61.5 -142t-147.5 -58q-90 0 -144.5 58.5t-54.5 148.5q0 221 203 329q158 84 403 84q94 0 280.5 -23.5t280.5 -23.5q119 0 252 37q-106 -238 -395 -237 q-55 0 -127 10q-162 -162 -237 -381q78 0 119.5 67.5t115.5 67.5q63 0 64 -20q0 -8 -29 -54q-145 -229 -193 -368q-8 -27 -39 -27q-88 0 -88 33q0 45 47 145l-63 -6q-70 -158 -139 -313q-96 -203 -199 -305q-133 -137 -299 -138q-145 0 -233 80q-95 82 -95 225z" />
<glyph unicode="G" horiz-adv-x="1150" d="M178 428q0 180 137.5 419.5t331.5 403.5q213 180 400 181q117 0 221 -64q119 -74 118 -182q0 -59 -71 -178q-76 -125 -129 -125q-156 0 -156 86q0 25 82 104.5t82 116.5l-6 18q-43 49 -105 49q-137 0 -309 -180q-154 -160 -269.5 -384t-115.5 -357q0 -68 41 -120t109 -52 q113 0 215 115q88 102 114 223q-170 -47 -227 -47q-43 0 -43 43q0 51 29.5 101t75 72.5t415.5 22.5q57 0 70 -2q43 -8 43 -41q0 -72 -57 -94l-127 -20q39 -51 38 -88q0 -35 -24 -87q-184 -381 -508 -380q-141 0 -260 155q-115 148 -115 291z" />
<glyph unicode="H" horiz-adv-x="1310" d="M121 61q0 12 139 179q152 178 168 204q-82 -4 -123 -4q-133 0 -133 54q0 35 25.5 73.5t78.5 40.5q96 2 291 10q72 106 172 308q119 238 119 311q0 27 -20.5 46.5t-46.5 19.5q-68 0 -138 -78q-33 -39 -98 -146q-49 -78 -70 -78q-94 0 -94 43q0 113 140.5 251.5 t254.5 138.5q88 0 181 -60q100 -68 100 -147q0 -166 -246 -590q16 0 66 2q39 4 63 2l387 557q84 121 113 148q68 61 170 61q117 0 117 -31q0 -8 -56 -73q-244 -289 -483 -662q14 0 43 2h43q68 0 68 -65q0 -37 -13.5 -55.5t-115.5 -26.5q-63 -2 -129 -7q-150 -211 -150 -303 q0 -74 74 -73q86 0 217 106q96 76 180 176v-94q-96 -115 -211 -201q-150 -113 -258 -112q-84 0 -143.5 54t-59.5 138q0 125 115 303q-49 -2 -149 -14q-96 -147 -254 -346q-31 -41 -64 -82q-39 -43 -88 -43q-45 0 -104 14q-78 20 -78 49z" />
<glyph unicode="I" horiz-adv-x="1105" d="M246 127q0 18 24.5 38.5t42.5 20.5q4 0 47 -34.5t82 -34.5q184 0 373 520q-127 2 -207 65q-90 70 -90 195q0 258 291 395q227 106 522 107q94 0 99 -90q-4 -12 -11 -21q-33 -35 -94 -106q-86 -111 -186 -367q4 0 75 21q47 14 76 14q31 0 31 -41q0 -55 -252 -139 q-59 -141 -121 -281q-86 -184 -176 -280q-119 -127 -260 -127q-63 0 -158 43q-108 49 -108 102zM692 926q0 -72 45 -115t117 -43h25q98 213 178 334q35 45 98 133l10 20l-12 17h-16q-164 0 -297 -90q-148 -100 -148 -256z" />
<glyph unicode="J" horiz-adv-x="1114" d="M225 289q0 49 64 200q-61 0 -62 39q0 125 138 156q45 10 237 10q63 0 78 -6q33 -10 33 -61q0 -76 -32 -98.5t-110 -22.5q-96 -141 -96 -248q0 -102 105 -102q88 0 163 114q39 59 95 193l319 766h-47q-33 -2 -49 -2q-55 0 -78 8q-35 16 -35 63q0 45 19 74q31 47 424 47 q100 0 114 -4q39 -16 39 -96q0 -57 -35 -70q-14 -6 -86 -6h-20l-416 -942q-66 -150 -135 -221q-98 -100 -236 -100q-137 0 -258 86q-133 94 -133 223z" />
<glyph unicode="K" horiz-adv-x="1292" d="M295 86q0 31 43 92q35 41 68 84q131 174 307 467q217 367 217 479q0 29 -23.5 50.5t-54.5 21.5q-80 0 -168 -133q-63 -92 -109 -209q-86 25 -86 119q0 135 125 257t260 122q102 0 179 -54q86 -59 86 -157q0 -100 -52 -232q-20 -53 -100 -221q127 39 262 205 q106 139 213 280q123 143 238 144q53 0 99 -43t56 -96q-135 -43 -272 -185l-246 -262q-166 -150 -374 -213q104 -49 127 -127q10 -35 10 -182q0 -125 53 -125q35 0 123 88q70 72 106 125v-94q-66 -92 -168 -185q-129 -117 -204 -116q-123 0 -123 233q0 29 2 76t2 59 q0 92 -53 129l-148 -225q-86 -131 -158 -217q-35 -43 -77 -43q-47 0 -99 22q-61 27 -61 66z" />
<glyph unicode="L" horiz-adv-x="1488" d="M248 164q0 106 92 172q82 57 192 57q78 0 177 -33l155 295q-195 119 -194 295q0 217 174 305q84 43 110 43q27 0 35 -55l-12 -18q-102 -55 -139 -101q-49 -61 -50 -161q0 -61 36 -116.5t91 -82.5q170 317 244 414q182 242 381 241q115 0 184 -59q72 -66 72 -178 q0 -260 -231 -418q-195 -135 -473 -156l-189 -340q162 -139 309 -139q90 0 186.5 48t160.5 118v-96q-219 -215 -398 -215q-178 0 -373 147q-152 -133 -315 -133q-82 0 -147 41q-78 49 -78 125zM369 182q0 -61 82 -61q100 0 188 117q-80 27 -129 26q-141 0 -141 -82z M1143 725h5q186 0 355 141q180 147 180 332q0 41 -26.5 73t-67.5 32q-215 0 -446 -578z" />
<glyph unicode="M" horiz-adv-x="1787" d="M371 39q0 68 307 596t307 604q0 29 -30.5 45t-59.5 16q-143 0 -285 -301q-25 -51 -30 -51q-29 0 -51.5 34t-22.5 65q0 145 156 270q150 121 301 121q94 0 161 -47q74 -53 93 -142q127 170 274 170q80 0 123 -69q30 -50 29 -118q0 -12 -1 -24q121 117 250 117q49 0 97 -25 q53 -31 53 -75q0 -63 -266.5 -498.5t-266.5 -538.5q0 -68 58 -67q70 0 176 100q82 76 139 160v-94q-227 -311 -424 -312q-74 0 -129 60.5t-55 134.5q0 106 119 322q59 109 219 356q119 184 119 213t-33 29q-92 0 -375 -457q-170 -289 -340 -576q-41 -61 -98 -61 q-129 0 -129 49q0 76 332.5 606.5t332.5 558.5q0 20 -26 21q-115 0 -394 -455q-100 -168 -325 -588q-68 -127 -70 -131q-49 -63 -125 -63q-110 0 -110 45z" />
<glyph unicode="N" horiz-adv-x="1495" d="M373 41q0 80 298 591t298 599q0 29 -32 45t-60 16q-72 0 -148 -82q-41 -45 -106 -149q-51 -84 -68 -86q-23 14 -48.5 46t-25.5 54q0 109 183 252q174 137 290 137q100 0 170 -53t76 -149q170 166 303 165q76 0 162 -43q100 -49 100 -116q0 -57 -84 -203l-405 -700 q-61 -106 -62 -183q0 -68 64 -67q66 0 182 104q88 80 150 162v-94q-240 -311 -457 -312q-82 0 -134 49.5t-52 133.5q0 100 133 344q23 39 250 418q133 223 133 274q0 45 -60 45q-47 0 -151 -109q-78 -82 -131 -157q-123 -174 -193 -291q-59 -100 -160.5 -310t-160.5 -309 q-39 -66 -107 -65q-147 0 -147 43z" />
<glyph unicode="O" horiz-adv-x="1218" d="M274 356q0 184 107 439q113 266 278 442q188 203 381 203q115 0 201 -66q94 -74 94 -184q0 -92 -49 -168l2 -64v-18q0 -197 -127 -430q20 8 90 59q63 45 78 45q37 0 47 -39q-16 -55 -121 -112q-92 -51 -161 -60q-145 -195 -232 -276q-164 -158 -303 -158q-137 0 -217 131 q-68 111 -68 256zM479 293q0 -59 34 -98t93 -39q127 0 316 266q-123 72 -123 252q0 162 82 311q98 174 247 174q23 0 48 -4q-23 113 -91 113q-119 0 -270 -203q-131 -172 -235 -418q-101 -235 -101 -354zM897 651q0 -106 72 -151q164 266 164 444q0 94 -58 94 q-82 0 -135 -157q-43 -126 -43 -230z" />
<glyph unicode="P" horiz-adv-x="1148" d="M55 68q0 51 334 555.5t334 590.5q0 20 -17.5 37t-37.5 17q-76 0 -148 -80q-39 -43 -102 -146q-47 -80 -64 -79q-27 0 -56.5 31.5t-29.5 56.5q0 43 74 141q63 86 111 127q109 92 231 92q86 0 170 -48t113 -124q129 129 233 129q209 0 209 -207q0 -262 -215 -557 q-231 -313 -485 -313q-119 0 -187 106q-74 -119 -145 -237q-117 -170 -189 -170q-133 0 -133 78zM633 547q0 -20 30.5 -35.5t53.5 -15.5q119 0 287 249q160 236 159 365q0 20 -17.5 36.5t-37.5 16.5q-51 0 -119 -80q-14 -18 -89 -122.5t-150 -210.5q-117 -164 -117 -203z " />
<glyph unicode="Q" horiz-adv-x="1179" d="M276 387q0 184 80 416q88 258 228 420q164 190 356 190q164 0 254 -133q76 -117 76 -289q0 -358 -334 -801q37 -6 76 -6q61 0 116 39q-25 -233 -202 -233q-49 0 -111 41q-84 -61 -166 -62q-41 0 -86 25q-25 -8 -57 -8q-121 0 -182 149q-48 113 -48 252zM496 344 q0 -98 18 -172q74 68 180 68q29 0 56 -7q125 207 215 414q123 281 122 436q0 176 -106 177q-88 0 -160 -74q-147 -152 -237 -391q-88 -232 -88 -451z" />
<glyph unicode="R" horiz-adv-x="1107" d="M113 70q0 29 32 96q27 47 52 94l385 764q59 119 59 172q0 27 -20.5 49.5t-47.5 22.5q-68 0 -131 -74q-27 -33 -90 -137q-43 -74 -65 -74q-25 0 -43 33q-14 27 -15 53q0 125 128 245t255 120q188 0 279 -152q127 158 274 158q117 0 185 -84q61 -78 61 -197 q0 -444 -602 -612q84 -72 84 -172v-47q-2 -33 -2 -54q0 -111 80 -110q43 0 116.5 30.5t108.5 59.5v-59q-129 -106 -166 -132q-111 -74 -190 -73q-125 0 -154 100q-12 39 -12 199q0 100 -2 114q-10 80 -56 80q-55 0 -147 -176q-16 -31 -113 -237q-23 -47 -32 -58 q-16 -12 -64 -12q-147 0 -147 70zM676 696q10 -20 43 -20q127 0 306 179t179 308q0 39 -27.5 72t-66.5 33q-109 0 -254 -236q-12 -21 -180 -336z" />
<glyph unicode="S" horiz-adv-x="1198" d="M229 272q0 121 138 201q117 70 247 70q125 0 125 -78q0 -33 -86 -45q-123 -16 -161 -33q-86 -39 -86 -133q0 -51 59 -84q49 -27 106 -27q135 0 244 99.5t109 232.5q0 123 -123 168l-226 57q-123 45 -122 172q0 209 170 386.5t381 177.5q123 0 217 -60q111 -70 110 -184 q0 -100 -73.5 -194.5t-172.5 -94.5q-104 0 -104 62q0 27 67.5 111.5t67.5 137.5q0 27 -18.5 47.5t-44.5 20.5q-90 0 -225.5 -132t-135.5 -222q0 -94 121 -129q201 -53 225 -70q121 -72 121 -264q0 -207 -156.5 -342t-367.5 -135q-139 0 -262 71q-144 84 -144 213z" />
<glyph unicode="T" horiz-adv-x="999" d="M102 313q0 111 75 201t185 90q41 0 84 -14q57 -18 58 -49q0 -14 -60 -43q-74 -35 -108 -72q-59 -61 -60 -154q0 -53 40 -97t94 -44q94 0 178 137q63 100 125 285q37 123 73 244q49 152 129 262q55 74 197 215q-129 31 -242 31q-127 0 -237 -54q-139 -68 -139 -180 q0 -37 24.5 -64.5t59.5 -27.5q55 0 90 45q14 20 43 84q18 45 37 45q35 0 34 -78q0 -96 -54 -150.5t-150 -54.5q-90 0 -158 64.5t-68 152.5q0 209 207 312q156 76 391 76q68 0 203 -8.5t205 -8.5q225 0 411 78q-49 -285 -421 -285q-31 0 -62 2q-145 -178 -239 -426 q-59 -174 -121 -348q-84 -225 -187 -340q-133 -154 -319 -153q-137 0 -227.5 94t-90.5 233z" />
<glyph unicode="U" horiz-adv-x="1550" d="M604 182q0 127 228.5 547t228.5 483q0 20 -18.5 37t-38.5 17q-117 0 -271 -314q-35 0 -57.5 30t-22.5 65q0 143 121 255.5t268 112.5q96 0 169 -53t73 -145q0 -117 -108 -334q-16 -31 -205 -361q-109 -195 -109 -256q0 -37 37 -37q88 0 369 492l331 614q18 35 26.5 43 t43.5 17h41h92q66 -6 66 -37t-296 -560.5t-296 -604.5q0 -29 20.5 -50.5t46.5 -21.5q51 0 164 106q86 82 140 154v-94q-246 -301 -408 -301q-109 0 -174 178q-80 -88 -121 -119q-76 -55 -160 -55q-72 0 -126 60t-54 132z" />
<glyph unicode="V" horiz-adv-x="1370" d="M459 1092q0 104 155 219q147 106 258 106q86 0 161 -53t75 -135q0 -133 -196.5 -487.5t-196.5 -460.5q0 -18 16 -19q25 0 309 318q18 262 152 514q164 309 393 309q53 0 82 -39t29 -92q0 -133 -99 -277q-61 -92 -211 -245q-154 -160 -200 -228q25 -35 74 -35q45 0 98 35 t69 35q31 0 31 -35q0 -55 -82 -100q-74 -41 -135 -41q-78 0 -137 59q-59 -57 -176 -176q-68 -84 -133 -168q-106 -129 -146 -129q-68 0 -119 117q-45 98 -45 178q0 154 97 369q37 86 176 342q96 174 96 231q0 18 -14.5 33.5t-32.5 15.5q-59 0 -125 -75q-35 -39 -100 -144 q-49 -76 -66 -78l-12 7q-45 66 -45 129zM1155 696q113 92 229 238q141 176 154 280l-14 17q-106 -10 -234 -221q-110 -183 -135 -314z" />
<glyph unicode="W" horiz-adv-x="1701" d="M393 190q0 158 107 390q45 94 200 364q106 188 107 246q0 47 -59 47q-51 0 -107 -74q-27 -35 -82 -135q-41 -74 -55 -74q-27 0 -49 43q-18 37 -19 66q0 111 140.5 235.5t257.5 124.5q76 0 143 -39q76 -47 76 -118q0 -94 -105 -287q-94 -172 -190 -344 q-104 -203 -105 -324q0 -10 17 -16q94 29 563 895q33 66 67 131q45 68 121 68q90 0 90 -37q0 -33 -110 -242q-145 -276 -203 -412q-111 -250 -111 -387q0 -27 17 -26q33 0 158 125q102 102 149 161q-23 61 -22 140q0 166 131 411q143 266 280 267q94 0 94 -164 q0 -135 -110 -353q-84 -164 -203 -323q23 -14 57 -14q37 0 85.5 28.5t60.5 28.5q31 0 31 -37q0 -51 -95 -86q-74 -29 -137 -29q-47 0 -84 27q-502 -487 -538 -487q-57 0 -89 135q-23 94 -22 184q-264 -326 -352 -326q-47 0 -80 88q-25 70 -25 129zM1485 721q0 -43 4 -66 q111 137 190 279q106 190 107 307q0 33 -21 33q-76 0 -182 -236q-98 -219 -98 -317z" />
<glyph unicode="X" horiz-adv-x="1081" d="M244 2q0 76 198 336q131 168 265 334l2 289v133q-6 96 -52 96q-63 0 -116 -82q-23 -35 -74 -150q-37 -82 -59 -81q-35 0 -59.5 26.5t-24.5 61.5q0 141 120.5 269t262.5 128q174 0 221 -127q20 -59 20 -274q125 141 250 280q184 182 305 182q49 0 90 -32.5t41 -81.5 q0 -100 -92 -189q-41 53 -98 54q-92 0 -279 -216q-121 -154 -241 -305v-110q-2 -74 -2 -111q0 -119 10 -168q23 -111 98 -110q57 0 129 71l29 -43q-125 -188 -264 -188q-193 0 -238 340q-47 -33 -244 -348q-27 -43 -32 -49q-18 -18 -54 -19q-31 0 -71.5 27.5t-40.5 56.5z " />
<glyph unicode="Y" horiz-adv-x="1435" d="M621 250q0 154 104 371q31 63 193 348q104 182 104 250q0 16 -15.5 29.5t-31.5 13.5q-63 0 -125 -80q-37 -45 -90 -146q-41 -80 -53 -80q-25 0 -54.5 41t-29.5 66q0 104 132 234t249 130q84 0 159 -47q86 -53 86 -133q0 -111 -106 -311q-98 -170 -197 -342 q-106 -188 -106 -268q0 -68 69 -68q55 0 121 117q158 276 467 833q18 35 59 105q33 53 70 63q16 4 96 4q127 0 127 -22q0 -10 -475 -914q-481 -920 -547 -1026q-10 -14 -20 -14q-39 16 -76 47q-47 39 -47 70q0 66 266 588q-82 -66 -162 -66q-76 0 -122 68q-45 61 -45 139z " />
<glyph unicode="Z" horiz-adv-x="1081" d="M174 131q0 141 221 397q156 180 408 406q221 195 221 188q0 18 -45 19q-59 0 -176 -28t-178 -28q-115 0 -115 93q0 72 90 182q74 -25 152 -25q66 0 198.5 17.5t200.5 17.5q111 0 157 -38t46 -146q0 -12 -19 -33q-39 -31 -116 -96q-545 -461 -730 -877q158 47 320 47 q143 0 197.5 -49t54.5 -188q0 -20 -21 -21q-31 0 -91 12.5t-89 14.5q-76 4 -158 4q-63 0 -189 -6t-189 -6q-27 0 -43 2q-27 4 -67 59t-40 82z" />
<glyph unicode="[" horiz-adv-x="806" d="M453 -141v1593h417v-51h-227v-1485h227v-57h-417z" />
<glyph unicode="\" horiz-adv-x="1472" d="M463 1427q0 25 45 25q129 0 178 -25q109 -53 416 -673q303 -610 303 -748q0 -20 -23 -20q-51 0 -86 12q-23 8 -36 33.5t-27 54.5q-197 420 -361 694z" />
<glyph unicode="]" horiz-adv-x="806" d="M371 -84h225v1485h-225v51h415v-1593h-415v57z" />
<glyph unicode="^" horiz-adv-x="600" d="M360 903v17q186 145 316 317h26q59 -197 150 -328l-14 -14q-86 59 -162 205q-181 -156 -316 -197z" />
<glyph unicode="_" horiz-adv-x="972" d="M39 -223h1036v-68h-1036v68z" />
<glyph unicode="`" horiz-adv-x="401" d="M444 1192q0 78 56 78q49 0 67 -47q51 -129 72 -162q35 -59 119 -133l-10 -33q-90 41 -185 123q-119 102 -119 174z" />
<glyph unicode="a" horiz-adv-x="817" d="M37 240q0 178 123 352q133 190 305 190q109 0 168 -55q41 55 104 55q125 0 125 -24q0 -27 -134 -260.5t-134 -298.5q0 -45 55 -45q96 0 264 227v-94q-246 -305 -397 -305q-90 0 -117 108q-82 -109 -176 -108q-90 0 -141 88q-45 74 -45 170zM215 201q0 -61 49 -62 q72 0 182 187q104 176 105 256q0 23 -21.5 38t-46.5 15q-111 0 -194 -168q-74 -143 -74 -266z" />
<glyph unicode="b" horiz-adv-x="653" d="M70 285q0 190 120 499q94 240 228 471q31 53 47 66q25 23 74 22q100 0 100 -30q0 -10 -123 -256q-129 -256 -143 -322q25 6 47 6q158 0 158 -317q0 -72 -9 -129q18 -14 39 -14q49 0 101 61l14 -74q-27 -57 -115 -57q-37 0 -55 8q-109 -229 -256 -229q-117 0 -176 94 q-51 78 -51 201zM231 195q0 -82 64 -82q68 0 139 166q-100 76 -135 231q-68 -176 -68 -315zM385 565q0 -102 78 -180q6 49 6 98q0 139 -49 140q-35 -1 -35 -58z" />
<glyph unicode="c" horiz-adv-x="686" d="M78 289q0 154 115 315q125 176 272 176q82 0 149 -32q84 -39 84 -113q0 -197 -157 -197q-72 0 -72 54q0 27 20.5 72.5t20.5 70.5q0 23 -27 22q-74 0 -149 -174q-70 -156 -70 -241q0 -53 36 -97.5t89 -44.5q98 0 217 99q92 76 168 182v-94q-70 -102 -184 -193 q-135 -106 -234 -106q-127 0 -204 90q-74 84 -74 211z" />
<glyph unicode="d" horiz-adv-x="841" d="M55 215q0 188 117 360q131 188 311 189q72 0 133 -39l199 424q31 70 62 137q37 57 127 57q96 0 96 -20q0 -59 -254 -544.5t-254 -590.5q0 -25 19.5 -41t41.5 -16q49 0 152 102q76 76 125 148v-94q-59 -96 -168 -187q-127 -102 -221 -102q-72 0 -95 106 q-117 -109 -210 -108q-80 0 -134 72q-47 65 -47 147zM217 195q0 -63 51 -64q59 0 115 82q14 25 68 135q100 211 100 240q0 39 -49 39q-113 0 -205 -164q-80 -145 -80 -268z" />
<glyph unicode="e" horiz-adv-x="636" d="M39 262q0 145 104 311q115 186 252 187q82 0 146.5 -49t64.5 -129q0 -119 -84 -226q-90 -115 -205 -114q-45 0 -79 24q-23 -27 -23 -61q0 -43 43 -76t88 -33q164 0 383 285v-94q-129 -152 -184 -199q-123 -106 -240 -106q-125 0 -195.5 77.5t-70.5 202.5zM274 416 q0 -39 50 -39q55 0 102 80q41 70 41 131q0 47 -45 47q-51 0 -103 -86q-45 -78 -45 -133z" />
<glyph unicode="f" horiz-adv-x="524" d="M-41 -88q0 125 68 307q61 147 120 295q-31 41 -30 90q0 49 32.5 86t81.5 43q82 160 254 475q25 45 47 88q23 31 93 39q49 6 75 6q35 0 35 -32q0 -31 -160 -320q-100 -174 -198 -350q51 -156 57 -330q37 -20 62 -20q55 0 129 88v-82q-45 -88 -127 -88q-35 0 -62 14v-11 q0 -176 -65 -331q-86 -205 -242 -205q-86 0 -131 80q-39 68 -39 158zM121 -127q0 -59 41 -59q57 0 112 184q45 156 45 240q0 43 -16 81l-39 41q-143 -378 -143 -487z" />
<glyph unicode="g" horiz-adv-x="845" d="M-156 -510q0 133 164 270q123 104 285 177q25 51 35 94q-63 -55 -150 -56q-76 0 -115 78q-31 61 -30 146q0 193 138 359.5t327 166.5q88 0 147 -33q20 45 86 45q115 0 115 -32q0 -27 -305 -652q203 29 426 328v-94q-41 -72 -141.5 -160t-180.5 -131q-59 -25 -172 -90 q-121 -242 -197 -344q-154 -207 -309 -207q-51 0 -87 42t-36 93zM-55 -504q0 -33 45 -33q96 0 235 312q-82 -39 -172 -117q-108 -94 -108 -162zM203 174q0 -47 49 -47q72 0 192 174q115 170 115 248q0 61 -65 61q-96 0 -197 -172q-94 -160 -94 -264z" />
<glyph unicode="h" horiz-adv-x="888" d="M-82 39q0 43 266 579q164 326 326 650q35 72 41 80q29 41 76 47h49q82 0 82 -19q0 -33 -154 -346q-94 -193 -190 -385q156 82 262 82q137 0 137 -121q0 -92 -113.5 -250.5t-113.5 -205.5q0 -41 45 -41q123 0 344 272v-94q-113 -135 -178 -193q-125 -109 -230 -108 q-68 0 -116 28q-59 33 -60 97q0 86 108.5 236.5t108.5 184.5q0 45 -63 46q-141 0 -240 -148q-16 -25 -137 -276q-72 -152 -148 -156l-30 -2h-11q-61 0 -61 43z" />
<glyph unicode="i" horiz-adv-x="458" d="M27 154q0 104 79 284q66 131 130 262q14 33 23 40.5t42 7.5h125q29 0 29 -17q0 -25 -121 -246t-121 -299q0 -55 53 -55q49 0 156 102q90 84 131 148v-94q-57 -94 -176 -193q-135 -111 -227 -110q-123 0 -123 170zM307 879q0 68 47 135t113 67q70 0 70 -80q0 -72 -41 -131 q-47 -66 -115 -65q-74 0 -74 74z" />
<glyph unicode="j" horiz-adv-x="362" d="M-592 -430q0 111 88 201q63 66 197 135q100 51 203 104q80 184 159 367q119 272 160 332q23 33 78 32q111 0 110 -32q0 -29 -131 -312l-139 -295q63 14 174 117q94 88 146 162v-94q-197 -238 -371 -305q-285 -549 -512 -549q-70 0 -113 35q-49 36 -49 102zM-463 -424 q0 -39 31 -39q86 0 239 307q-88 -35 -169 -106q-101 -86 -101 -162zM242 879q0 68 48 135t113 67q70 0 70 -82q0 -72 -43 -133t-113 -61q-75 0 -75 74z" />
<glyph unicode="k" horiz-adv-x="722" d="M-92 33q0 6 305 647q311 649 350 719q35 59 92 59q135 0 136 -31q0 -35 -449 -878q47 18 182 119q113 86 174 86q90 0 90 -33q0 -61 -157 -156q-111 -68 -219 -110q66 -33 98 -111q12 -27 35 -127q14 -59 39 -59q33 0 125 94q70 74 110 129v-94q-186 -297 -352 -297 q-90 0 -119 71q-2 8 -26 154q-16 100 -72 141q-53 -104 -105 -209q-90 -164 -127 -163q-23 0 -63 14q-47 17 -47 35z" />
<glyph unicode="l" horiz-adv-x="481" d="M25 143q0 164 245 654l348 667q23 45 54 52h84q96 0 96 -17q0 -20 -164 -317q-213 -391 -301 -572q-164 -328 -164 -422q0 -53 45 -53q57 0 168 105q86 84 137 155v-96q-51 -92 -180 -197q-141 -119 -231 -118q-66 0 -101.5 45.5t-35.5 113.5z" />
<glyph unicode="m" horiz-adv-x="1028" d="M-80 45q0 31 143 317q133 268 177 338q31 49 96 50q47 0 71.5 -4.5t31.5 -27t18 -22.5q8 0 64.5 27t92.5 27q39 0 63.5 -50.5t37.5 -50.5q2 0 67.5 40t130.5 40q39 0 74 -23.5t35 -58.5q0 -49 -121 -217t-121 -252q0 -57 49 -57q45 0 158 108q98 92 139 152v-92 q-227 -305 -417 -305q-59 0 -101 26q-49 29 -49 86q0 80 88 226.5t88 156.5q0 27 -28 27q-49 0 -197 -257t-168 -257q-31 0 -74 20q-49 25 -49 51q0 35 118 221.5t118 217.5q0 18 -25 18q-88 0 -334 -491q-20 -41 -45 -41q-131 0 -131 57z" />
<glyph unicode="n" horiz-adv-x="763" d="M-94 27q0 51 157 358q82 158 164 313q31 59 86 60q72 0 86.5 -6.5t46.5 -51.5q27 0 80.5 18.5t81.5 18.5q129 0 129 -94q0 -29 -111.5 -217t-111.5 -244q0 -53 43 -53q57 0 162 100q74 72 131 150v-92q-72 -104 -174 -191q-129 -113 -223 -112q-61 0 -107 34 q-51 39 -51 97q0 86 94 250.5t94 169.5q0 16 -26 16q-70 0 -195 -209q-37 -61 -149 -281q-33 -66 -74 -65q-133 0 -133 31z" />
<glyph unicode="o" horiz-adv-x="743" d="M31 242q0 182 116 344q127 178 304 178q98 0 167.5 -55.5t69.5 -151.5q0 -63 -22.5 -156.5t-53.5 -148.5q14 -10 29 -10q111 0 201 161l22 -79q-35 -66 -94 -109q-66 -47 -135 -47q-25 0 -53 14q-131 -199 -297 -198q-109 0 -181.5 74.5t-72.5 183.5zM207 236 q0 -109 80 -109q53 0 104 51q45 43 66 101q-37 61 -37 133q0 137 106 145v8q0 27 -22.5 44.5t-50.5 17.5q-98 0 -177 -152q-69 -130 -69 -239z" />
<glyph unicode="p" horiz-adv-x="727" d="M-319 -385q0 23 53 129l440 887q35 72 37 76q27 37 70 36q20 0 60 -2t60 -2q6 0 16.5 -20.5t26.5 -20.5q23 0 65 12.5t64 12.5q102 0 103 -131q0 -76 -40 -190.5t-87 -174.5q14 -10 39 -10q59 0 149 74q84 68 113 127v-94q-33 -72 -132.5 -131.5t-178.5 -59.5 q-31 0 -54 8q-178 -166 -268 -166q-82 0 -125 66l-225 -412q-25 -45 -27 -49q-18 -25 -47 -24q-25 0 -65 18q-47 21 -47 41zM168 164q0 -35 43 -35q92 0 180 152q80 135 80 235q0 41 -39 41q-59 0 -161.5 -162.5t-102.5 -230.5z" />
<glyph unicode="q" horiz-adv-x="808" d="M8 215q0 172 117 334q125 174 293 174q39 0 96 -24.5t78 -24.5q14 0 25.5 20.5t31.5 22.5q14 2 74 2q100 0 100 -35q0 -49 -323 -588q27 -8 59 -8q143 0 391 293v-94q-123 -150 -188 -205q-119 -100 -248 -109q8 -41 8 -96q0 -147 -47 -274q-63 -176 -184 -176 q-158 0 -158 200q0 109 117 383q-61 -10 -72 -10q-170 0 -170 215zM176 205q0 -63 47 -64q45 0 78 37q43 39 131 191.5t88 197.5q0 18 -16.5 37t-36.5 19q-86 0 -193 -166q-98 -158 -98 -252zM270 -418q0 -45 29 -45q59 0 98 135q29 102 29 185q0 43 -10 90 q-49 -68 -94 -176q-52 -121 -52 -189z" />
<glyph unicode="r" horiz-adv-x="634" d="M37 313q31 27 78 117q43 80 57 129q-29 20 -29 72q0 86 54.5 155.5t136.5 69.5q47 0 47 -49q0 -12 -6 -35.5t-6 -36.5q0 -31 32 -30q14 0 36 17t36 17q225 0 225 -49q0 -29 -150.5 -245t-150.5 -271q0 -43 45 -43q106 0 291 250v-94q-78 -102 -176 -189 q-133 -117 -219 -116q-57 0 -103.5 40.5t-46.5 98.5q0 88 93.5 234.5t93.5 162.5l-15 8l-16 2q-106 0 -106 -1l2 -1q-74 -174 -187 -293z" />
<glyph unicode="s" horiz-adv-x="630" d="M55 272q0 82 19 162q63 23 233 242q158 207 215 207q39 0 39 -39q0 -41 -41 -85t-41 -108q0 -47 17.5 -140t17.5 -142q0 -125 -25 -217q45 27 123 106q70 72 109 123v-94q-252 -307 -418 -307q-248 -1 -248 292zM127 254q16 -109 117 -109q80 0 118 101q29 74 29 168 q0 106 -31 204q-76 -59 -178 -188q8 -18 8 -47q0 -100 -63 -129z" />
<glyph unicode="t" horiz-adv-x="466" d="M-2 125q0 86 59 244l99 237q-86 0 -86 47q0 68 55 88q33 12 115 13q74 127 219 333q33 47 51 62q29 20 76 20q109 0 108 -39q0 -16 -104 -182q-121 -190 -129 -207q55 -6 71 -10q41 -14 41 -51q0 -63 -71 -76q-12 -2 -129 -2q-166 -319 -166 -409q0 -20 18.5 -38 t40.5 -18q63 0 158 94q33 33 129 150v-94q-229 -295 -408 -295q-63 0 -105 36t-42 97z" />
<glyph unicode="u" horiz-adv-x="804" d="M8 141q0 78 113 334q115 264 164 270q18 4 59 5q115 0 115 -21q0 -12 -122 -239.5t-122 -266.5q0 -35 37 -35q31 0 49 13q31 20 129 211q59 121 121 241q41 74 106 74q123 0 123 -37q0 -18 -109.5 -219t-109.5 -301q0 -41 41 -41q57 0 164 100q82 78 135 152v-94 q-244 -307 -393 -307q-92 0 -150 118q-129 -100 -211 -100q-139 0 -139 143z" />
<glyph unicode="v" horiz-adv-x="645" d="M14 70q0 23 25 145l98 496q6 29 58 28q104 0 104 -43q0 -76 -50 -225t-50 -227q0 -31 12 -35l10 6q61 78 174 238q6 117 47 209q55 125 152 124q80 0 80 -69q0 -55 -78 -174q-57 -86 -115 -170q4 -39 34 -73t69 -34q88 0 114 56v-89q-51 -33 -118 -32q-115 0 -156 92 q-57 -88 -113 -174q-88 -127 -131 -127h-10q-74 0 -100 8q-56 17 -56 70zM469 547q102 129 102 143q0 16 -16 17q-51 0 -86 -160z" />
<glyph unicode="w" horiz-adv-x="1028" d="M-18 113q0 113 90 305q70 137 141 274q25 47 47 47q41 0 82 -2q68 -4 68 -22q0 -8 -112 -213t-112 -277q0 -35 35 -35q43 0 156 213q70 133 129 269q20 45 26 51q12 16 54 16q119 0 119 -37q0 -29 -102.5 -218t-102.5 -259q0 -55 51 -55q49 0 108 66q49 55 74 112 q-8 35 -8 82q0 92 49 197q59 123 141 123q27 0 47.5 -21.5t20.5 -48.5q0 -39 -59 -188q-53 -133 -84 -193q37 -33 114 -33q82 0 133 53l5 -83q-76 -45 -150 -46q-78 0 -141 46q-76 -117 -133 -166q-88 -82 -193 -82q-111 0 -145 110q-98 -106 -203 -106q-61 0 -100 31 q-45 33 -45 90zM780 444q0 -8 4 -24q16 12 56.5 110.5t42.5 122.5l-11 11h-1q-34 0 -64 -93q-27 -80 -27 -127z" />
<glyph unicode="x" horiz-adv-x="915" d="M70 356q84 162 139 236q106 141 213 141q82 0 121 -67q23 -39 41 -144q117 106 135 119q94 76 151 76q43 0 50 -31q-4 -12 -150 -156l-168 -168q16 -119 21 -137q25 -90 84 -90q66 0 163 96q8 6 136 150v-94q-57 -90 -172 -189q-133 -113 -218 -112q-82 0 -124 88 q-20 45 -41 155q-35 -35 -209 -231q-25 4 -48.5 43t-23.5 65q0 76 254 312q-23 94 -29 106q-27 76 -59 76q-39 0 -133 -137q-55 -90 -113 -180z" />
<glyph unicode="y" horiz-adv-x="776" d="M-137 -492q0 150 151 279q131 100 265 203l38 106q-96 -96 -184 -96q-55 0 -92 46t-37 101q0 141 197 519q39 74 118 73q96 0 97 -22q0 -35 -114 -239t-114 -259q0 -31 35 -31q66 0 142 146q63 137 129 274q76 147 141 152h53q59 0 60 -27q0 -35 -105 -301 q-68 -166 -133 -332q150 12 354 281v-94q-195 -262 -413 -318q-217 -604 -447 -604q-59 0 -100 43t-41 100zM-27 -465q0 -18 12.5 -35.5t30.5 -17.5q86 0 222 362q-90 -55 -166 -133q-99 -100 -99 -176z" />
<glyph unicode="z" horiz-adv-x="808" d="M-88 -504q0 178 418 469q-14 45 -70 45q-47 0 -84 -24l-55 110q397 322 397 451q0 55 -49 55q-29 0 -70 -16q-53 -18 -73.5 -22.5t-75.5 -6.5q-33 0 -38 -5t-13 -36q-51 -190 -152 -295l-12 80q92 152 92 293q0 53 53 53q8 0 27.5 -5t32.5 -5q41 0 157.5 46t173.5 46 q59 0 102.5 -36t43.5 -93q0 -188 -379 -453q96 -25 149 -96q90 6 230 129q113 98 186 201v-94q-43 -84 -170 -185q-117 -92 -219 -133q4 -49 4 -71q0 -197 -123 -361q-135 -176 -327 -176q-68 0 -109 33q-47 36 -47 102zM29 -494q0 -20 16 -36.5t37 -16.5q113 0 188 148 q59 115 70 245q-311 -195 -311 -340z" />
<glyph unicode="{" horiz-adv-x="1146" d="M393 416v90q156 20 225 84q82 72 82 217q0 33 -4 96.5t-4 93.5q0 186 133 271q98 61 312 80v-70q-205 -45 -250 -135q-27 -53 -27 -289q0 -213 -88 -293q-72 -61 -293 -102q238 -27 324 -144q57 -78 57 -243q0 -215 23 -271q53 -129 260 -151v-70q-434 0 -449 336v160 q0 182 -60.5 249.5t-240.5 90.5z" />
<glyph unicode="|" horiz-adv-x="759" d="M387 -264v1661h92v-1661h-92z" />
<glyph unicode="}" horiz-adv-x="1146" d="M-8 -348q201 20 252 135q31 63 30 291q0 193 95 280q86 80 288 103q-260 45 -325 141q-53 80 -53 359q0 164 -62 227q-53 57 -219 92v70q217 -18 308 -69.5t118 -166.5q18 -80 18 -303q0 -162 72 -225q57 -49 229 -80v-88q-162 -20 -229 -82q-57 -51 -68 -156 q-2 -16 -2 -231q0 -367 -452 -367v70z" />
<glyph unicode="~" horiz-adv-x="612" d="M500 895q14 72 55 121q47 57 115 57q43 0 117.5 -28.5t109.5 -28.5q43 0 69.5 29.5t51.5 58.5h33q-16 -76 -62 -131q-55 -66 -125 -66q-43 0 -126 28t-130 28q-43 0 -63 -68h-45z" />
<glyph unicode="&#xa2;" horiz-adv-x="974" d="M86 -127l104 209q-68 82 -67 207q0 180 121 332q129 162 303 159l90 178l86 3l-102 -197q119 -37 118 -148q0 -76 -37.5 -125t-111.5 -49q-70 0 -70 50q0 23 21.5 76t19.5 75l-242 -473q49 -70 127 -70q100 0 328 197v-92q-178 -219 -371 -219q-84 0 -155 45l-96 -187z M301 299l172 336q-127 -90 -172 -336z" />
<glyph unicode="&#xa3;" horiz-adv-x="1529" d="M-86 147q0 102 92 166q80 53 191 54q66 0 168 -27l135 276h-219l-13 15v6q82 92 146 92q12 0 55 -3t80 -3l135 283q94 176 190 268q125 119 279 119q106 0 178 -65.5t72 -170.5q0 -68 -25 -145q-35 -100 -88 -101q-70 0 -164 23l-12 12l6 12q98 90 107 99q55 63 55 129 q0 33 -28.5 61.5t-61.5 28.5q-117 0 -248 -223q-33 -55 -160 -328h224l10 -10l-8 -13q-76 -92 -152 -92q-12 0 -52 3t-71 3l-184 -360q160 -90 309 -90q115 0 246 84q0 -55 -6 -111q-43 -74 -133 -116q-82 -37 -176 -37q-178 0 -345 139q-160 -141 -321 -141q-80 0 -141 41 q-70 46 -70 122zM35 160q0 -55 86 -56q98 0 172 111q-66 27 -127 27q-131 0 -131 -82z" />
<glyph unicode="&#xa8;" horiz-adv-x="651" d="M283 997q0 45 29.5 74t74.5 29q43 0 72.5 -30t29.5 -73q0 -45 -29.5 -73.5t-74.5 -28.5q-43 0 -72.5 29.5t-29.5 72.5zM664 997q0 45 30.5 74t75.5 29q41 0 71.5 -30t30.5 -73q0 -45 -29.5 -73.5t-74.5 -28.5t-74.5 28.5t-29.5 73.5z" />
<glyph unicode="&#xaa;" horiz-adv-x="817" d="M37 240q0 178 123 352q133 190 305 190q109 0 168 -55q41 55 104 55q125 0 125 -24q0 -27 -134 -260.5t-134 -298.5q0 -45 55 -45q96 0 264 227v-94q-246 -305 -397 -305q-90 0 -117 108q-82 -109 -176 -108q-90 0 -141 88q-45 74 -45 170zM215 201q0 -61 49 -62 q72 0 182 187q104 176 105 256q0 23 -21.5 38t-46.5 15q-111 0 -194 -168q-74 -143 -74 -266z" />
<glyph unicode="&#xab;" horiz-adv-x="636" d="M-2748 -897q211 227 319 317q166 139 381 238q383 176 872 176q207 0 614.5 -46t612.5 -46q287 0 475 86q252 115 252 365q0 137 -84 229t-223 92q-133 0 -246 -90q-47 -39 -184 -195l-35 50q121 152 201 210q123 92 272 93q182 0 297 -115t115 -297q0 -201 -130 -349.5 t-331 -203.5q-219 -59 -633 -59q-162 0 -482.5 18t-479.5 18q-334 0 -550 -104t-421 -367q-121 70 -258 70q-147 0 -354 -90z" />
<glyph unicode="&#xad;" horiz-adv-x="964" d="M205 518q0 49 59 92q53 41 105 41q41 0 121.5 -16.5t123.5 -16.5q51 0 123 17q104 23 123 24l8 -8q-2 -82 -66.5 -126t-148.5 -44q-61 0 -179 17.5t-177 17.5q-12 0 -38 -4t-38 -4q-16 0 -16 10z" />
<glyph unicode="&#xb2;" d="M197 0l94 518q145 90 428 356l94 93l41 233h-246l-30 -174h-185l35 197l184 182h328l107 -168l-68 -377l-522 -491l-29 -164h436l-37 -205h-630z" />
<glyph unicode="&#xb3;" d="M244 168l41 229h182l-35 -192h248l72 393h-174l40 227h175l65 375h-246l-30 -174h-183l35 197l182 182h326l107 -168l-62 -342l-190 -178l125 -182l-64 -355l-182 -180h-328z" />
<glyph unicode="&#xb4;" horiz-adv-x="397" d="M303 928q96 80 143 155q16 25 29 70q14 57 21 70q18 47 57 47q63 0 63 -74q0 -76 -114 -176q-94 -82 -187 -125z" />
<glyph unicode="&#xb9;" d="M530 0l207 1200h-133l25 141q154 68 286 68h17l-244 -1409h-158z" />
<glyph unicode="&#xba;" horiz-adv-x="743" d="M31 242q0 182 116 344q127 178 304 178q98 0 167.5 -55.5t69.5 -151.5q0 -63 -22.5 -156.5t-53.5 -148.5q14 -10 29 -10q111 0 201 161l22 -79q-35 -66 -94 -109q-66 -47 -135 -47q-25 0 -53 14q-131 -199 -297 -198q-109 0 -181.5 74.5t-72.5 183.5zM207 236 q0 -109 80 -109q53 0 104 51q45 43 66 101q-37 61 -37 133q0 137 106 145v8q0 27 -22.5 44.5t-50.5 17.5q-98 0 -177 -152q-69 -130 -69 -239z" />
<glyph unicode="&#xbb;" horiz-adv-x="636" d="M-1819 -858q240 352 486 493q264 154 674 154q119 0 355 -23.5t355 -23.5q287 0 475 86q252 115 252 365q0 137 -84 229t-223 92q-133 0 -246 -90q-47 -39 -184 -195l-35 50q121 152 201 210q123 92 272 93q182 0 297 -115t115 -297q0 -332 -303 -485 q-229 -117 -598 -117q-76 0 -227.5 7t-227.5 7q-279 0 -446 -84q-195 -98 -297 -334q-117 68 -256 68q-160 0 -355 -90z" />
<glyph unicode="&#xc0;" horiz-adv-x="1439" d="M268 489q0 70 74 140q51 -27 127 -27q59 0 106 8q2 4 101 142q174 246 354 419q264 256 453 256q57 0 134 -50t77 -105q0 -53 -138 -305q-92 -162 -182 -322l72 2q33 -10 33 -59q0 -53 -66 -72q-29 -8 -110 -14q-135 -229 -136 -318q0 -57 60 -57q51 0 170 106 q104 92 145 154v-92q-49 -88 -182 -197q-145 -117 -234 -116q-84 0 -139 71q-53 66 -53 152q0 106 80 266q-106 -10 -324 -29q-33 -63 -92 -217q-55 -141 -94 -215q-14 -27 -21 -26q-31 0 -110 30q-88 33 -88 56q0 39 69 172q49 90 97 180h-31q-152 -1 -152 67zM813 621 q141 10 283 12q59 86 211 330q172 279 172 301q0 25 -54 24q-100 0 -333 -280q-187 -225 -279 -387zM1364 1825q0 72 68 71l6 -2q27 -4 43 -43q10 -45 47 -133q31 -51 135 -149l-10 -31q-88 41 -178 119q-111 96 -111 168z" />
<glyph unicode="&#xc1;" horiz-adv-x="1439" d="M268 489q0 70 74 140q51 -27 127 -27q59 0 106 8q2 4 101 142q174 246 354 419q264 256 453 256q57 0 134 -50t77 -105q0 -53 -138 -305q-92 -162 -182 -322l72 2q33 -10 33 -59q0 -53 -66 -72q-29 -8 -110 -14q-135 -229 -136 -318q0 -57 60 -57q51 0 170 106 q104 92 145 154v-92q-49 -88 -182 -197q-145 -117 -234 -116q-84 0 -139 71q-53 66 -53 152q0 106 80 266q-106 -10 -324 -29q-33 -63 -92 -217q-55 -141 -94 -215q-14 -27 -21 -26q-31 0 -110 30q-88 33 -88 56q0 39 69 172q49 90 97 180h-31q-152 -1 -152 67zM813 621 q141 10 283 12q59 86 211 330q172 279 172 301q0 25 -54 24q-100 0 -333 -280q-187 -225 -279 -387zM1556 1589q51 47 72 70q39 41 64 78q14 23 26.5 68.5t20.5 64.5q20 45 59 45q57 0 57 -66q0 -76 -110 -172q-86 -76 -178 -118z" />
<glyph unicode="&#xc2;" horiz-adv-x="1439" d="M268 489q0 70 74 140q51 -27 127 -27q59 0 106 8q2 4 101 142q174 246 354 419q264 256 453 256q57 0 134 -50t77 -105q0 -53 -138 -305q-92 -162 -182 -322l72 2q33 -10 33 -59q0 -53 -66 -72q-29 -8 -110 -14q-135 -229 -136 -318q0 -57 60 -57q51 0 170 106 q104 92 145 154v-92q-49 -88 -182 -197q-145 -117 -234 -116q-84 0 -139 71q-53 66 -53 152q0 106 80 266q-106 -10 -324 -29q-33 -63 -92 -217q-55 -141 -94 -215q-14 -27 -21 -26q-31 0 -110 30q-88 33 -88 56q0 39 69 172q49 90 97 180h-31q-152 -1 -152 67zM813 621 q141 10 283 12q59 86 211 330q172 279 172 301q0 25 -54 24q-100 0 -333 -280q-187 -225 -279 -387zM1329 1559q180 139 318 319h26q59 -203 148 -328l-45 -14q-43 31 -78 94q-4 4 -56 111q-63 -57 -126 -113q-80 -63 -148 -84z" />
<glyph unicode="&#xc3;" horiz-adv-x="1439" d="M268 489q0 70 74 140q51 -27 127 -27q59 0 106 8q2 4 101 142q174 246 354 419q264 256 453 256q57 0 134 -50t77 -105q0 -53 -138 -305q-92 -162 -182 -322l72 2q33 -10 33 -59q0 -53 -66 -72q-29 -8 -110 -14q-135 -229 -136 -318q0 -57 60 -57q51 0 170 106 q104 92 145 154v-92q-49 -88 -182 -197q-145 -117 -234 -116q-84 0 -139 71q-53 66 -53 152q0 106 80 266q-106 -10 -324 -29q-33 -63 -92 -217q-55 -141 -94 -215q-14 -27 -21 -26q-31 0 -110 30q-88 33 -88 56q0 39 69 172q49 90 97 180h-31q-152 -1 -152 67zM813 621 q141 10 283 12q59 86 211 330q172 279 172 301q0 25 -54 24q-100 0 -333 -280q-187 -225 -279 -387zM1339 1536q14 72 54 121q47 57 112 57q45 0 120 -30.5t110 -30.5q43 0 69.5 29.5t53.5 60.5h32q-16 -72 -61 -127q-55 -66 -125 -66q-43 0 -126 27t-128 27q-39 0 -68 -68 h-43z" />
<glyph unicode="&#xc4;" horiz-adv-x="1439" d="M268 489q0 70 74 140q51 -27 127 -27q59 0 106 8q2 4 101 142q174 246 354 419q264 256 453 256q57 0 134 -50t77 -105q0 -53 -138 -305q-92 -162 -182 -322l72 2q33 -10 33 -59q0 -53 -66 -72q-29 -8 -110 -14q-135 -229 -136 -318q0 -57 60 -57q51 0 170 106 q104 92 145 154v-92q-49 -88 -182 -197q-145 -117 -234 -116q-84 0 -139 71q-53 66 -53 152q0 106 80 266q-106 -10 -324 -29q-33 -63 -92 -217q-55 -141 -94 -215q-14 -27 -21 -26q-31 0 -110 30q-88 33 -88 56q0 39 69 172q49 90 97 180h-31q-152 -1 -152 67zM813 621 q141 10 283 12q59 86 211 330q172 279 172 301q0 25 -54 24q-100 0 -333 -280q-187 -225 -279 -387zM1305 1634q0 43 30.5 73t73.5 30q41 0 71.5 -30t30.5 -73t-29.5 -72.5t-72.5 -29.5t-73.5 29.5t-30.5 72.5zM1686 1634q0 43 31.5 73t74.5 30t72.5 -30t29.5 -73 q0 -45 -29.5 -73.5t-74.5 -28.5q-43 0 -73.5 29.5t-30.5 72.5z" />
<glyph unicode="&#xc5;" horiz-adv-x="1439" d="M268 489q0 70 74 140q51 -27 127 -27q59 0 106 8q2 4 101 142q174 246 354 419q264 256 453 256q57 0 134 -50t77 -105q0 -53 -138 -305q-92 -162 -182 -322l72 2q33 -10 33 -59q0 -53 -66 -72q-29 -8 -110 -14q-135 -229 -136 -318q0 -57 60 -57q51 0 170 106 q104 92 145 154v-92q-49 -88 -182 -197q-145 -117 -234 -116q-84 0 -139 71q-53 66 -53 152q0 106 80 266q-106 -10 -324 -29q-33 -63 -92 -217q-55 -141 -94 -215q-14 -27 -21 -26q-31 0 -110 30q-88 33 -88 56q0 39 69 172q49 90 97 180h-31q-152 -1 -152 67zM813 621 q141 10 283 12q59 86 211 330q172 279 172 301q0 25 -54 24q-100 0 -333 -280q-187 -225 -279 -387zM1448 1724q0 74 53 129.5t129 55.5q86 0 139.5 -50.5t53.5 -134.5q0 -78 -53.5 -132t-131.5 -54q-80 0 -135 53t-55 133zM1526 1724q0 -45 31.5 -76.5t76.5 -31.5 q47 0 80 30.5t33 77.5q0 45 -33 78t-80 33q-45 0 -76.5 -32t-31.5 -79z" />
<glyph unicode="&#xc6;" horiz-adv-x="1935" d="M268 487q0 72 74 142q51 -27 129 -27q57 0 104 8q2 4 101 142q174 246 354 419q264 256 453 256q53 0 53 -47q119 92 258 93q92 0 191 -58q109 -66 108 -151q0 -76 -33 -150q-41 -90 -104 -90q-139 0 -139 49q0 14 37.5 76.5t37.5 93.5q0 20 -18.5 37.5t-40.5 17.5 q-80 0 -162 -86t-82 -168q0 -96 76 -131q41 -18 158 -26q25 -6 24 -17q0 -25 -16 -69q-18 -53 -37 -58q-254 -53 -371 -122q-188 -111 -188 -318q0 -72 49 -131t119 -59q94 0 210 109.5t116 201.5q0 59 -64 59q-61 0 -119 -53q-27 -27 -82 -102q-41 -53 -59 -54 q-39 0 -39 58q0 115 117 196q104 74 227 74q78 0 134.5 -45t56.5 -121q0 -182 -156 -326.5t-340 -144.5q-164 0 -266.5 111.5t-102.5 277.5q0 59 13 117l-31 -8l-4 8q-106 -10 -324 -29q-33 -63 -92 -217q-55 -141 -94 -215q-14 -27 -21 -26q-31 0 -110 30q-88 33 -88 56 q0 39 69 172q49 90 97 180h-31q-152 -1 -152 65zM813 621q141 10 283 12l47 18q139 152 364 203q-59 31 -96 93.5t-37 129.5q0 111 72 211q-119 4 -352 -274q-181 -215 -281 -393z" />
<glyph unicode="&#xc7;" horiz-adv-x="1032" d="M168 412q0 174 92 411q100 256 248 422q172 193 354 193q100 0 195 -74q98 -80 98 -176q0 -70 -63 -215q-51 -119 -60 -127q-35 -43 -129 -49l-31 -2q-70 -4 -69 34q0 41 75.5 199t75.5 197q0 25 -26 24q-135 0 -271 -182q-115 -156 -196 -387q-74 -215 -74 -346 q0 -66 33 -123q39 -70 100 -70q76 0 187 90q68 53 176 168q84 90 96 90q16 0 36.5 -9t20.5 -23v-8q-2 -6 -2 -9q-43 -139 -166 -276q-127 -143 -258 -189q78 -55 78 -147q0 -125 -100.5 -240.5t-225.5 -115.5q-31 0 -54 25.5t-23 56.5q0 66 51 98q47 20 97 40.5t50 59.5 q0 57 -100 58q-39 0 -150 -29q51 143 181 199q-123 45 -189 176q-57 115 -57 256z" />
<glyph unicode="&#xc8;" horiz-adv-x="1038" d="M139 348q0 201 140 338q125 121 333 168q-59 31 -97 93.5t-38 127.5q0 160 130 279t292 119q90 0 188 -58q109 -68 109 -151q0 -76 -33 -150q-41 -90 -104 -90q-139 0 -139 47q0 14 37.5 77.5t37.5 94.5q0 20 -17 36.5t-40 16.5q-82 0 -164 -85t-82 -167q0 -96 76 -131 q41 -18 158 -26q25 -6 24 -17q0 -27 -16 -69q-18 -51 -37 -58q-47 -6 -139 -24q-420 -113 -420 -416q0 -72 49 -131t119 -59q94 0 209.5 109.5t115.5 203.5q0 57 -63 57q-61 0 -119 -53q-25 -25 -82 -102q-39 -53 -61 -54q-14 0 -25.5 20.5t-11.5 37.5q0 115 117 196 q104 74 227 74q78 0 134.5 -45t56.5 -121q0 -182 -155 -326.5t-339 -144.5q-164 0 -267.5 110.5t-103.5 272.5zM846 1851q0 74 67 74l7 -2q39 -12 57 -78q27 -92 33 -102q35 -55 137 -146l-12 -32q-84 39 -177 118q-112 98 -112 168z" />
<glyph unicode="&#xc9;" horiz-adv-x="1038" d="M139 348q0 201 140 338q125 121 333 168q-59 31 -97 93.5t-38 127.5q0 160 130 279t292 119q90 0 188 -58q109 -68 109 -151q0 -76 -33 -150q-41 -90 -104 -90q-139 0 -139 47q0 14 37.5 77.5t37.5 94.5q0 20 -17 36.5t-40 16.5q-82 0 -164 -85t-82 -167q0 -96 76 -131 q41 -18 158 -26q25 -6 24 -17q0 -27 -16 -69q-18 -51 -37 -58q-47 -6 -139 -24q-420 -113 -420 -416q0 -72 49 -131t119 -59q94 0 209.5 109.5t115.5 203.5q0 57 -63 57q-61 0 -119 -53q-25 -25 -82 -102q-39 -53 -61 -54q-14 0 -25.5 20.5t-11.5 37.5q0 115 117 196 q104 74 227 74q78 0 134.5 -45t56.5 -121q0 -182 -155 -326.5t-339 -144.5q-164 0 -267.5 110.5t-103.5 272.5zM969 1599q51 47 73 70q39 43 64 80q14 23 27.5 70t21.5 65q20 45 53 45q61 0 62 -69q0 -72 -111 -170q-92 -82 -178 -121z" />
<glyph unicode="&#xca;" horiz-adv-x="1038" d="M139 348q0 201 140 338q125 121 333 168q-59 31 -97 93.5t-38 127.5q0 160 130 279t292 119q90 0 188 -58q109 -68 109 -151q0 -76 -33 -150q-41 -90 -104 -90q-139 0 -139 47q0 14 37.5 77.5t37.5 94.5q0 20 -17 36.5t-40 16.5q-82 0 -164 -85t-82 -167q0 -96 76 -131 q41 -18 158 -26q25 -6 24 -17q0 -27 -16 -69q-18 -51 -37 -58q-47 -6 -139 -24q-420 -113 -420 -416q0 -72 49 -131t119 -59q94 0 209.5 109.5t115.5 203.5q0 57 -63 57q-61 0 -119 -53q-25 -25 -82 -102q-39 -53 -61 -54q-14 0 -25.5 20.5t-11.5 37.5q0 115 117 196 q104 74 227 74q78 0 134.5 -45t56.5 -121q0 -182 -155 -326.5t-339 -144.5q-164 0 -267.5 110.5t-103.5 272.5zM782 1595q168 125 318 318h26q59 -199 150 -326l-47 -16q-43 31 -78 94l-55 111q-63 -57 -127 -113q-78 -63 -148 -84z" />
<glyph unicode="&#xcb;" horiz-adv-x="1038" d="M139 348q0 201 140 338q125 121 333 168q-59 31 -97 93.5t-38 127.5q0 160 130 279t292 119q90 0 188 -58q109 -68 109 -151q0 -76 -33 -150q-41 -90 -104 -90q-139 0 -139 47q0 14 37.5 77.5t37.5 94.5q0 20 -17 36.5t-40 16.5q-82 0 -164 -85t-82 -167q0 -96 76 -131 q41 -18 158 -26q25 -6 24 -17q0 -27 -16 -69q-18 -51 -37 -58q-47 -6 -139 -24q-420 -113 -420 -416q0 -72 49 -131t119 -59q94 0 209.5 109.5t115.5 203.5q0 57 -63 57q-61 0 -119 -53q-25 -25 -82 -102q-39 -53 -61 -54q-14 0 -25.5 20.5t-11.5 37.5q0 115 117 196 q104 74 227 74q78 0 134.5 -45t56.5 -121q0 -182 -155 -326.5t-339 -144.5q-164 0 -267.5 110.5t-103.5 272.5zM737 1640q0 45 31 74t76 29q43 0 72.5 -28.5t29.5 -74.5q0 -43 -30.5 -72.5t-73.5 -29.5t-74 30.5t-31 71.5zM1120 1640q0 45 30 74t77 29q43 0 72.5 -28.5 t29.5 -74.5q0 -43 -30.5 -72.5t-73.5 -29.5t-74 29.5t-31 72.5z" />
<glyph unicode="&#xcc;" horiz-adv-x="1105" d="M246 127q0 18 24.5 38.5t42.5 20.5q4 0 47 -34.5t82 -34.5q184 0 373 520q-127 2 -207 65q-90 70 -90 195q0 258 291 395q227 106 522 107q94 0 99 -90q-4 -12 -11 -21q-33 -35 -94 -106q-86 -111 -186 -367q4 0 75 21q47 14 76 14q31 0 31 -41q0 -55 -252 -139 q-59 -141 -121 -281q-86 -184 -176 -280q-119 -127 -260 -127q-63 0 -158 43q-108 49 -108 102zM692 926q0 -72 45 -115t117 -43h25q98 213 178 334q35 45 98 133l10 20l-12 17h-16q-164 0 -297 -90q-148 -100 -148 -256zM1090 1825q0 72 65 71l6 -2q37 -8 58 -73 q31 -94 34 -103q39 -61 136 -149l-9 -31q-86 39 -178 119q-112 96 -112 168z" />
<glyph unicode="&#xcd;" horiz-adv-x="1105" d="M246 127q0 18 24.5 38.5t42.5 20.5q4 0 47 -34.5t82 -34.5q184 0 373 520q-127 2 -207 65q-90 70 -90 195q0 258 291 395q227 106 522 107q94 0 99 -90q-4 -12 -11 -21q-33 -35 -94 -106q-86 -111 -186 -367q4 0 75 21q47 14 76 14q31 0 31 -41q0 -55 -252 -139 q-59 -141 -121 -281q-86 -184 -176 -280q-119 -127 -260 -127q-63 0 -158 43q-108 49 -108 102zM692 926q0 -72 45 -115t117 -43h25q98 213 178 334q35 45 98 133l10 20l-12 17h-16q-164 0 -297 -90q-148 -100 -148 -256zM1237 1569q92 80 135 149q14 23 26.5 69t22.5 64 q23 45 58 45q57 0 57 -65q0 -74 -111 -172q-90 -82 -178 -121z" />
<glyph unicode="&#xce;" horiz-adv-x="1105" d="M246 127q0 18 24.5 38.5t42.5 20.5q4 0 47 -34.5t82 -34.5q184 0 373 520q-127 2 -207 65q-90 70 -90 195q0 258 291 395q227 106 522 107q94 0 99 -90q-4 -12 -11 -21q-33 -35 -94 -106q-86 -111 -186 -367q4 0 75 21q47 14 76 14q31 0 31 -41q0 -55 -252 -139 q-59 -141 -121 -281q-86 -184 -176 -280q-119 -127 -260 -127q-63 0 -158 43q-108 49 -108 102zM692 926q0 -72 45 -115t117 -43h25q98 213 178 334q35 45 98 133l10 20l-12 17h-16q-164 0 -297 -90q-148 -100 -148 -256zM1094 1542q186 147 317 320h27q55 -193 149 -326 l-47 -18q-43 31 -78 94q-29 57 -55 112q-63 -55 -127 -112q-80 -61 -147 -82z" />
<glyph unicode="&#xcf;" horiz-adv-x="1105" d="M246 127q0 18 24.5 38.5t42.5 20.5q4 0 47 -34.5t82 -34.5q184 0 373 520q-127 2 -207 65q-90 70 -90 195q0 258 291 395q227 106 522 107q94 0 99 -90q-4 -12 -11 -21q-33 -35 -94 -106q-86 -111 -186 -367q4 0 75 21q47 14 76 14q31 0 31 -41q0 -55 -252 -139 q-59 -141 -121 -281q-86 -184 -176 -280q-119 -127 -260 -127q-63 0 -158 43q-108 49 -108 102zM692 926q0 -72 45 -115t117 -43h25q98 213 178 334q35 45 98 133l10 20l-12 17h-16q-164 0 -297 -90q-148 -100 -148 -256zM1004 1620q0 41 29.5 71.5t72.5 30.5t73.5 -30.5 t30.5 -71.5q0 -45 -29.5 -73.5t-74.5 -28.5t-73.5 28.5t-28.5 73.5zM1382 1620q0 45 31 73.5t76 28.5q43 0 72.5 -29.5t29.5 -72.5q0 -45 -29.5 -73.5t-74.5 -28.5t-75 28.5t-30 73.5z" />
<glyph unicode="&#xd1;" horiz-adv-x="1495" d="M373 41q0 80 298 591t298 599q0 29 -32 45t-60 16q-72 0 -148 -82q-41 -45 -106 -149q-51 -84 -68 -86q-23 14 -48.5 46t-25.5 54q0 109 183 252q174 137 290 137q100 0 170 -53t76 -149q170 166 303 165q76 0 162 -43q100 -49 100 -116q0 -57 -84 -203l-405 -700 q-61 -106 -62 -183q0 -68 64 -67q66 0 182 104q88 80 150 162v-94q-240 -311 -457 -312q-82 0 -134 49.5t-52 133.5q0 100 133 344q23 39 250 418q133 223 133 274q0 45 -60 45q-47 0 -151 -109q-78 -82 -131 -157q-123 -174 -193 -291q-59 -100 -160.5 -310t-160.5 -309 q-39 -66 -107 -65q-147 0 -147 43zM1167 1554q14 72 56 121q47 57 114 58q43 0 118 -30t110 -30q43 0 69.5 30t51.5 60h32q-16 -76 -61 -131q-53 -66 -125 -65q-43 0 -126 27.5t-130 27.5q-43 0 -64 -68h-45z" />
<glyph unicode="&#xd2;" horiz-adv-x="1218" d="M274 356q0 184 107 439q113 266 278 442q188 203 381 203q115 0 201 -66q94 -74 94 -184q0 -92 -49 -168l2 -64q6 -205 -127 -448q20 8 90 59q63 45 78 45q37 0 47 -39q-16 -55 -121 -112q-92 -51 -161 -60q-145 -195 -232 -276q-164 -158 -303 -158q-137 0 -217 131 q-68 111 -68 256zM479 293q0 -59 34 -98t93 -39q127 0 316 266q-123 72 -123 252q0 162 82 311q98 174 247 174q23 0 48 -4q-23 113 -91 113q-119 0 -270 -203q-131 -172 -235 -418q-101 -235 -101 -354zM897 651q0 -106 72 -151q164 266 164 444q0 94 -58 94 q-82 0 -135 -157q-43 -126 -43 -230zM1010 1800q0 72 67 72l4 -2q37 -8 60 -74q29 -94 35 -102q31 -47 133 -150l-9 -31q-86 37 -178 119q-112 98 -112 168z" />
<glyph unicode="&#xd3;" horiz-adv-x="1218" d="M274 356q0 184 107 439q113 266 278 442q188 203 381 203q115 0 201 -66q94 -74 94 -184q0 -92 -49 -168l2 -64q6 -205 -127 -448q20 8 90 59q63 45 78 45q37 0 47 -39q-16 -55 -121 -112q-92 -51 -161 -60q-145 -195 -232 -276q-164 -158 -303 -158q-137 0 -217 131 q-68 111 -68 256zM479 293q0 -59 34 -98t93 -39q127 0 316 266q-123 72 -123 252q0 162 82 311q98 174 247 174q23 0 48 -4q-23 113 -91 113q-119 0 -270 -203q-131 -172 -235 -418q-101 -235 -101 -354zM897 651q0 -106 72 -151q164 266 164 444q0 94 -58 94 q-82 0 -135 -157q-43 -126 -43 -230zM1126 1577q49 47 136 147q14 23 26 70t21 66q23 45 57 45q59 0 59 -70q0 -74 -110 -170q-88 -78 -180 -121z" />
<glyph unicode="&#xd4;" horiz-adv-x="1218" d="M274 356q0 184 107 439q113 266 278 442q188 203 381 203q115 0 201 -66q94 -74 94 -184q0 -92 -49 -168l2 -64q6 -205 -127 -448q20 8 90 59q63 45 78 45q37 0 47 -39q-16 -55 -121 -112q-92 -51 -161 -60q-145 -195 -232 -276q-164 -158 -303 -158q-137 0 -217 131 q-68 111 -68 256zM479 293q0 -59 34 -98t93 -39q127 0 316 266q-123 72 -123 252q0 162 82 311q98 174 247 174q23 0 48 -4q-23 113 -91 113q-119 0 -270 -203q-131 -172 -235 -418q-101 -235 -101 -354zM897 651q0 -106 72 -151q164 266 164 444q0 94 -58 94 q-82 0 -135 -157q-43 -126 -43 -230zM938 1559q188 145 317 319h25q57 -190 150 -328l-46 -14q-43 31 -77 94q-4 4 -56 111q-63 -55 -127 -113q-78 -63 -145 -84z" />
<glyph unicode="&#xd5;" horiz-adv-x="1218" d="M274 356q0 184 107 439q113 266 278 442q188 203 381 203q115 0 201 -66q94 -74 94 -184q0 -92 -49 -168l2 -64q6 -205 -127 -448q20 8 90 59q63 45 78 45q37 0 47 -39q-16 -55 -121 -112q-92 -51 -161 -60q-145 -195 -232 -276q-164 -158 -303 -158q-137 0 -217 131 q-68 111 -68 256zM479 293q0 -59 34 -98t93 -39q127 0 316 266q-123 72 -123 252q0 162 82 311q98 174 247 174q23 0 48 -4q-23 113 -91 113q-119 0 -270 -203q-131 -172 -235 -418q-101 -235 -101 -354zM897 651q0 -106 72 -151q164 266 164 444q0 94 -58 94 q-82 0 -135 -157q-43 -126 -43 -230zM948 1559q14 72 53 120q47 59 113 60q47 0 122 -31t107 -31q45 0 72 30t51 60h35q-20 -74 -63 -127q-53 -66 -121 -65q-45 0 -129 26.5t-129 26.5q-29 0 -45 -22q-4 -6 -23 -47h-43z" />
<glyph unicode="&#xd6;" horiz-adv-x="1218" d="M274 356q0 184 107 439q113 266 278 442q188 203 381 203q115 0 201 -66q94 -74 94 -184q0 -92 -49 -168l2 -64q6 -205 -127 -448q20 8 90 59q63 45 78 45q37 0 47 -39q-16 -55 -121 -112q-92 -51 -161 -60q-145 -195 -232 -276q-164 -158 -303 -158q-137 0 -217 131 q-68 111 -68 256zM479 293q0 -59 34 -98t93 -39q127 0 316 266q-123 72 -123 252q0 162 82 311q98 174 247 174q23 0 48 -4q-23 113 -91 113q-119 0 -270 -203q-131 -172 -235 -418q-101 -235 -101 -354zM887 1636q0 45 29.5 74t74.5 29q43 0 73 -30t30 -73t-31 -72.5 t-74 -29.5t-72.5 30.5t-29.5 71.5zM897 651q0 -106 72 -151q164 266 164 444q0 94 -58 94q-82 0 -135 -157q-43 -126 -43 -230zM1268 1636q0 43 30.5 73t73.5 30t74 -30t31 -73t-31 -72.5t-74 -29.5t-73.5 29.5t-30.5 72.5z" />
<glyph unicode="&#xd8;" horiz-adv-x="1218" d="M274 356q0 184 107 439q113 268 278 442q190 203 383 203q104 0 185 -56l35 54h84l-66 -103q55 -61 55 -143q0 -98 -49 -170l2 -41q4 -61 -14 -168q-39 -233 -260 -524q-248 -319 -461 -320q-57 0 -119 39l-39 -61h-86l68 106q-103 121 -103 303zM477 293q0 -31 12 -62 l648 1016q-14 20 -50 21q-119 0 -272 -203q-133 -172 -237 -418q-101 -235 -101 -354zM539 172q29 -16 67 -16q76 0 180 98q80 78 136 168q150 246 174 293q90 178 90 323q0 61 -19 119z" />
<glyph unicode="&#xd9;" horiz-adv-x="1550" d="M604 182q0 127 228.5 547t228.5 483q0 20 -18.5 37t-38.5 17q-117 0 -271 -314q-35 0 -57.5 30t-22.5 65q0 143 121 255.5t268 112.5q96 0 169 -53t73 -145q0 -117 -108 -334q-16 -31 -205 -361q-109 -195 -109 -256q0 -37 37 -37q88 0 369 492l331 614q18 35 26.5 43 t43.5 17h41h92q66 -6 66 -37t-296 -560.5t-296 -604.5q0 -29 20.5 -50.5t46.5 -21.5q51 0 164 106q86 82 140 154v-94q-246 -301 -408 -301q-109 0 -174 178q-80 -88 -121 -119q-76 -55 -160 -55q-72 0 -126 60t-54 132zM1217 1819q0 74 67 73l6 -2q37 -8 58 -75 q29 -92 34 -103q25 -39 134 -147l-9 -31q-84 39 -178 119q-112 98 -112 166z" />
<glyph unicode="&#xda;" horiz-adv-x="1550" d="M604 182q0 127 228.5 547t228.5 483q0 20 -18.5 37t-38.5 17q-117 0 -271 -314q-35 0 -57.5 30t-22.5 65q0 143 121 255.5t268 112.5q96 0 169 -53t73 -145q0 -117 -108 -334q-16 -31 -205 -361q-109 -195 -109 -256q0 -37 37 -37q88 0 369 492l331 614q18 35 26.5 43 t43.5 17h41h92q66 -6 66 -37t-296 -560.5t-296 -604.5q0 -29 20.5 -50.5t46.5 -21.5q51 0 164 106q86 82 140 154v-94q-246 -301 -408 -301q-109 0 -174 178q-80 -88 -121 -119q-76 -55 -160 -55q-72 0 -126 60t-54 132zM1358 1538q37 35 74.5 73t60.5 75q12 23 24.5 69.5 t22.5 65.5q23 45 55 45q61 0 62 -70q0 -74 -111 -172q-90 -80 -180 -119z" />
<glyph unicode="&#xdb;" horiz-adv-x="1550" d="M604 182q0 127 228.5 547t228.5 483q0 20 -18.5 37t-38.5 17q-117 0 -271 -314q-35 0 -57.5 30t-22.5 65q0 143 121 255.5t268 112.5q96 0 169 -53t73 -145q0 -117 -108 -334q-16 -31 -205 -361q-109 -195 -109 -256q0 -37 37 -37q88 0 369 492l331 614q18 35 26.5 43 t43.5 17h41h92q66 -6 66 -37t-296 -560.5t-296 -604.5q0 -29 20.5 -50.5t46.5 -21.5q51 0 164 106q86 82 140 154v-94q-246 -301 -408 -301q-109 0 -174 178q-80 -88 -121 -119q-76 -55 -160 -55q-72 0 -126 60t-54 132zM1182 1556q182 141 317 316h27q53 -184 147 -326 l-45 -14q-43 31 -78 94q-4 4 -55 111q-63 -57 -127 -113q-80 -63 -147 -84z" />
<glyph unicode="&#xdc;" horiz-adv-x="1550" d="M604 182q0 127 228.5 547t228.5 483q0 20 -18.5 37t-38.5 17q-117 0 -271 -314q-35 0 -57.5 30t-22.5 65q0 143 121 255.5t268 112.5q96 0 169 -53t73 -145q0 -117 -108 -334q-16 -31 -205 -361q-109 -195 -109 -256q0 -37 37 -37q88 0 369 492l331 614q18 35 26.5 43 t43.5 17h41h92q66 -6 66 -37t-296 -560.5t-296 -604.5q0 -29 20.5 -50.5t46.5 -21.5q51 0 164 106q86 82 140 154v-94q-246 -301 -408 -301q-109 0 -174 178q-80 -88 -121 -119q-76 -55 -160 -55q-72 0 -126 60t-54 132zM1182 1636q0 43 29.5 73t72.5 30t74 -30t31 -73 t-31 -72.5t-74 -29.5t-72.5 30.5t-29.5 71.5zM1563 1636q0 45 30.5 74t75.5 29q41 0 72 -30t31 -73t-30 -72.5t-75 -29.5q-43 0 -73.5 29.5t-30.5 72.5z" />
<glyph unicode="&#xdd;" horiz-adv-x="1435" d="M926 1596q96 80 143 155q16 25 29 70q14 57 21 70q18 47 57 47q63 0 63 -74q0 -76 -114 -176q-94 -82 -187 -125zM621 250q0 154 104 371q31 63 193 348q104 182 104 250q0 16 -15.5 29.5t-31.5 13.5q-63 0 -125 -80q-37 -45 -90 -146q-41 -80 -53 -80q-25 0 -54.5 41 t-29.5 66q0 104 132 234t249 130q84 0 159 -47q86 -53 86 -133q0 -111 -106 -311q-98 -170 -197 -342q-106 -188 -106 -268q0 -68 69 -68q55 0 121 117q158 276 467 833q18 35 59 105q33 53 70 63q16 4 96 4q127 0 127 -22q0 -10 -475 -914q-481 -920 -547 -1026 q-10 -14 -20 -14q-39 16 -76 47q-47 39 -47 70q0 66 266 588q-82 -66 -162 -66q-76 0 -122 68q-45 61 -45 139z" />
<glyph unicode="&#xdf;" horiz-adv-x="884" d="M-41 -90q0 127 68 309q61 147 120 295q-31 41 -30 90q0 49 32.5 86t81.5 43q80 162 254 475q47 74 96.5 103.5t133.5 29.5q115 0 192 -45q94 -55 94 -161q0 -96 -65 -199q-61 -82 -125 -162q-66 -90 -66 -153q0 -41 14.5 -122t14.5 -124q0 -115 -24 -223q104 59 231 229 v-94q-252 -307 -418 -307q-254 0 -254 315q0 168 78 168q63 0 64 -86q0 -94 -66 -123q16 -109 104 -109q145 0 146 234q0 43 -15.5 124t-15.5 122q0 96 64 186l118 139q63 82 64 160q0 43 -28.5 68.5t-71.5 25.5q-90 0 -246 -303q-133 -256 -256 -606q-117 -336 -123 -455 q-4 -94 -90 -94q-76 0 -76 164z" />
<glyph unicode="&#xe0;" horiz-adv-x="817" d="M37 240q0 178 123 352q133 190 305 190q109 0 168 -55q41 55 104 55q125 0 125 -24q0 -27 -134 -260.5t-134 -298.5q0 -45 55 -45q96 0 264 227v-94q-246 -305 -397 -305q-90 0 -117 108q-82 -109 -176 -108q-90 0 -141 88q-45 74 -45 170zM215 201q0 -61 49 -62 q72 0 182 187q104 176 105 256q0 23 -21.5 38t-46.5 15q-111 0 -194 -168q-74 -143 -74 -266zM428 1174q0 74 66 73h6q35 -12 57 -80q29 -90 35 -100q31 -47 135 -147l-10 -31q-84 39 -176 119q-113 98 -113 166z" />
<glyph unicode="&#xe1;" horiz-adv-x="817" d="M37 240q0 178 123 352q133 190 305 190q109 0 168 -55q41 55 104 55q125 0 125 -24q0 -27 -134 -260.5t-134 -298.5q0 -45 55 -45q96 0 264 227v-94q-246 -305 -397 -305q-90 0 -117 108q-82 -109 -176 -108q-90 0 -141 88q-45 74 -45 170zM215 201q0 -61 49 -62 q72 0 182 187q104 176 105 256q0 23 -21.5 38t-46.5 15q-111 0 -194 -168q-74 -143 -74 -266zM563 928q49 47 135 149q14 23 27 66q14 51 23 67q20 45 57 45q59 0 59 -67q0 -76 -110 -172q-88 -76 -181 -119z" />
<glyph unicode="&#xe2;" horiz-adv-x="817" d="M37 240q0 178 123 352q133 190 305 190q109 0 168 -55q41 55 104 55q125 0 125 -24q0 -27 -134 -260.5t-134 -298.5q0 -45 55 -45q96 0 264 227v-94q-246 -305 -397 -305q-90 0 -117 108q-82 -109 -176 -108q-90 0 -141 88q-45 74 -45 170zM215 201q0 -61 49 -62 q72 0 182 187q104 176 105 256q0 23 -21.5 38t-46.5 15q-111 0 -194 -168q-74 -143 -74 -266zM317 918q184 143 318 317h24q59 -197 150 -328l-47 -14q-41 31 -78 94l-53 111q-63 -55 -127 -113q-80 -63 -148 -84z" />
<glyph unicode="&#xe3;" horiz-adv-x="817" d="M37 240q0 178 123 352q133 190 305 190q109 0 168 -55q41 55 104 55q125 0 125 -24q0 -27 -134 -260.5t-134 -298.5q0 -45 55 -45q96 0 264 227v-94q-246 -305 -397 -305q-90 0 -117 108q-82 -109 -176 -108q-90 0 -141 88q-45 74 -45 170zM215 201q0 -61 49 -62 q72 0 182 187q104 176 105 256q0 23 -21.5 38t-46.5 15q-111 0 -194 -168q-74 -143 -74 -266zM344 883q12 72 51 121q47 59 113 59q45 0 119.5 -31t109.5 -31q45 0 72 30t53 61h33q-16 -72 -64 -129q-55 -66 -122 -66q-43 0 -125 26.5t-127 26.5q-31 0 -47 -20 q-6 -8 -25 -47h-41z" />
<glyph unicode="&#xe4;" horiz-adv-x="817" d="M37 240q0 178 123 352q133 190 305 190q109 0 168 -55q41 55 104 55q125 0 125 -24q0 -27 -134 -260.5t-134 -298.5q0 -45 55 -45q96 0 264 227v-94q-246 -305 -397 -305q-90 0 -117 108q-82 -109 -176 -108q-90 0 -141 88q-45 74 -45 170zM215 201q0 -61 49 -62 q72 0 182 187q104 176 105 256q0 23 -21.5 38t-46.5 15q-111 0 -194 -168q-74 -143 -74 -266zM360 993q0 43 31 73t74 30t73.5 -30t30.5 -73q0 -45 -30.5 -73.5t-75.5 -28.5q-43 0 -73 29.5t-30 72.5zM741 993q0 43 31 73t74 30t73.5 -30t30.5 -73q0 -45 -30.5 -73.5 t-75.5 -28.5q-41 0 -72 29.5t-31 72.5z" />
<glyph unicode="&#xe5;" horiz-adv-x="817" d="M37 240q0 178 123 352q133 190 305 190q109 0 168 -55q41 55 104 55q125 0 125 -24q0 -27 -134 -260.5t-134 -298.5q0 -45 55 -45q96 0 264 227v-94q-246 -305 -397 -305q-90 0 -117 108q-82 -109 -176 -108q-90 0 -141 88q-45 74 -45 170zM215 201q0 -61 49 -62 q72 0 182 187q104 176 105 256q0 23 -21.5 38t-46.5 15q-111 0 -194 -168q-74 -143 -74 -266zM446 1077q0 74 54.5 129.5t128.5 55.5q86 0 139 -50.5t53 -134.5q0 -78 -52 -132t-130 -54q-80 0 -136.5 53t-56.5 133zM524 1077q0 -47 33 -79.5t78 -32.5q47 0 80 33.5t33 78.5 t-33 77t-78 32q-47 0 -80 -32t-33 -77z" />
<glyph unicode="&#xe6;" horiz-adv-x="1058" d="M37 240q0 178 123 352q133 190 305 190q53 0 108 -22q68 -25 84 -66q74 66 152 66q82 0 143 -45q70 -51 70 -131q0 -119 -84 -226q-92 -117 -207 -116q-51 0 -78 24q-23 -27 -22 -61q0 -43 42 -76t87 -33q170 0 383 285v-94q-125 -150 -182 -199q-123 -106 -242 -106 q-88 0 -162 51q-80 53 -92 135q-135 -186 -240 -186q-92 0 -143 88q-45 74 -45 170zM215 201q0 -61 45 -62q74 0 186 193q102 178 103 250q0 23 -20.5 38t-45.5 15q-111 0 -194 -168q-74 -143 -74 -266zM690 416q0 -39 49 -39q55 0 101 80q41 72 41 131q0 47 -45 47 q-51 0 -101 -86q-45 -78 -45 -133z" />
<glyph unicode="&#xe7;" horiz-adv-x="659" d="M78 289q0 154 115 315q125 176 272 176q82 0 149 -32q84 -39 84 -113q0 -197 -161 -197q-68 0 -68 54q0 27 20.5 72.5t20.5 70.5q0 23 -29 22q-72 0 -147 -174q-70 -156 -70 -241q0 -63 38 -102.5t101 -39.5q160 0 371 281v-96q-63 -88 -166 -174q-117 -98 -202 -117 q43 -10 69.5 -51t26.5 -86q0 -106 -83 -204.5t-190 -98.5q-29 0 -49 22.5t-20 50.5q0 66 83 97.5t83 68.5q0 49 -80 49q-25 0 -131 -26q51 139 182 176q-219 55 -219 297z" />
<glyph unicode="&#xe8;" horiz-adv-x="636" d="M39 262q0 145 104 311q115 186 252 187q82 0 146.5 -49t64.5 -129q0 -119 -84 -226q-90 -115 -205 -114q-45 0 -79 24q-23 -27 -23 -61q0 -43 43 -76t88 -33q164 0 383 285v-94q-129 -152 -184 -199q-123 -106 -240 -106q-125 0 -195.5 77.5t-70.5 202.5zM268 1182 q0 72 68 71l6 -2q37 -8 57 -75q29 -92 33 -101q33 -55 137 -149l-12 -31q-84 39 -176 119q-113 100 -113 168zM274 416q0 -39 50 -39q55 0 102 80q41 70 41 131q0 47 -45 47q-51 0 -103 -86q-45 -78 -45 -133z" />
<glyph unicode="&#xe9;" horiz-adv-x="636" d="M39 262q0 145 104 311q115 186 252 187q82 0 146.5 -49t64.5 -129q0 -119 -84 -226q-90 -115 -205 -114q-45 0 -79 24q-23 -27 -23 -61q0 -43 43 -76t88 -33q164 0 383 285v-94q-129 -152 -184 -199q-123 -106 -240 -106q-125 0 -195.5 77.5t-70.5 202.5zM274 416 q0 -39 50 -39q55 0 102 80q41 70 41 131q0 47 -45 47q-51 0 -103 -86q-45 -78 -45 -133zM377 926q49 47 135 149q14 20 25.5 67.5t21.5 65.5q23 45 59 45q57 0 58 -67q0 -74 -111 -172q-90 -80 -180 -119z" />
<glyph unicode="&#xea;" horiz-adv-x="636" d="M39 262q0 145 104 311q115 186 252 187q82 0 146.5 -49t64.5 -129q0 -119 -84 -226q-90 -115 -205 -114q-45 0 -79 24q-23 -27 -23 -61q0 -43 43 -76t88 -33q164 0 383 285v-94q-129 -152 -184 -199q-123 -106 -240 -106q-125 0 -195.5 77.5t-70.5 202.5zM213 897 q186 143 317 317h25q59 -195 150 -325l-46 -17q-43 31 -77 95q-29 57 -56 112q-123 -111 -127 -112q-78 -63 -145 -84zM274 416q0 -39 50 -39q55 0 102 80q41 70 41 131q0 47 -45 47q-51 0 -103 -86q-45 -78 -45 -133z" />
<glyph unicode="&#xeb;" horiz-adv-x="636" d="M39 262q0 145 104 311q115 186 252 187q82 0 146.5 -49t64.5 -129q0 -119 -84 -226q-90 -115 -205 -114q-45 0 -79 24q-23 -27 -23 -61q0 -43 43 -76t88 -33q164 0 383 285v-94q-129 -152 -184 -199q-123 -106 -240 -106q-125 0 -195.5 77.5t-70.5 202.5zM219 993 q0 45 30 74t75 29q43 0 72.5 -30t29.5 -73t-30.5 -72.5t-73.5 -29.5t-73 29.5t-30 72.5zM274 416q0 -39 50 -39q55 0 102 80q41 70 41 131q0 47 -45 47q-51 0 -103 -86q-45 -78 -45 -133zM600 993q0 43 31 73t74 30t73.5 -30t30.5 -73t-30.5 -72.5t-73.5 -29.5t-74 29.5 t-31 72.5z" />
<glyph unicode="&#xec;" horiz-adv-x="458" d="M27 154q0 104 79 284q66 131 130 262q14 33 23 40.5t42 7.5h125q29 0 29 -17q0 -25 -121 -246t-121 -299q0 -55 53 -55q49 0 156 102q90 84 131 148v-94q-57 -94 -176 -193q-135 -111 -227 -110q-123 0 -123 170zM197 1178q0 74 65 73l6 -2q39 -8 60 -75q27 -92 32 -103 q20 -33 136 -147l-9 -31q-86 37 -178 119q-112 96 -112 166z" />
<glyph unicode="&#xed;" horiz-adv-x="458" d="M27 154q0 104 79 284q66 131 130 262q14 33 23 40.5t42 7.5h125q29 0 29 -17q0 -25 -121 -246t-121 -299q0 -55 53 -55q49 0 156 102q90 84 131 148v-94q-57 -94 -176 -193q-135 -111 -227 -110q-123 0 -123 170zM338 926q49 45 133 149q14 20 27.5 67.5t21.5 65.5 q20 45 58 45q59 0 59 -67q0 -74 -111 -172q-90 -80 -180 -119z" />
<glyph unicode="&#xee;" horiz-adv-x="458" d="M27 154q0 104 79 284q66 131 130 262q14 33 23 40.5t42 7.5h125q29 0 29 -17q0 -25 -121 -246t-121 -299q0 -55 53 -55q49 0 156 102q90 84 131 148v-94q-57 -94 -176 -193q-135 -111 -227 -110q-123 0 -123 170zM180 915q182 141 318 316h26q59 -197 150 -326l-45 -14 q-55 41 -135 205q-63 -57 -127 -113q-78 -63 -146 -84z" />
<glyph unicode="&#xef;" horiz-adv-x="458" d="M27 154q0 104 79 284q66 131 130 262q14 33 23 40.5t42 7.5h125q29 0 29 -17q0 -25 -121 -246t-121 -299q0 -55 53 -55q49 0 156 102q90 84 131 148v-94q-57 -94 -176 -193q-135 -111 -227 -110q-123 0 -123 170zM170 1001q0 43 30.5 74t71.5 31q43 0 74 -31t31 -74 t-30 -73.5t-75 -30.5q-43 0 -72.5 30.5t-29.5 73.5zM551 1001q0 45 29.5 74t74.5 29q43 0 73 -30t30 -73q0 -45 -30 -74.5t-75 -29.5q-43 0 -72.5 30.5t-29.5 73.5z" />
<glyph unicode="&#xf1;" horiz-adv-x="763" d="M-94 27q0 51 157 358q82 158 164 313q31 59 86 60q72 0 86.5 -6.5t46.5 -51.5q27 0 80.5 18.5t81.5 18.5q129 0 129 -94q0 -29 -111.5 -217t-111.5 -244q0 -53 43 -53q57 0 162 100q74 72 131 150v-92q-72 -104 -174 -191q-129 -113 -223 -112q-61 0 -107 34 q-51 39 -51 97q0 86 94 250.5t94 169.5q0 16 -26 16q-70 0 -195 -209q-37 -61 -149 -281q-33 -66 -74 -65q-133 0 -133 31zM336 879q12 72 51 122q47 59 115 60q45 0 119.5 -31t109.5 -31q45 0 70.5 30t50.5 61h35q-18 -74 -64 -129q-53 -66 -121 -66q-43 0 -125.5 26.5 t-127.5 26.5q-47 0 -70 -69h-43z" />
<glyph unicode="&#xf2;" horiz-adv-x="743" d="M31 242q0 182 116 344q127 178 304 178q98 0 167.5 -55.5t69.5 -151.5q0 -63 -22.5 -156.5t-53.5 -148.5q16 -12 33 -12q61 0 131 73q61 63 88 131v-110q-31 -70 -94 -118t-135 -48q-25 0 -53 14q-131 -199 -297 -198q-109 0 -181.5 74.5t-72.5 183.5zM207 236 q0 -109 80 -109q53 0 104 51q45 43 66 101q-37 61 -37 133q0 137 106 145v8q0 27 -22.5 44.5t-50.5 17.5q-98 0 -177 -152q-69 -130 -69 -239zM324 1176q0 74 67 73h6q33 -10 56 -78q31 -92 36 -102q23 -35 136 -147l-13 -31q-84 39 -176 119q-112 98 -112 166z" />
<glyph unicode="&#xf3;" horiz-adv-x="743" d="M31 242q0 182 116 344q127 178 304 178q98 0 167.5 -55.5t69.5 -151.5q0 -63 -22.5 -156.5t-53.5 -148.5q16 -12 33 -12q61 0 131 73q61 63 88 131v-110q-31 -70 -94 -118t-135 -48q-25 0 -53 14q-131 -199 -297 -198q-109 0 -181.5 74.5t-72.5 183.5zM207 236 q0 -109 80 -109q53 0 104 51q45 43 66 101q-37 61 -37 133q0 137 106 145v8q0 27 -22.5 44.5t-50.5 17.5q-98 0 -177 -152q-69 -130 -69 -239zM471 922q55 51 74 69q41 41 63 78q14 25 27 68q12 51 20 69q20 43 56 43q61 0 61 -67q0 -74 -110 -170q-90 -82 -179 -121z" />
<glyph unicode="&#xf4;" horiz-adv-x="743" d="M31 242q0 182 116 344q127 178 304 178q98 0 167.5 -55.5t69.5 -151.5q0 -63 -22.5 -156.5t-53.5 -148.5q16 -12 33 -12q61 0 131 73q61 63 88 131v-110q-31 -70 -94 -118t-135 -48q-25 0 -53 14q-131 -199 -297 -198q-109 0 -181.5 74.5t-72.5 183.5zM207 236 q0 -109 80 -109q53 0 104 51q45 43 66 101q-37 61 -37 133q0 137 106 145v8q0 27 -22.5 44.5t-50.5 17.5q-98 0 -177 -152q-69 -130 -69 -239zM260 918q174 131 318 317h26q59 -197 150 -328l-47 -14q-53 39 -134 205q-63 -55 -127 -113q-78 -63 -145 -84z" />
<glyph unicode="&#xf5;" horiz-adv-x="743" d="M31 242q0 182 116 344q127 178 304 178q98 0 167.5 -55.5t69.5 -151.5q0 -63 -22.5 -156.5t-53.5 -148.5q14 -10 29 -10q111 0 201 161l22 -79q-35 -66 -94 -109q-66 -47 -135 -47q-25 0 -53 14q-131 -199 -297 -198q-109 0 -181.5 74.5t-72.5 183.5zM207 236 q0 -109 80 -109q53 0 104 51q45 43 66 101q-37 61 -37 133q0 137 106 145v8q0 27 -22.5 44.5t-50.5 17.5q-98 0 -177 -152q-69 -130 -69 -239zM281 874q35 180 165 181q45 0 120 -30t110 -30q43 0 69.5 30t53.5 58h32q-16 -74 -63 -129q-55 -66 -123 -65q-45 0 -128 27.5 t-128 27.5q-29 0 -45 -22q0 -2 -22 -48h-41z" />
<glyph unicode="&#xf6;" horiz-adv-x="743" d="M31 242q0 182 116 344q127 178 304 178q98 0 167.5 -55.5t69.5 -151.5q0 -63 -22.5 -156.5t-53.5 -148.5q14 -10 29 -10q111 0 201 161l22 -79q-35 -66 -94 -109q-66 -47 -135 -47q-25 0 -53 14q-131 -199 -297 -198q-109 0 -181.5 74.5t-72.5 183.5zM207 236 q0 -109 80 -109q53 0 104 51q45 43 66 101q-37 61 -37 133q0 137 106 145v8q0 27 -22.5 44.5t-50.5 17.5q-98 0 -177 -152q-69 -130 -69 -239zM221 985q0 43 30 72.5t75 29.5q43 0 72.5 -29.5t29.5 -72.5t-29.5 -72.5t-74.5 -29.5q-43 0 -73 29.5t-30 72.5zM602 985 q0 43 31 72.5t74 29.5t73.5 -30.5t30.5 -71.5q0 -43 -30.5 -72.5t-73.5 -29.5t-74 29.5t-31 72.5z" />
<glyph unicode="&#xf7;" horiz-adv-x="636" d="M-3424 -897q201 229 321 332q172 150 389 248q362 164 1078 163q229 0 491 -14q137 -8 598 -53q373 -37 598 -37q285 0 473 86q254 115 254 365q0 137 -84 229t-223 92q-131 0 -246 -90q-49 -41 -184 -195l-35 50q121 152 201 210q123 92 272 93q182 0 297 -114t115 -294 q0 -401 -410 -536q-231 -76 -743 -76q-199 0 -595 18.5t-595 18.5q-440 0 -737 -84q-399 -115 -615 -392q-123 70 -262 70q-151 0 -358 -90z" />
<glyph unicode="&#xf8;" horiz-adv-x="743" d="M23 -6l63 80q-55 68 -55 168q0 182 116 344q127 178 306 178q80 0 143 -37l29 35h84l-64 -82q43 -49 43 -135q0 -43 -41 -195q-43 -162 -65 -168q-131 -199 -297 -198q-74 0 -148 47l-28 -37h-86zM207 229l303 383q-43 14 -57 15q-100 0 -179 -154q-67 -131 -67 -244z M233 154q14 -27 62 -27q49 0 88 45q31 39 61 80q8 0 23 12q96 156 96 242q0 25 -14 49z" />
<glyph unicode="&#xf9;" horiz-adv-x="804" d="M8 141q0 78 113 334q115 264 164 270q18 4 59 5q115 0 115 -21q0 -12 -122 -239.5t-122 -266.5q0 -35 37 -35q31 0 49 13q31 20 129 211q59 121 121 241q41 74 106 74q123 0 123 -37q0 -18 -109.5 -219t-109.5 -301q0 -41 41 -41q57 0 164 100q82 78 135 152v-94 q-244 -307 -393 -307q-92 0 -150 118q-129 -100 -211 -100q-139 0 -139 143zM365 1163q0 72 65 72h6q25 -6 29 -11t16 -34l19 -68q27 -88 164 -215l-9 -30q-88 41 -178 118q-112 96 -112 168z" />
<glyph unicode="&#xfa;" horiz-adv-x="804" d="M8 141q0 78 113 334q115 264 164 270q18 4 59 5q115 0 115 -21q0 -12 -122 -239.5t-122 -266.5q0 -35 37 -35q31 0 49 13q31 20 129 211q59 121 121 241q41 74 106 74q123 0 123 -37q0 -18 -109.5 -219t-109.5 -301q0 -41 41 -41q57 0 164 100q82 78 135 152v-94 q-244 -307 -393 -307q-92 0 -150 118q-129 -100 -211 -100q-139 0 -139 143zM512 899q98 90 135 150q14 23 27.5 70.5t21.5 64.5q20 45 54 45q61 0 61 -68q0 -72 -111 -170q-88 -80 -178 -123z" />
<glyph unicode="&#xfb;" horiz-adv-x="804" d="M8 141q0 78 113 334q115 264 164 270q18 4 59 5q115 0 115 -21q0 -12 -122 -239.5t-122 -266.5q0 -35 37 -35q31 0 49 13q31 20 129 211q59 121 121 241q41 74 106 74q123 0 123 -37q0 -18 -109.5 -219t-109.5 -301q0 -41 41 -41q57 0 164 100q82 78 135 152v-94 q-244 -307 -393 -307q-92 0 -150 118q-129 -100 -211 -100q-139 0 -139 143zM289 915q182 141 317 316h27q59 -195 147 -326l-45 -14q-53 39 -133 205q-63 -57 -127 -113q-80 -63 -147 -84z" />
<glyph unicode="&#xfc;" horiz-adv-x="804" d="M8 141q0 78 113 334q115 264 164 270q18 4 59 5q115 0 115 -21q0 -12 -122 -239.5t-122 -266.5q0 -35 37 -35q31 0 49 13q31 20 129 211q59 121 121 241q41 74 106 74q123 0 123 -37q0 -18 -109.5 -219t-109.5 -301q0 -41 41 -41q57 0 164 100q82 78 135 152v-94 q-244 -307 -393 -307q-92 0 -150 118q-129 -100 -211 -100q-139 0 -139 143zM289 993q0 43 30.5 73t73.5 30q41 0 72 -30t31 -73t-31 -72.5t-72 -29.5q-43 0 -73.5 29.5t-30.5 72.5zM670 993q0 43 31.5 73t74.5 30t73 -30t30 -73q0 -45 -30 -73.5t-75 -28.5 q-43 0 -73.5 29.5t-30.5 72.5z" />
<glyph unicode="&#xfd;" horiz-adv-x="776" d="M588 920q96 80 143 155q16 25 29 70q14 57 21 70q18 47 57 47q63 0 63 -74q0 -76 -114 -176q-94 -82 -187 -125zM-137 -492q0 150 151 279q131 100 265 203l38 106q-96 -96 -184 -96q-55 0 -92 46t-37 101q0 141 197 519q39 74 118 73q96 0 97 -22q0 -35 -114 -239 t-114 -259q0 -31 35 -31q66 0 142 146q63 137 129 274q76 147 141 152h53q59 0 60 -27q0 -35 -105 -301q-68 -166 -133 -332q150 12 354 281v-94q-195 -262 -413 -318q-217 -604 -447 -604q-59 0 -100 43t-41 100zM-27 -465q0 -18 12.5 -35.5t30.5 -17.5q86 0 222 362 q-90 -55 -166 -133q-99 -100 -99 -176z" />
<glyph unicode="&#xff;" horiz-adv-x="776" d="M-137 -492q0 150 151 279q131 100 265 203l38 106q-96 -96 -184 -96q-55 0 -92 46t-37 101q0 141 197 519q39 74 118 73q96 0 97 -22q0 -35 -114 -239t-114 -259q0 -31 35 -31q66 0 142 146q63 137 129 274q76 147 141 152h53q59 0 60 -27q0 -35 -105 -301 q-68 -166 -133 -332q150 12 354 281v-94q-195 -262 -413 -318q-217 -604 -447 -604q-59 0 -100 43t-41 100zM-27 -465q0 -18 12.5 -35.5t30.5 -17.5q86 0 222 362q-90 -55 -166 -133q-99 -100 -99 -176zM260 993q0 43 31 73t74 30t72.5 -30t29.5 -73t-29.5 -72.5 t-72.5 -29.5t-74 29.5t-31 72.5zM641 993q0 43 32 73t75 30t72.5 -30t29.5 -73q0 -45 -29.5 -73.5t-75.5 -28.5q-43 0 -73.5 29.5t-30.5 72.5z" />
<glyph unicode="&#x152;" horiz-adv-x="1693" d="M274 356q0 184 107 439q113 268 278 442q188 203 381 203q137 0 226 -88q115 119 288 118q92 0 191 -57q109 -63 108 -149q0 -74 -32 -148q-41 -92 -105 -92q-139 0 -139 47q0 14 39 77.5t39 94.5q0 20 -18.5 37.5t-41.5 17.5q-82 0 -164.5 -86t-82.5 -168q0 -90 67 -124 q37 -18 127 -29q68 -8 68 -31t-19.5 -66.5t-36.5 -50.5q-47 -6 -141 -24q-178 -47 -287 -141q-131 -115 -131 -279q0 -70 49.5 -128t118.5 -58q94 0 211 109.5t117 201.5q0 59 -64 59q-63 0 -120 -53q-25 -25 -82 -102q-41 -53 -62 -54q-35 0 -35 56q0 117 115 198 q104 74 227 74q78 0 134 -41q57 -47 57 -123q0 -182 -154.5 -327.5t-341.5 -145.5q-195 0 -301 152q-139 -147 -291 -148q-145 0 -227 127q-72 108 -72 260zM479 293q0 -59 34 -98t93 -39q88 0 201 92q-10 43 -10 106q0 197 141 334q125 119 332 166q-63 35 -90 145l-33 185 q-23 92 -80 92q-106 0 -256 -209q-127 -178 -231 -426q-101 -239 -101 -348z" />
<glyph unicode="&#x153;" horiz-adv-x="1056" d="M31 242q0 182 116 344q127 178 306 178q129 0 192 -84q82 82 170 82q82 0 143 -47q70 -51 70 -131q0 -117 -86 -226q-90 -115 -205 -114q-53 0 -80 24q-23 -27 -22 -61q0 -41 44 -75t87 -34q166 0 385 285v-94q-129 -152 -184 -199q-123 -106 -242 -106q-141 0 -215 104 q-100 -104 -225 -104q-109 0 -181.5 74.5t-72.5 183.5zM207 236q0 -109 80 -109q37 0 94 23.5t82 50.5q-4 37 -4 57q0 127 96 301q-10 68 -102 68q-98 0 -177 -152q-69 -130 -69 -239zM694 420q0 -41 49 -41q57 0 103 78q39 70 39 131q0 49 -45 49q-49 0 -101 -86 q-45 -78 -45 -131z" />
<glyph unicode="&#x178;" horiz-adv-x="1435" d="M621 250q0 154 104 371q31 63 193 348q104 182 104 250q0 16 -15.5 29.5t-31.5 13.5q-63 0 -125 -80q-37 -45 -90 -146q-41 -80 -53 -80q-25 0 -54.5 41t-29.5 66q0 104 132 234t249 130q84 0 159 -47q86 -53 86 -133q0 -111 -106 -311q-98 -170 -197 -342 q-106 -188 -106 -268q0 -68 69 -68q55 0 121 117q158 276 467 833q18 35 59 105q33 53 70 63q16 4 96 4q127 0 127 -22q0 -10 -475 -914q-481 -920 -547 -1026q-10 -14 -20 -14q-39 16 -76 47q-47 39 -47 70q0 66 266 588q-82 -66 -162 -66q-76 0 -122 68q-45 61 -45 139z M1350 1526q49 45 135 147q14 23 26.5 69t20.5 64q23 47 59 47q57 0 58 -67q0 -74 -111 -172q-90 -80 -178 -119z" />
<glyph unicode="&#x2c6;" horiz-adv-x="600" d="M551 1559q193 147 334 331h22q72 -217 158 -340l-49 -16q-57 43 -137 215q-68 -59 -134 -119q-82 -66 -153 -88z" />
<glyph unicode="&#x2dc;" horiz-adv-x="612" d="M549 1534q14 76 55 125q49 61 119 61q47 0 126 -31.5t114 -31.5q45 0 72.5 31.5t54.5 62.5h34q-18 -80 -65 -135q-55 -68 -129 -68q-45 0 -131 28t-133 28q-41 0 -74 -70h-43z" />
<glyph unicode="&#x2000;" horiz-adv-x="968" />
<glyph unicode="&#x2001;" horiz-adv-x="1937" />
<glyph unicode="&#x2002;" horiz-adv-x="968" />
<glyph unicode="&#x2003;" horiz-adv-x="1937" />
<glyph unicode="&#x2004;" horiz-adv-x="645" />
<glyph unicode="&#x2005;" horiz-adv-x="483" />
<glyph unicode="&#x2006;" horiz-adv-x="321" />
<glyph unicode="&#x2007;" horiz-adv-x="321" />
<glyph unicode="&#x2008;" horiz-adv-x="241" />
<glyph unicode="&#x2009;" horiz-adv-x="387" />
<glyph unicode="&#x200a;" horiz-adv-x="106" />
<glyph unicode="&#x2010;" horiz-adv-x="964" d="M205 518q0 49 59 92q53 41 105 41q41 0 121.5 -16.5t123.5 -16.5q51 0 123 17q104 23 123 24l8 -8q-2 -82 -66.5 -126t-148.5 -44q-61 0 -179 17.5t-177 17.5q-12 0 -38 -4t-38 -4q-16 0 -16 10z" />
<glyph unicode="&#x2011;" horiz-adv-x="964" d="M205 518q0 49 59 92q53 41 105 41q41 0 121.5 -16.5t123.5 -16.5q51 0 123 17q104 23 123 24l8 -8q-2 -82 -66.5 -126t-148.5 -44q-61 0 -179 17.5t-177 17.5q-12 0 -38 -4t-38 -4q-16 0 -16 10z" />
<glyph unicode="&#x2012;" horiz-adv-x="964" d="M205 518q0 49 59 92q53 41 105 41q41 0 121.5 -16.5t123.5 -16.5q51 0 123 17q104 23 123 24l8 -8q-2 -82 -66.5 -126t-148.5 -44q-61 0 -179 17.5t-177 17.5q-12 0 -38 -4t-38 -4q-16 0 -16 10z" />
<glyph unicode="&#x2013;" horiz-adv-x="1675" d="M190 518q0 47 56.5 88t105.5 41q61 0 160 -10q125 -12 162 -14q188 -10 358 -11q100 0 290.5 23.5t289.5 23.5h10l8 -16l-24 -55q-43 -96 -199 -103q-215 -8 -381 -8q-193 0 -328 8q-41 2 -192 19q-121 12 -193 12q-18 0 -54 -4t-54 -4q-15 0 -15 10z" />
<glyph unicode="&#x2014;" horiz-adv-x="1871" d="M152 518q0 47 55 88t104 41q47 0 127 -10q96 -10 127 -12q135 -8 355 -9q430 0 925 43l8 -6v-10q0 -23 -18 -51q-45 -102 -193 -109q-139 -6 -421 -6q-365 0 -682 19q-27 2 -138 12q-86 8 -139 8q-14 0 -46 -4t-48 -4t-16 10z" />
<glyph unicode="&#x2018;" horiz-adv-x="446" d="M406 1024v6q39 127 151 262q129 156 242 156h18l14 -18q-51 -35 -124 -111q-16 -31 -21 -57q-2 -18 0 -50q4 -43 4 -59q0 -74 -57.5 -81t-114.5 -11q-31 -6 -100 -49z" />
<glyph unicode="&#x2019;" horiz-adv-x="438" d="M393 1022q51 37 123 111q16 29 21 57q2 20 0 51q-4 41 -5 57q0 57 31 76q25 14 83.5 14.5t107.5 26.5q27 12 51 27l12 -12v-9q-39 -127 -149 -260q-131 -158 -242 -157h-18z" />
<glyph unicode="&#x201c;" horiz-adv-x="798" d="M403 1024l3 6q45 137 147 264q123 154 242 154h20l14 -18q-51 -35 -124 -111q-16 -31 -21 -57q-2 -18 0 -50q4 -43 4 -59q0 -74 -57.5 -81t-114.5 -11q-33 -6 -100 -49zM756 1024l2 6q45 137 147 264q125 154 244 154h18l15 -18q-49 -35 -123 -111q-16 -31 -21 -57 q-4 -18 -2 -50q4 -45 4 -59q0 -74 -57 -81t-115 -11q-33 -6 -100 -49z" />
<glyph unicode="&#x201d;" horiz-adv-x="792" d="M387 1022q102 70 121.5 111t19.5 161q0 66 37 84q20 10 94 11q41 0 91 26q27 12 51 27l12 -12l-2 -9q-53 -137 -149 -260q-125 -158 -236 -157q-39 0 -39 18zM739 1022l59 47q58 47 66 64q14 25 19 53q2 20 0 53q-2 45 -2 55q0 66 37 84q20 10 94 11q41 0 90 26 q27 12 51 27l12 -12l-2 -9q-51 -135 -149 -260q-125 -158 -236 -157q-39 0 -39 18z" />
<glyph unicode="&#x2022;" horiz-adv-x="485" d="M190 524q0 70 52.5 130.5t119.5 60.5q68 0 68 -74q0 -76 -41 -137q-47 -68 -121 -68q-78 0 -78 88z" />
<glyph unicode="&#x2026;" horiz-adv-x="1456" d="M1118 70q0 66 50.5 131t113.5 65q66 0 66 -67q0 -70 -41 -140q-47 -78 -113 -77q-31 0 -53.5 28.5t-22.5 59.5zM632 70q0 66 50.5 131t113.5 65q66 0 66 -67q0 -70 -41 -140q-47 -78 -113 -77q-31 0 -53.5 28.5t-22.5 59.5zM147 70q0 66 50.5 131t113.5 65q66 0 66 -67 q0 -70 -41 -140q-47 -78 -113 -77q-31 0 -53.5 28.5t-22.5 59.5z" />
<glyph unicode="&#x202f;" horiz-adv-x="387" />
<glyph unicode="&#x2039;" horiz-adv-x="1110" d="M199 483v207l843 311v-190l-645 -225l645 -226v-188z" />
<glyph unicode="&#x203a;" horiz-adv-x="1110" d="M221 172v188l645 226l-645 225v190l844 -311v-207z" />
<glyph unicode="&#x205f;" horiz-adv-x="483" />
<glyph unicode="&#x2122;" horiz-adv-x="2787" d="M1370 39q0 68 307 596t307 604q0 29 -30.5 45t-59.5 16q-143 0 -285 -301q-25 -51 -30 -51q-29 0 -51.5 34t-22.5 65q0 145 156 270q150 121 301 121q94 0 161 -47q74 -53 93 -142q127 170 274 170q80 0 123 -69q30 -50 29 -118q0 -12 -1 -24q121 117 250 117 q49 0 97 -25q53 -31 53 -75q0 -63 -266.5 -498.5t-266.5 -538.5q0 -68 58 -67q70 0 176 100q82 76 139 160v-94q-227 -311 -424 -312q-74 0 -129 60.5t-55 134.5q0 106 119 322q59 109 219 356q119 184 119 213t-33 29q-92 0 -375 -457q-170 -289 -340 -576q-41 -61 -98 -61 q-129 0 -129 49q0 76 332.5 606.5t332.5 558.5q0 20 -26 21q-115 0 -394 -455q-100 -168 -325 -588q-68 -127 -70 -131q-49 -63 -125 -63q-110 0 -110 45zM102 313q0 111 75 201t185 90q41 0 84 -14q57 -18 58 -49q0 -14 -60 -43q-74 -35 -108 -72q-59 -61 -60 -154 q0 -53 40 -97t94 -44q94 0 178 137q63 100 125 285q37 123 73 244q49 152 129 262q55 74 197 215q-129 31 -242 31q-127 0 -237 -54q-139 -68 -139 -180q0 -37 24.5 -64.5t59.5 -27.5q55 0 90 45q14 20 43 84q18 45 37 45q35 0 34 -78q0 -96 -54 -150.5t-150 -54.5 q-90 0 -158 64.5t-68 152.5q0 209 207 312q156 76 391 76q68 0 203 -8.5t205 -8.5q225 0 411 78q-49 -285 -421 -285q-31 0 -62 2q-145 -178 -239 -426q-59 -174 -121 -348q-84 -225 -187 -340q-133 -154 -319 -153q-137 0 -227.5 94t-90.5 233z" />
<glyph unicode="&#xe000;" horiz-adv-x="735" d="M0 735h735v-735h-735v735z" />
<glyph unicode="&#xfb01;" horiz-adv-x="983" d="M551 154q0 104 79 284q66 131 130 262q14 33 23 40.5t42 7.5h125q29 0 29 -17q0 -25 -121 -246t-121 -299q0 -55 53 -55q49 0 156 102q90 84 131 148v-94q-57 -94 -176 -193q-135 -111 -227 -110q-123 0 -123 170zM831 879q0 68 47 135t113 67q70 0 70 -80 q0 -72 -41 -131q-47 -66 -115 -65q-74 0 -74 74zM-41 -88q0 125 68 307q61 147 120 295q-31 41 -30 90q0 49 32.5 86t81.5 43q82 160 254 475q25 45 47 88q23 31 93 39q49 6 75 6q35 0 35 -32q0 -31 -160 -320q-100 -174 -198 -350q51 -156 57 -330q37 -20 62 -20 q55 0 129 88v-82q-45 -88 -127 -88q-35 0 -62 14v-11q0 -176 -65 -331q-86 -205 -242 -205q-86 0 -131 80q-39 68 -39 158zM121 -127q0 -59 41 -59q57 0 112 184q45 156 45 240q0 43 -16 81l-39 41q-143 -378 -143 -487z" />
<glyph unicode="&#xfb02;" horiz-adv-x="1005" d="M549 143q0 164 245 654l348 667q23 45 54 52h84q96 0 96 -17q0 -20 -164 -317q-213 -391 -301 -572q-164 -328 -164 -422q0 -53 45 -53q57 0 168 105q86 84 137 155v-96q-51 -92 -180 -197q-141 -119 -231 -118q-66 0 -101.5 45.5t-35.5 113.5zM-41 -88q0 125 68 307 q61 147 120 295q-31 41 -30 90q0 49 32.5 86t81.5 43q82 160 254 475q25 45 47 88q23 31 93 39q49 6 75 6q35 0 35 -32q0 -31 -160 -320q-100 -174 -198 -350q51 -156 57 -330q37 -20 62 -20q55 0 129 88v-82q-45 -88 -127 -88q-35 0 -62 14v-11q0 -176 -65 -331 q-86 -205 -242 -205q-86 0 -131 80q-39 68 -39 158zM121 -127q0 -59 41 -59q57 0 112 184q45 156 45 240q0 43 -16 81l-39 41q-143 -378 -143 -487z" />
<glyph unicode="&#xfb03;" horiz-adv-x="1507" d="M1076 154q0 104 79 284q66 131 130 262q14 33 23 40.5t42 7.5h125q29 0 29 -17q0 -25 -121 -246t-121 -299q0 -55 53 -55q49 0 156 102q90 84 131 148v-94q-57 -94 -176 -193q-135 -111 -227 -110q-123 0 -123 170zM1356 879q0 68 47 135t113 67q70 0 70 -80 q0 -72 -41 -131q-47 -66 -115 -65q-74 0 -74 74zM483 -88q0 125 68 307q61 147 120 295q-31 41 -30 90q0 49 32.5 86t81.5 43q82 160 254 475q25 45 47 88q23 31 93 39q49 6 75 6q35 0 35 -32q0 -31 -160 -320q-100 -174 -198 -350q51 -156 57 -330q37 -20 62 -20 q55 0 129 88v-82q-45 -88 -127 -88q-35 0 -62 14v-11q0 -176 -65 -331q-86 -205 -242 -205q-86 0 -131 80q-39 68 -39 158zM645 -127q0 -59 41 -59q57 0 112 184q45 156 45 240q0 43 -16 81l-39 41q-143 -378 -143 -487zM-41 -88q0 125 68 307q61 147 120 295q-31 41 -30 90 q0 49 32.5 86t81.5 43q82 160 254 475q25 45 47 88q23 31 93 39q49 6 75 6q35 0 35 -32q0 -31 -160 -320q-100 -174 -198 -350q51 -156 57 -330q37 -20 62 -20q55 0 129 88v-82q-45 -88 -127 -88q-35 0 -62 14v-11q0 -176 -65 -331q-86 -205 -242 -205q-86 0 -131 80 q-39 68 -39 158zM121 -127q0 -59 41 -59q57 0 112 184q45 156 45 240q0 43 -16 81l-39 41q-143 -378 -143 -487z" />
<glyph unicode="&#xfb04;" horiz-adv-x="1529" d="M1074 143q0 164 245 654l348 667q23 45 54 52h84q96 0 96 -17q0 -20 -164 -317q-213 -391 -301 -572q-164 -328 -164 -422q0 -53 45 -53q57 0 168 105q86 84 137 155v-96q-51 -92 -180 -197q-141 -119 -231 -118q-66 0 -101.5 45.5t-35.5 113.5zM483 -88q0 125 68 307 q61 147 120 295q-31 41 -30 90q0 49 32.5 86t81.5 43q82 160 254 475q25 45 47 88q23 31 93 39q49 6 75 6q35 0 35 -32q0 -31 -160 -320q-100 -174 -198 -350q51 -156 57 -330q37 -20 62 -20q55 0 129 88v-82q-45 -88 -127 -88q-35 0 -62 14v-11q0 -176 -65 -331 q-86 -205 -242 -205q-86 0 -131 80q-39 68 -39 158zM645 -127q0 -59 41 -59q57 0 112 184q45 156 45 240q0 43 -16 81l-39 41q-143 -378 -143 -487zM-41 -88q0 125 68 307q61 147 120 295q-31 41 -30 90q0 49 32.5 86t81.5 43q82 160 254 475q25 45 47 88q23 31 93 39 q49 6 75 6q35 0 35 -32q0 -31 -160 -320q-100 -174 -198 -350q51 -156 57 -330q37 -20 62 -20q55 0 129 88v-82q-45 -88 -127 -88q-35 0 -62 14v-11q0 -176 -65 -331q-86 -205 -242 -205q-86 0 -131 80q-39 68 -39 158zM121 -127q0 -59 41 -59q57 0 112 184q45 156 45 240 q0 43 -16 81l-39 41q-143 -378 -143 -487z" />
</font>
</defs>
</svg>
